<svg width="203" height="413" viewBox="0 0 203 413" fill="none" xmlns="http://www.w3.org/2000/svg">
<path d="M170.12 412.07H30.9501C14.1401 412 -0.0498683 397.66 0.000131734 380.84L1.48014 30.3303C1.49587 26.3299 2.29972 22.3717 3.84577 18.6821C5.39183 14.9924 7.64978 11.6436 10.4906 8.8269C13.3314 6.01023 16.6994 3.78095 20.4021 2.26645C24.1048 0.751943 28.0697 -0.018101 32.0701 0.00032295L171.88 0.650324C175.878 0.667358 179.834 1.47192 183.521 3.01806C187.209 4.5642 190.555 6.82162 193.37 9.66137C196.185 12.5011 198.412 15.8676 199.926 19.5684C201.439 23.2693 202.209 27.232 202.19 31.2303L200.71 381.74C200.694 385.741 199.891 389.699 198.344 393.389C196.798 397.078 194.541 400.427 191.7 403.244C188.859 406.06 185.491 408.29 181.788 409.804C178.085 411.319 174.121 412.089 170.12 412.07Z" fill="#263238"/>
<path d="M171.69 13.9601L144.58 13.8801C143.696 13.8957 142.824 14.0853 142.014 14.438C141.203 14.7907 140.47 15.2997 139.856 15.9358C139.242 16.5719 138.76 17.3227 138.436 18.1453C138.112 18.968 137.954 19.8463 137.97 20.7301V25.6501C137.999 27.4343 137.32 29.1574 136.081 30.4415C134.842 31.7256 133.144 32.4659 131.36 32.5001L78.52 32.2501C77.6361 32.2268 76.7655 32.0295 75.9578 31.6696C75.1502 31.3096 74.4214 30.794 73.8131 30.1523C73.2049 29.5106 72.729 28.7553 72.4127 27.9296C72.0965 27.1039 71.946 26.224 71.97 25.3401V20.4301C72.013 18.6438 71.3472 16.9132 70.1179 15.6165C68.8886 14.3197 67.196 13.5624 65.41 13.5101H55.88L32.15 13.4001C29.3489 13.3882 26.5729 13.9282 23.9805 14.9892C21.3881 16.0503 19.03 17.6115 17.041 19.5838C15.0519 21.5561 13.4709 23.9009 12.388 26.4843C11.3052 29.0676 10.7418 31.839 10.73 34.6401L9.27998 376.69C9.25605 382.345 11.479 387.779 15.4602 391.796C19.4413 395.812 24.8546 398.084 30.51 398.11L170.04 398.75C172.842 398.765 175.62 398.226 178.214 397.167C180.808 396.107 183.168 394.546 185.158 392.573C187.149 390.6 188.731 388.254 189.814 385.67C190.897 383.085 191.46 380.312 191.47 377.51L192.88 35.3801C192.901 29.7324 190.683 24.3066 186.711 20.2916C182.739 16.2765 177.338 13.9998 171.69 13.9601V13.9601Z" fill="#F5F5F5"/>
<path d="M112.47 334.1C112.31 338.23 112.16 342.1 112.03 345.33H132.03L129.58 333.01L112.47 334.1Z" fill="#F5F5F5"/>
<path d="M31.0103 339.25L31.1803 345.33H110.03C110.16 341.91 110.31 338.13 110.46 334.23L31.0103 339.25Z" fill="#F5F5F5"/>
<path d="M130.63 332.95L133.09 345.32H170.05L169.6 330.49L130.63 332.95Z" fill="#F5F5F5"/>
<path d="M114.47 159.96L121.46 119.45L103.16 118.09V159.96H114.47Z" fill="#F5F5F5"/>
<path d="M29.3599 316.76L9.49994 324.54L9.43994 338.61L29.95 337.31L29.3599 316.76Z" fill="#F5F5F5"/>
<path d="M29.2702 313.601L28.1902 275.871H28.1702V262.561L9.75024 264.511L9.51025 321.321L29.2603 313.581L29.2702 313.601Z" fill="#F5F5F5"/>
<path d="M28.17 232.86L9.90002 230.44L9.77002 261.5L28.17 259.55V232.86Z" fill="#F5F5F5"/>
<path d="M164.36 263.12L163.59 273.94L142.01 276.26L143.68 284.82L168.17 282.97L167.81 270.7L169.76 262.58L164.36 263.12Z" fill="#F5F5F5"/>
<path d="M125.46 286.19L142.67 284.89L138.92 265.69L123.9 267.21L125.46 286.19Z" fill="#F5F5F5"/>
<path d="M125.63 288.19L126.94 304.2L129.27 326.16L130.23 330.97L169.54 328.49L168.23 284.97L125.63 288.19Z" fill="#F5F5F5"/>
<path d="M57.9702 212.58L59.4802 215.17L29.1702 232.88V274.83L61.1702 272.56L122.88 266.31L120.62 238.82L61.7102 231.12L62.1002 228.12L120.37 235.73L116.55 189.2L58.8702 194.74L58.6802 192.74L116.38 187.2L114.38 162.92H58.8802L10.1702 171.78L9.93018 227.38L28.3602 229.88L57.9702 212.58ZM32.2702 270.79C32.2702 270.79 32.5002 236.21 32.2702 234.92L57.0102 221.76L60.2202 269.03L32.2702 270.79Z" fill="#F5F5F5"/>
<path d="M162.33 263.33L139.92 265.59L141.62 274.29L161.71 272.13L162.33 263.33Z" fill="#F5F5F5"/>
<path d="M112.75 326.69C112.68 328.51 112.61 330.31 112.55 332.09L129.23 331.03L128.37 326.73L112.75 326.69Z" fill="#F5F5F5"/>
<path d="M76.8202 159.96L79.7602 146.63H102.16V118.02L32.1302 112.83V139.7L10.2602 144.65L10.1602 168.77L58.5902 159.96H76.8202Z" fill="#F5F5F5"/>
<path d="M123.55 80.3303L122.95 77.8803L149.69 67.3003L132.3 32.3803C131.969 32.4339 131.635 32.4606 131.3 32.4603L101.75 32.3203L102.55 81.1903L123.55 80.3303Z" fill="#F5F5F5"/>
<path d="M164.07 61.6004V13.9304L144.58 13.8804C143.697 13.896 142.824 14.0856 142.014 14.4383C141.203 14.791 140.47 15.3 139.856 15.9361C139.243 16.5722 138.76 17.323 138.436 18.1456C138.113 18.9682 137.954 19.8465 137.97 20.7304V25.6504C137.97 26.7489 137.71 27.8319 137.214 28.8117C136.717 29.7915 135.996 30.6406 135.11 31.2904L152.51 66.2304L164.07 61.6004Z" fill="#F5F5F5"/>
<path d="M63.55 63.6501L61.29 13.4501H55.88L34.73 13.3501L25.73 58.2401L63.55 63.6501ZM58.73 18.5401L59.45 59.4201L31.34 55.3101L37.49 18.5401H58.73Z" fill="#F5F5F5"/>
<path d="M64.57 63.8002V64.2202C64.57 68.1402 64.69 75.2202 64.75 82.7302L101.58 81.2302L100.78 32.3202L78.49 32.2102C77.6061 32.1869 76.7355 31.9896 75.9279 31.6297C75.1203 31.2697 74.3915 30.7542 73.7832 30.1125C73.1749 29.4707 72.699 28.7154 72.3828 27.8897C72.0665 27.064 71.9161 26.1841 71.94 25.3002V20.3902C71.9831 18.604 71.3172 16.8733 70.0879 15.5766C68.8587 14.2799 67.166 13.5226 65.38 13.4702H62.27L64.53 63.8002H64.57Z" fill="#F5F5F5"/>
<path d="M22.7504 57.7903L31.6704 13.3403C26.0993 13.4396 20.7885 15.7159 16.8748 19.6819C12.9612 23.6479 10.7556 28.9885 10.7304 34.5603L10.6304 56.7203L10.7304 56.0703L22.7504 57.7903Z" fill="#F5F5F5"/>
<path d="M29.13 112.61L10.4 111.22L10.27 141.57L29.13 137.3V112.61Z" fill="#F5F5F5"/>
<path d="M22.5499 58.7705L10.6299 57.0605L10.4199 106.211L12.9899 106.401L22.5499 58.7705Z" fill="#F5F5F5"/>
<path d="M60.3802 313.02L60.6902 273.57L29.1802 275.8L30.3002 314.45L60.3802 313.02Z" fill="#F5F5F5"/>
<path d="M66.18 303.88L110.8 325.26C111.34 311.26 111.8 298.261 111.8 297.391L112.8 297.34L113.28 296.4C113.91 296.71 113.91 296.71 113.58 306.24C113.39 311.55 113.13 318.62 112.86 325.69H128.29L126.02 304.25L123.02 267.25L64.71 273.13L66.18 303.88Z" fill="#F5F5F5"/>
<path d="M175.57 238.44L175.06 233.23L121.57 238.8L123.82 266.21L170.01 261.55L175.57 238.44Z" fill="#F5F5F5"/>
<path d="M102.16 149.63H82.1701L79.8901 159.96H102.16V149.63Z" fill="#F5F5F5"/>
<path d="M167.31 153.12L117.26 149.66L115.26 161.48L117.37 187.14L170.15 182.06L167.31 153.12ZM119.1 161.46L121.79 154L165.26 156.75L167.77 178.09L120.57 183.69L119.1 161.46Z" fill="#F5F5F5"/>
<path d="M172.5 206.751L170.3 184.061L117.49 189.131L119.48 213.281L172.5 206.751Z" fill="#F5F5F5"/>
<path d="M30.0102 339.32L9.52016 340.61L9.44016 339.28L9.41016 345.32H30.1802L30.0102 339.32Z" fill="#F5F5F5"/>
<path d="M192.55 50.3304L192.85 51.1004L192.88 35.3804C192.901 29.7259 190.677 24.2941 186.697 20.2779C182.716 16.2617 177.305 13.9896 171.65 13.9604H165V61.2404L192.55 50.3304Z" fill="#F5F5F5"/>
<path d="M110.76 326.391L65.2103 304.561L63.6003 273.291L61.7003 273.481L61.3703 313.981L30.3203 315.451V316.351L30.9203 337.231L110.51 332.231C110.61 330.281 110.69 328.331 110.76 326.391ZM32.2703 318.031L75.7303 315.031L104 328.141L32.2703 332.021V318.031Z" fill="#F5F5F5"/>
<path d="M179.6 102.88L181.47 91.8301C165.13 86.0001 164 68.9601 164.05 63.8301L153.39 68.0501L169.44 100.28L179.6 102.88Z" fill="#F5F5F5"/>
<path d="M121.32 235.81L143.53 233.5L139.16 213.88L119.72 216.28L121.32 235.81Z" fill="#F5F5F5"/>
<path d="M167.38 119.781H125.9L122.46 119.521L117.77 146.691L167.01 150.091L165.87 138.281L170.72 120.841L167.38 119.781Z" fill="#F5F5F5"/>
<path d="M166.37 114.78L166.89 101.78L150.59 69.0503L125.31 79.0503L134 114.73L166.37 114.78ZM149.6 73.0703L164.54 101.49L162.38 110.35L136.82 109.35L130.43 82.4703L149.6 73.0703Z" fill="#F5F5F5"/>
<path d="M172.82 271.22L173.59 296.69L191.56 295.68L191.62 296.68L173.62 297.69L174.53 328.17L191.53 327.09L191.65 329.09L174.59 330.17L175.05 345.32H191.61L191.97 260.34L175.03 262.05L172.82 271.22Z" fill="#F5F5F5"/>
<path d="M63.58 64.6602L25.52 59.2002L16 106.62L63.75 110.16C63.94 102.88 63.77 80.4602 63.58 64.6602Z" fill="#F5F5F5"/>
<path d="M126.18 114.78H131.94L123.79 81.3203L102.61 82.1903L103.12 113.07L126.18 114.78Z" fill="#F5F5F5"/>
<path d="M64.7202 110.23L102.11 113L101.61 82.2305L64.7702 83.7305C64.8802 94.1405 64.8802 105.24 64.7202 110.23Z" fill="#F5F5F5"/>
<path d="M172.79 209.74L140.15 213.76L144.54 233.39L174.77 230.25L172.79 209.74Z" fill="#F5F5F5"/>
<path d="M181.64 90.7801L183.73 78.3801L192.73 79.0801L192.85 52.3701L165.06 63.3701C164.49 82.1601 176.3 88.7701 181.64 90.7801Z" fill="#F5F5F5"/>
<path d="M170.94 138.72L172.07 150.44L192.43 151.85L192.53 127.72L175.49 122.34L170.94 138.72Z" fill="#F5F5F5"/>
<path d="M180.62 238.79L175.28 261.02L191.97 259.33L192.07 236.02C186.95 234.67 182.48 233.57 180.07 233.11L180.62 238.79Z" fill="#F5F5F5"/>
<path d="M169.36 115.16L192.55 122.49L192.61 109.3L169.83 103.41L169.36 115.16Z" fill="#F5F5F5"/>
<path d="M179.78 230.06C181.65 230.34 185.19 231.06 192.08 232.91L192.3 181.91L175.3 183.55L179.78 230.06Z" fill="#F5F5F5"/>
<path d="M175.09 181.59L192.31 179.93L192.41 154.86L172.36 153.47L175.09 181.59Z" fill="#F5F5F5"/>
<path d="M183.56 91.4102C186.556 92.3392 189.596 93.1168 192.67 93.7402V81.0802L185.34 80.5103L183.56 91.4102Z" fill="#F5F5F5"/>
<path d="M181.55 103.34L192.62 106.2L192.67 94.7702C189.8 94.1902 186.67 93.4102 183.39 92.4102L181.55 103.34Z" fill="#F5F5F5"/>
<path d="M30.0102 339.31L30.1802 345.31H31.1802L31.0102 339.23L110.46 334.23C110.31 338.13 110.16 341.91 110.03 345.33H112.03C112.16 342.1 112.31 338.23 112.47 334.1L129.62 333.01L132.07 345.33H133.07L130.61 332.95L169.61 330.49L170.06 345.33H175.06L174.6 330.17L191.66 329.09L191.54 327.09L174.54 328.17L173.63 297.69L191.63 296.69L191.57 295.69L173.57 296.69L172.8 271.22L175.01 262.05L191.95 260.34V259.34L175.26 261.03L180.6 238.8L180.05 233.12C182.46 233.58 186.93 234.68 192.05 236.03V232.88C185.16 231.06 181.62 230.31 179.75 230.03L175.25 183.55L192.25 181.91V179.91L175.03 181.57L172.3 153.45L192.3 154.84V151.84L171.94 150.43L170.81 138.71L175.36 122.33L192.36 127.71V122.48L169.17 115.15L169.64 103.4L192.42 109.29V106.19L181.35 103.33L183.19 92.4001C186.51 93.4001 189.6 94.1801 192.47 94.7601V93.7601C189.396 93.1367 186.356 92.359 183.36 91.4301L185.19 80.5301L192.52 81.1001V79.1001L183.52 78.4001L181.43 90.8001C176.09 88.8001 164.28 82.1801 164.85 63.3801L192.64 52.3801V51.1101L192.34 50.3401L164.86 61.2201V13.9401H163.86V61.6101L152.28 66.2001L134.88 31.2601C134.054 31.8553 133.097 32.2429 132.09 32.3901L149.48 67.3101L122.95 77.8801L123.55 80.3301L102.55 81.1901L101.75 32.3201H100.75L101.55 81.2301L64.7202 82.7301C64.6602 75.1901 64.5802 68.1401 64.5402 64.2201V63.8001L62.2802 13.4701H61.2802L63.5402 63.6701L25.7102 58.2401L34.7102 13.3501H32.1302H31.6502L22.7302 57.8001L10.7302 56.0801L10.6302 56.7301V57.0701L22.5502 58.7801L12.9902 106.41L10.4202 106.22V111.22L29.1502 112.61V137.3L10.2902 141.57V144.65L32.1602 139.65V112.88L102.16 118.07V146.69H79.7602L76.8202 160.01H58.5902L10.1602 168.82V171.87L58.8802 162.96H114.36L116.36 187.24L58.6602 192.78L58.8502 194.78L116.53 189.24L120.35 235.77L62.0802 228.16L61.6902 231.16L120.6 238.86L122.88 266.31L61.2102 272.53L29.2102 274.8V232.88L59.5202 215.2L58.0102 212.61L28.3602 229.88L9.88022 227.42V230.42L28.1702 232.88V259.57L9.77022 261.52V264.52L28.1902 262.57V275.88L29.2802 313.61L9.53021 321.35V324.57L29.3902 316.79L29.9802 337.34L9.47021 338.64V339.31L9.55022 340.64L30.0102 339.31ZM112.55 332.09C112.61 330.31 112.68 328.51 112.75 326.69H128.37L129.23 330.99L112.55 332.09ZM130.23 330.97L129.23 326.16L126.9 304.16L125.59 288.16L168.19 284.94L169.5 328.45L130.23 330.97ZM139.88 265.59L162.3 263.33L161.67 272.13L141.58 274.29L139.88 265.59ZM138.88 265.69L142.63 284.89L125.42 286.19L123.86 267.19L138.88 265.69ZM168.13 282.97L143.64 284.82L141.97 276.26L163.55 273.94L164.32 263.12L169.72 262.58L167.77 270.7L168.13 282.97ZM139.13 213.88L143.5 233.5L121.29 235.81L119.69 216.28L139.13 213.88ZM144.51 233.39L140.12 213.76L172.76 209.76L174.76 230.27L144.51 233.39ZM166.98 150.09L117.74 146.68L122.43 119.52L125.87 119.78H167.36L170.69 120.84L165.88 138.28L166.98 150.09ZM163.98 63.7601C163.93 68.9201 165.06 85.9601 181.4 91.7601L179.6 102.88L169.44 100.25L153.39 67.9801L163.98 63.7601ZM150.52 69.0901L166.88 101.82L166.36 114.82H134L125.31 79.1401L150.52 69.0901ZM123.72 81.3201L131.87 114.78H126.18L103.12 113.08L102.61 82.1901L123.72 81.3201ZM101.54 82.2301L102.04 113L64.6502 110.23C64.8102 105.23 64.7802 94.1401 64.6502 83.7301L101.54 82.2301ZM25.4502 59.2301L63.5102 64.6901C63.7002 80.4901 63.8702 102.89 63.6802 110.19L15.9302 106.65L25.4502 59.2301ZM121.39 119.48L114.39 159.99H103.16V118.09L121.39 119.48ZM82.1002 149.67H102.1V159.99H79.8802L82.1002 149.67ZM115.1 161.51L117.1 149.69L167.15 153.15L169.95 182.09L117.17 187.17L115.1 161.51ZM170.18 184.09L172.38 206.78L119.38 213.32L117.38 189.16L170.18 184.09ZM121.45 238.83L174.94 233.26L175.45 238.47L169.89 261.58L123.7 266.24L121.45 238.83ZM125.83 304.32L128.1 325.76H112.79C113.06 318.69 113.32 311.62 113.51 306.31C113.84 296.78 113.84 296.78 113.21 296.47L112.73 297.41L111.73 297.46C111.73 298.29 111.3 311.36 110.73 325.33L66.1802 303.88L64.6002 273.15L122.88 267.31L125.83 304.32ZM60.5702 273.6L60.2602 313.05L30.1802 314.48L29.0602 275.83L60.5702 273.6ZM30.2302 316.4V315.5L61.2802 314.03L61.6102 273.53L63.5102 273.34L65.1202 304.61L110.67 326.44C110.6 328.38 110.52 330.33 110.45 332.27L30.8602 337.27L30.2302 316.4Z" fill="white"/>
<path d="M75.73 314.98L32.27 318.02V331.98L104.01 328.09L75.73 314.98Z" fill="#EBEBEB"/>
<path d="M165.26 156.75L121.79 154L119.1 161.46L120.57 183.69L167.77 178.09L165.26 156.75Z" fill="#EBEBEB"/>
<path d="M30.5101 398.11L170.04 398.75C172.842 398.765 175.62 398.226 178.214 397.166C180.808 396.107 183.168 394.546 185.158 392.573C187.149 390.6 188.731 388.254 189.814 385.67C190.897 383.085 191.46 380.312 191.47 377.51L191.61 345.33H9.41006L9.31006 369.67V377.33C9.45033 382.87 11.7419 388.137 15.6993 392.016C19.6566 395.895 24.9688 398.081 30.5101 398.11V398.11Z" fill="#EBEBEB"/>
<path d="M59.4503 59.4205L58.7303 18.5405H37.5003L31.3403 55.3105L59.4503 59.4205Z" fill="#EBEBEB"/>
<path d="M162.38 110.35L164.54 101.49L149.6 73.0703L130.43 82.5103L136.82 109.39L162.38 110.35Z" fill="#EBEBEB"/>
<path d="M32.27 234.88C32.5 236.17 32.27 270.75 32.27 270.75L60.27 268.99L57.06 221.72L32.27 234.88Z" fill="#EBEBEB"/>
<path d="M125.47 263L123.99 241.57L171.92 235.41V239.11L166.12 258.82L125.47 263Z" fill="#EBEBEB"/>
<path d="M90.0203 85.2702C90.0203 86.4252 89.6778 87.5543 89.0361 88.5147C88.3944 89.4751 87.4823 90.2236 86.4152 90.6656C85.3481 91.1076 84.1739 91.2233 83.041 90.998C81.9082 90.7726 80.8676 90.2164 80.0508 89.3997C79.2341 88.5829 78.6779 87.5423 78.4526 86.4095C78.2272 85.2767 78.3429 84.1024 78.7849 83.0353C79.2269 81.9682 79.9754 81.0561 80.9358 80.4144C81.8962 79.7727 83.0253 79.4302 84.1803 79.4302C85.7292 79.4302 87.2146 80.0455 88.3098 81.1407C89.405 82.2359 90.0203 83.7213 90.0203 85.2702V85.2702Z" fill="#FF9F43"/>
<g opacity="0.6">
<path opacity="0.6" d="M90.0104 85.0202C90.0608 86.1746 89.7677 87.3179 89.1681 88.3056C88.5685 89.2933 87.6894 90.0809 86.642 90.5688C85.5947 91.0568 84.4261 91.223 83.2842 91.0466C82.1423 90.8702 81.0784 90.359 80.2272 89.5777C79.3759 88.7964 78.7755 87.7802 78.5019 86.6576C78.2284 85.535 78.294 84.3565 78.6905 83.2712C79.0869 82.1859 79.7964 81.2426 80.7292 80.5607C81.6619 79.8788 82.776 79.4888 83.9304 79.4402C85.4763 79.3752 86.9848 79.9262 88.1247 80.9724C89.2647 82.0186 89.9429 83.4744 90.0104 85.0202V85.0202Z" fill="white"/>
</g>
<path d="M84.1803 88.9504C86.3232 88.9504 88.0603 87.2133 88.0603 85.0704C88.0603 82.9276 86.3232 81.1904 84.1803 81.1904C82.0374 81.1904 80.3003 82.9276 80.3003 85.0704C80.3003 87.2133 82.0374 88.9504 84.1803 88.9504Z" fill="#FF9F43"/>
<path d="M174.41 318.42C174.402 318.911 174.25 319.39 173.972 319.795C173.694 320.2 173.302 320.514 172.846 320.698C172.391 320.882 171.891 320.928 171.409 320.829C170.928 320.731 170.486 320.492 170.139 320.144C169.793 319.796 169.556 319.353 169.459 318.871C169.363 318.39 169.41 317.89 169.596 317.435C169.782 316.98 170.098 316.59 170.504 316.313C170.91 316.037 171.389 315.886 171.88 315.88C172.215 315.876 172.546 315.939 172.856 316.065C173.165 316.192 173.446 316.379 173.682 316.616C173.918 316.852 174.104 317.134 174.229 317.444C174.354 317.754 174.416 318.086 174.41 318.42V318.42Z" fill="#FF9F43"/>
<path d="M170.42 317.61L169.81 303.61L127.69 305.66C126.586 305.712 125.487 305.477 124.5 304.98L64.7499 274.8C64.0699 274.455 63.4929 273.937 63.0768 273.298C62.6608 272.659 62.4204 271.922 62.3799 271.16L54.2399 113.42C54.2203 113.047 54.2807 112.673 54.4169 112.325C54.5532 111.976 54.7622 111.661 55.0301 111.4C55.2979 111.138 55.6184 110.937 55.9702 110.81C56.322 110.682 56.6969 110.631 57.0699 110.66L82.6799 112.55V84.5503H85.6799V112.93C85.6871 113.293 85.6198 113.653 85.4821 113.988C85.3445 114.324 85.1396 114.627 84.8799 114.88C84.6105 115.125 84.2944 115.312 83.9506 115.43C83.6069 115.549 83.2426 115.596 82.8799 115.57L57.2899 113.68L65.3999 271.01C65.4146 271.243 65.4897 271.467 65.6177 271.662C65.7457 271.857 65.9223 272.015 66.1299 272.12L125.88 302.32C126.403 302.584 126.985 302.708 127.57 302.68L170.05 300.61C170.753 300.58 171.439 300.828 171.96 301.3C172.221 301.535 172.433 301.82 172.582 302.137C172.731 302.455 172.816 302.799 172.83 303.15L173.44 317.48L170.42 317.61Z" fill="#FF9F43"/>
<path d="M59.1401 189.49C63.3153 189.49 66.7001 186.105 66.7001 181.93C66.7001 177.755 63.3153 174.37 59.1401 174.37C54.9648 174.37 51.5801 177.755 51.5801 181.93C51.5801 186.105 54.9648 189.49 59.1401 189.49Z" fill="#FF9F43"/>
<path d="M59.1401 187.18C62.0396 187.18 64.3901 184.83 64.3901 181.93C64.3901 179.031 62.0396 176.68 59.1401 176.68C56.2406 176.68 53.8901 179.031 53.8901 181.93C53.8901 184.83 56.2406 187.18 59.1401 187.18Z" fill="#FAFAFA"/>
<path d="M59.14 187.56C58.0261 187.562 56.9366 187.234 56.0094 186.616C55.0823 185.999 54.3591 185.12 53.9314 184.092C53.5038 183.063 53.3909 181.931 53.607 180.838C53.8231 179.745 54.3585 178.741 55.1455 177.953C55.9324 177.164 56.9356 176.627 58.028 176.409C59.1204 176.191 60.2529 176.302 61.2822 176.728C62.3115 177.154 63.1914 177.875 63.8105 178.801C64.4296 179.727 64.76 180.816 64.76 181.93C64.7574 183.421 64.1647 184.85 63.1116 185.905C62.0585 186.96 60.6306 187.555 59.14 187.56V187.56ZM59.14 177.05C58.1744 177.048 57.2299 177.333 56.4261 177.868C55.6223 178.403 54.9952 179.164 54.6243 180.056C54.2535 180.947 54.1554 181.929 54.3426 182.876C54.5297 183.823 54.9937 184.694 55.6758 185.377C56.3579 186.061 57.2274 186.527 58.1743 186.716C59.1212 186.905 60.1029 186.809 60.9952 186.44C61.8875 186.071 62.6502 185.445 63.1869 184.643C63.7235 183.84 64.01 182.896 64.01 181.93C64.0074 180.639 63.4938 179.4 62.5813 178.486C61.6689 177.572 60.4317 177.056 59.14 177.05V177.05Z" fill="#FF9F43"/>
<path d="M103.67 150.22H67.67C66.8293 150.22 66.023 150.554 65.4285 151.149C64.834 151.743 64.5 152.55 64.5 153.39V166.39C64.5 167.231 64.834 168.037 65.4285 168.632C66.023 169.226 66.8293 169.56 67.67 169.56H68.09V172.67L71.7 169.56H103.7C104.541 169.56 105.347 169.226 105.942 168.632C106.536 168.037 106.87 167.231 106.87 166.39V153.39C106.87 152.972 106.787 152.557 106.626 152.17C106.465 151.784 106.228 151.433 105.931 151.138C105.633 150.843 105.28 150.611 104.892 150.453C104.504 150.295 104.089 150.216 103.67 150.22V150.22Z" fill="#FF9F43"/>
<g opacity="0.4">
<path opacity="0.4" d="M103.67 150.22H67.67C66.8293 150.22 66.023 150.554 65.4285 151.149C64.834 151.743 64.5 152.55 64.5 153.39V166.39C64.5 167.231 64.834 168.037 65.4285 168.632C66.023 169.226 66.8293 169.56 67.67 169.56H68.09V172.67L71.7 169.56H103.7C104.541 169.56 105.347 169.226 105.942 168.632C106.536 168.037 106.87 167.231 106.87 166.39V153.39C106.87 152.972 106.787 152.557 106.626 152.17C106.465 151.784 106.228 151.433 105.931 151.138C105.633 150.843 105.28 150.611 104.892 150.453C104.504 150.295 104.089 150.216 103.67 150.22V150.22Z" fill="white"/>
</g>
<path d="M72.6001 159.7C72.5842 159.271 72.697 158.846 72.924 158.48C73.151 158.115 73.4819 157.826 73.8743 157.65C74.2667 157.474 74.7028 157.419 75.1266 157.492C75.5505 157.565 75.9428 157.763 76.2533 158.061C76.5638 158.359 76.7784 158.742 76.8696 159.163C76.9607 159.583 76.9243 160.021 76.765 160.421C76.6057 160.82 76.3307 161.163 75.9753 161.405C75.6199 161.647 75.2002 161.778 74.7701 161.78C74.4891 161.794 74.2083 161.75 73.9449 161.652C73.6814 161.553 73.4408 161.402 73.2377 161.207C73.0346 161.013 72.8733 160.779 72.7637 160.519C72.6541 160.26 72.5984 159.982 72.6001 159.7ZM76.3401 159.7C76.3421 159.387 76.2509 159.08 76.078 158.819C75.9052 158.558 75.6585 158.353 75.3694 158.233C75.0803 158.112 74.7618 158.08 74.4543 158.14C74.1469 158.201 73.8645 158.352 73.6429 158.573C73.4213 158.795 73.2707 159.077 73.21 159.385C73.1494 159.692 73.1815 160.011 73.3023 160.3C73.4231 160.589 73.6272 160.835 73.8886 161.008C74.1499 161.181 74.4568 161.272 74.7701 161.27C74.9782 161.277 75.1854 161.242 75.3791 161.165C75.5727 161.089 75.7486 160.973 75.8958 160.826C76.043 160.679 76.1584 160.503 76.2348 160.309C76.3112 160.116 76.3471 159.908 76.3401 159.7V159.7Z" fill="white"/>
<path d="M80.8799 160.2C80.8913 160.408 80.8591 160.615 80.7855 160.81C80.7119 161.004 80.5984 161.181 80.4525 161.329C80.3065 161.476 80.1313 161.592 79.9379 161.668C79.7446 161.744 79.5375 161.779 79.3299 161.77C79.118 161.781 78.9067 161.739 78.7148 161.648C78.5229 161.558 78.3564 161.421 78.2299 161.25V161.74H77.6899V157.42H78.2499V159.12C78.3793 158.96 78.5443 158.832 78.7318 158.747C78.9193 158.662 79.1242 158.622 79.3299 158.63C79.5375 158.622 79.7446 158.657 79.9379 158.733C80.1313 158.809 80.3065 158.924 80.4525 159.072C80.5984 159.22 80.7119 159.397 80.7855 159.591C80.8591 159.785 80.8913 159.993 80.8799 160.2V160.2ZM80.3199 160.2C80.3044 160.007 80.2328 159.822 80.1139 159.668C79.995 159.515 79.834 159.399 79.6504 159.335C79.4669 159.272 79.2688 159.263 79.0804 159.31C78.892 159.357 78.7214 159.458 78.5894 159.601C78.4574 159.744 78.3698 159.921 78.3373 160.113C78.3047 160.304 78.3287 160.501 78.4062 160.679C78.4836 160.857 78.6113 161.009 78.7736 161.116C78.9359 161.223 79.1257 161.28 79.3199 161.28C79.4616 161.287 79.6029 161.262 79.7346 161.21C79.8662 161.157 79.9852 161.077 80.0835 160.975C80.1819 160.873 80.2574 160.751 80.3051 160.617C80.3527 160.484 80.3714 160.342 80.3599 160.2H80.3199Z" fill="white"/>
<path d="M80.6304 162.71L80.8104 162.28C80.9406 162.384 81.104 162.437 81.2704 162.43C81.5604 162.43 81.7304 162.24 81.7304 161.89V158.66H82.2804V161.88C82.2927 162.015 82.2752 162.15 82.2293 162.277C82.1834 162.404 82.1102 162.519 82.0147 162.615C81.9193 162.71 81.8041 162.783 81.6771 162.829C81.5502 162.875 81.4148 162.892 81.2804 162.88C81.0513 162.892 80.8243 162.833 80.6304 162.71V162.71ZM81.6304 157.71C81.6304 157.662 81.64 157.614 81.6587 157.57C81.6774 157.526 81.7048 157.486 81.7393 157.452C81.7738 157.418 81.8147 157.392 81.8595 157.375C81.9044 157.357 81.9523 157.349 82.0004 157.35C82.0485 157.347 82.0966 157.354 82.142 157.371C82.1873 157.387 82.229 157.412 82.2644 157.445C82.2998 157.477 82.3283 157.517 82.3483 157.561C82.3682 157.605 82.3791 157.652 82.3804 157.7C82.3818 157.75 82.3729 157.8 82.3542 157.846C82.3355 157.892 82.3074 157.934 82.2717 157.969C82.2359 158.003 82.1934 158.03 82.1467 158.048C82.1 158.065 82.0502 158.073 82.0004 158.07C81.951 158.073 81.9016 158.066 81.8554 158.048C81.8092 158.03 81.7672 158.003 81.7323 157.968C81.6973 157.933 81.6702 157.891 81.6526 157.845C81.635 157.799 81.6275 157.75 81.6304 157.7V157.71Z" fill="white"/>
<path d="M86.1203 160.381H83.6203C83.6327 160.514 83.6717 160.644 83.7352 160.762C83.7986 160.88 83.8852 160.984 83.9896 161.068C84.0941 161.152 84.2144 161.214 84.3434 161.25C84.4723 161.287 84.6073 161.297 84.7403 161.281C84.9065 161.286 85.072 161.256 85.2255 161.192C85.3791 161.128 85.5171 161.032 85.6303 160.911L85.9403 161.271C85.7115 161.499 85.4218 161.657 85.1057 161.726C84.7896 161.795 84.4603 161.772 84.1571 161.659C83.8538 161.547 83.5892 161.349 83.3948 161.091C83.2004 160.832 83.0843 160.523 83.0603 160.201C83.052 159.994 83.0863 159.788 83.161 159.595C83.2357 159.402 83.3492 159.226 83.4945 159.079C83.6399 158.932 83.8139 158.816 84.0058 158.739C84.1978 158.662 84.4035 158.625 84.6103 158.631C84.8167 158.624 85.0221 158.662 85.2133 158.74C85.4044 158.818 85.5771 158.935 85.7203 159.084C85.8635 159.233 85.9739 159.41 86.0445 159.604C86.1151 159.798 86.1443 160.005 86.1303 160.211C86.1318 160.267 86.1285 160.324 86.1203 160.381ZM83.6203 159.981H85.6203C85.6203 159.715 85.515 159.461 85.3274 159.273C85.1399 159.086 84.8855 158.981 84.6203 158.981C84.3551 158.981 84.1007 159.086 83.9132 159.273C83.7257 159.461 83.6203 159.715 83.6203 159.981Z" fill="white"/>
<path d="M86.62 160.2C86.6155 159.988 86.655 159.777 86.7361 159.58C86.8172 159.384 86.9382 159.206 87.0913 159.058C87.2444 158.911 87.4264 158.797 87.6258 158.723C87.8252 158.649 88.0377 158.618 88.25 158.63C88.4978 158.614 88.7454 158.666 88.9657 158.781C89.1861 158.895 89.3708 159.068 89.5 159.28L89.08 159.56C88.9884 159.421 88.8637 159.307 88.717 159.229C88.5703 159.15 88.4064 159.11 88.24 159.11C87.9702 159.136 87.7197 159.262 87.5375 159.462C87.3552 159.663 87.2543 159.924 87.2543 160.195C87.2543 160.466 87.3552 160.728 87.5375 160.928C87.7197 161.129 87.9702 161.254 88.24 161.28C88.4055 161.282 88.5688 161.243 88.7154 161.166C88.862 161.089 88.9873 160.977 89.08 160.84L89.5 161.11C89.3713 161.324 89.1869 161.498 88.9667 161.614C88.7464 161.73 88.4986 161.784 88.25 161.77C88.0381 161.781 87.8262 161.749 87.6275 161.674C87.4287 161.6 87.2473 161.486 87.0945 161.339C86.9417 161.192 86.8208 161.015 86.7391 160.819C86.6575 160.623 86.617 160.412 86.62 160.2V160.2Z" fill="white"/>
<path d="M92 161.56C91.8029 161.704 91.5637 161.778 91.32 161.77C91.1836 161.793 91.0439 161.783 90.9122 161.74C90.7806 161.698 90.661 161.625 90.5632 161.527C90.4655 161.429 90.3925 161.31 90.3502 161.178C90.3079 161.047 90.2975 160.907 90.32 160.77V159.07H89.79V158.62H90.32V157.94H90.88V158.62H91.76V159.07H90.88V160.74C90.8692 160.808 90.8738 160.877 90.8935 160.942C90.9132 161.007 90.9474 161.067 90.9937 161.117C91.0399 161.167 91.0969 161.206 91.1604 161.231C91.2238 161.256 91.2921 161.266 91.36 161.26C91.515 161.263 91.6665 161.214 91.79 161.12L92 161.56Z" fill="white"/>
<path d="M92.5703 157.7C92.5716 157.652 92.5825 157.604 92.6023 157.56C92.6221 157.515 92.6504 157.475 92.6857 157.442C92.721 157.408 92.7625 157.382 92.8079 157.365C92.8533 157.347 92.9017 157.339 92.9503 157.34C92.9984 157.338 93.0466 157.345 93.0919 157.361C93.1373 157.377 93.1789 157.402 93.2143 157.435C93.2498 157.468 93.2783 157.507 93.2982 157.551C93.3181 157.595 93.329 157.642 93.3303 157.69C93.3303 157.791 93.2903 157.888 93.219 157.959C93.1477 158.03 93.0511 158.07 92.9503 158.07C92.8495 158.07 92.7529 158.03 92.6816 157.959C92.6103 157.888 92.5703 157.791 92.5703 157.69V157.7ZM92.6703 158.7H93.2303V161.78H92.6703V158.7Z" fill="white"/>
<path d="M97.02 158.66L95.67 161.74H95.1L93.75 158.66H94.34L95.34 161.13L96.42 158.66H97.02Z" fill="white"/>
<path d="M100.23 160.381H97.7302C97.7425 160.514 97.7816 160.644 97.845 160.762C97.9085 160.88 97.995 160.984 98.0995 161.068C98.204 161.152 98.3243 161.214 98.4532 161.25C98.5822 161.287 98.7172 161.297 98.8502 161.281C99.0164 161.286 99.1819 161.256 99.3354 161.192C99.489 161.128 99.627 161.032 99.7402 160.911L100.04 161.271C99.8889 161.439 99.7016 161.572 99.4922 161.658C99.2827 161.745 99.0565 161.783 98.8302 161.771C98.6159 161.786 98.4007 161.756 98.1984 161.684C97.9961 161.612 97.811 161.498 97.6549 161.351C97.4988 161.203 97.3751 161.024 97.2917 160.826C97.2082 160.629 97.1668 160.415 97.1702 160.201C97.1619 159.994 97.1961 159.788 97.2708 159.595C97.3455 159.402 97.4591 159.226 97.6044 159.079C97.7497 158.932 97.9238 158.816 98.1157 158.739C98.3076 158.662 98.5134 158.625 98.7202 158.631C98.9266 158.624 99.132 158.662 99.3231 158.74C99.5143 158.818 99.687 158.935 99.8302 159.084C99.9733 159.233 100.084 159.41 100.154 159.604C100.225 159.798 100.254 160.005 100.24 160.211C100.242 160.267 100.238 160.324 100.23 160.381ZM97.7302 159.981H99.7302C99.7302 159.715 99.6248 159.461 99.4373 159.273C99.2497 159.086 98.9954 158.981 98.7302 158.981C98.465 158.981 98.2106 159.086 98.0231 159.273C97.8355 159.461 97.7302 159.715 97.7302 159.981Z" fill="white"/>
<path d="M91.7801 65.6602C91.7891 64.5056 91.5306 63.3647 91.025 62.3266C90.5195 61.2886 89.7804 60.3817 88.8659 59.677C87.9513 58.9723 86.886 58.4888 85.7534 58.2646C84.6208 58.0403 83.4516 58.0812 82.3375 58.3842C81.2233 58.6872 80.1945 59.244 79.3314 60.011C78.4684 60.7779 77.7946 61.7343 77.3629 62.8052C76.9312 63.876 76.7532 65.0322 76.8429 66.1834C76.9327 67.3345 77.2876 68.4492 77.8801 69.4402V69.4402C78.1701 69.9202 78.5301 70.2702 78.8801 70.7802L83.2301 76.5302C83.3558 76.6978 83.5189 76.8339 83.7064 76.9277C83.8938 77.0214 84.1005 77.0702 84.3101 77.0702C84.5197 77.0702 84.7264 77.0214 84.9138 76.9277C85.1013 76.8339 85.2643 76.6978 85.3901 76.5302L89.6601 70.8702C90.0503 70.4112 90.4143 69.9304 90.7501 69.4302V69.4302C91.4223 68.2874 91.7779 66.9861 91.7801 65.6602V65.6602ZM84.3001 68.8802C83.647 68.8822 83.008 68.6903 82.464 68.3289C81.92 67.9675 81.4955 67.4528 81.2442 66.85C80.9929 66.2472 80.9261 65.5833 81.0523 64.9425C81.1785 64.3017 81.492 63.7128 81.9531 63.2503C82.4142 62.7878 83.0022 62.4725 83.6426 62.3443C84.283 62.2162 84.947 62.281 85.5506 62.5304C86.1542 62.7799 86.6702 63.2029 87.0332 63.7458C87.3963 64.2887 87.5901 64.9271 87.5901 65.5802C87.5901 66.4537 87.2438 67.2915 86.6271 67.9101C86.0104 68.5287 85.1736 68.8775 84.3001 68.8802V68.8802Z" fill="#FF9F43"/>
<path d="M43.3202 360.53H41.9302V360.021H45.2902V360.53H43.8802V364.09H43.3002L43.3202 360.53Z" fill="#263238"/>
<path d="M45.2401 362.55C45.2362 362.233 45.3264 361.922 45.4993 361.657C45.6723 361.391 45.9202 361.183 46.2116 361.059C46.503 360.934 46.8248 360.899 47.1362 360.958C47.4476 361.016 47.7345 361.166 47.9607 361.388C48.1869 361.61 48.342 361.894 48.4065 362.204C48.471 362.515 48.442 362.837 48.323 363.131C48.204 363.425 48.0006 363.676 47.7383 363.854C47.4761 364.032 47.167 364.128 46.8501 364.13C46.6383 364.141 46.4265 364.108 46.2281 364.033C46.0296 363.958 45.849 363.843 45.6976 363.694C45.5462 363.546 45.4274 363.367 45.3486 363.17C45.2699 362.973 45.2329 362.762 45.2401 362.55V362.55ZM47.8801 362.55C47.8801 362.276 47.7711 362.012 47.577 361.818C47.3829 361.624 47.1196 361.515 46.8451 361.515C46.5706 361.515 46.3074 361.624 46.1133 361.818C45.9192 362.012 45.8101 362.276 45.8101 362.55C45.8101 362.825 45.9192 363.088 46.1133 363.282C46.3074 363.476 46.5706 363.585 46.8451 363.585C47.1196 363.585 47.3829 363.476 47.577 363.282C47.7711 363.088 47.8801 362.825 47.8801 362.55Z" fill="#263238"/>
<path d="M50.9503 363.88C50.761 364.033 50.5229 364.111 50.2802 364.1C50.1442 364.121 50.0054 364.109 49.8748 364.066C49.7443 364.022 49.6256 363.949 49.5284 363.852C49.4312 363.755 49.3581 363.636 49.315 363.506C49.2719 363.375 49.26 363.236 49.2802 363.1V361.41H48.7603V360.95H49.2802V360.28H49.8802V360.95H50.7603V361.41H49.8802V363.08C49.8694 363.148 49.874 363.216 49.8937 363.282C49.9134 363.347 49.9477 363.407 49.9939 363.457C50.0401 363.507 50.0971 363.546 50.1606 363.571C50.224 363.596 50.2923 363.606 50.3602 363.6C50.5191 363.598 50.6732 363.546 50.8002 363.45L50.9503 363.88Z" fill="#263238"/>
<path d="M54.0704 362.23V364.09H53.5404V363.69C53.4221 363.839 53.2692 363.957 53.0949 364.034C52.9206 364.111 52.7303 364.144 52.5404 364.13C51.8404 364.13 51.4004 363.76 51.4004 363.22C51.4004 362.68 51.7204 362.32 52.6304 362.32H53.5204V362.21C53.5204 361.74 53.2504 361.46 52.6904 361.46C52.3269 361.449 51.9715 361.569 51.6904 361.8L51.4504 361.38C51.8183 361.104 52.2704 360.962 52.7304 360.98C52.9053 360.95 53.0848 360.961 53.2549 361.011C53.425 361.062 53.581 361.151 53.7108 361.272C53.8406 361.394 53.9406 361.543 54.0029 361.709C54.0653 361.875 54.0884 362.054 54.0704 362.23V362.23ZM53.5104 363.15V362.72H52.6504C52.1004 362.72 51.9404 362.94 51.9404 363.2C51.9404 363.46 52.1904 363.7 52.6204 363.7C52.8078 363.714 52.9949 363.669 53.1547 363.57C53.3146 363.471 53.4391 363.324 53.5104 363.15V363.15Z" fill="#263238"/>
<path d="M55.1001 359.78H55.6601V364.09H55.1001V359.78Z" fill="#263238"/>
<path d="M61.1904 359.78V364.09H60.6604V363.6C60.5338 363.771 60.3675 363.909 60.1759 364.001C59.9842 364.094 59.773 364.138 59.5603 364.13C59.1643 364.099 58.7947 363.919 58.5252 363.627C58.2556 363.335 58.106 362.953 58.106 362.555C58.106 362.158 58.2556 361.775 58.5252 361.483C58.7947 361.191 59.1643 361.012 59.5603 360.98C59.7672 360.972 59.9731 361.012 60.1609 361.099C60.3488 361.186 60.5131 361.317 60.6404 361.48V359.78H61.1904ZM60.6404 362.55C60.6229 362.357 60.5498 362.174 60.4298 362.021C60.3099 361.869 60.1483 361.755 59.9648 361.693C59.7812 361.631 59.5836 361.624 59.3959 361.672C59.2082 361.72 59.0385 361.821 58.9075 361.964C58.7766 362.107 58.6898 362.285 58.658 362.476C58.6262 362.667 58.6505 362.863 58.7282 363.041C58.8058 363.218 58.9333 363.37 59.0953 363.476C59.2572 363.582 59.4466 363.64 59.6404 363.64C59.7796 363.641 59.9174 363.612 60.045 363.557C60.1726 363.501 60.2871 363.419 60.3813 363.316C60.4754 363.214 60.5471 363.093 60.5917 362.961C60.6363 362.829 60.6529 362.689 60.6404 362.55V362.55Z" fill="#263238"/>
<path d="M62.1504 360.061C62.1504 360.011 62.1603 359.962 62.1795 359.917C62.1987 359.871 62.2268 359.83 62.2623 359.795C62.2977 359.761 62.3397 359.734 62.3857 359.716C62.4318 359.698 62.481 359.689 62.5304 359.691C62.5834 359.682 62.6377 359.685 62.6894 359.699C62.7412 359.713 62.7893 359.739 62.8302 359.773C62.8712 359.808 62.9041 359.851 62.9267 359.9C62.9493 359.949 62.961 360.002 62.961 360.056C62.961 360.109 62.9493 360.162 62.9267 360.211C62.9041 360.26 62.8712 360.303 62.8302 360.338C62.7893 360.373 62.7412 360.398 62.6894 360.412C62.6377 360.427 62.5834 360.429 62.5304 360.421C62.4818 360.422 62.4334 360.414 62.388 360.396C62.3426 360.379 62.3011 360.353 62.2658 360.319C62.2305 360.286 62.2021 360.246 62.1823 360.201C62.1625 360.157 62.1517 360.109 62.1504 360.061V360.061ZM62.2504 361.011H62.8104V364.091H62.2504V361.011Z" fill="#263238"/>
<path d="M63.48 363.771L63.72 363.321C64.0404 363.532 64.4162 363.643 64.8 363.641C65.32 363.641 65.53 363.491 65.53 363.231C65.53 362.531 63.53 363.131 63.53 361.911C63.53 361.351 64.03 360.981 64.82 360.981C65.2111 360.977 65.5967 361.073 65.94 361.261L65.7 361.701C65.4328 361.536 65.1236 361.453 64.81 361.461C64.32 361.461 64.09 361.641 64.09 361.881C64.09 362.611 66.09 362.021 66.09 363.211C66.09 363.771 65.58 364.131 64.76 364.131C64.3071 364.14 63.8617 364.015 63.48 363.771V363.771Z" fill="#263238"/>
<path d="M68.5201 363.88C68.3282 364.035 68.0861 364.113 67.8401 364.1C67.7041 364.121 67.5652 364.109 67.4347 364.066C67.3041 364.022 67.1854 363.949 67.0882 363.852C66.991 363.755 66.9179 363.636 66.8748 363.506C66.8317 363.375 66.8198 363.236 66.8401 363.1V361.41H66.3101V360.95H66.8801V360.28H67.4401V360.95H68.3201V361.41H67.4401V363.08C67.4292 363.148 67.4339 363.216 67.4535 363.282C67.4732 363.347 67.5075 363.407 67.5537 363.457C67.5999 363.507 67.6569 363.546 67.7204 363.571C67.7838 363.596 67.8521 363.606 67.9201 363.6C68.0761 363.6 68.2275 363.547 68.3501 363.45L68.5201 363.88Z" fill="#263238"/>
<path d="M71.6402 362.23V364.09H71.1102V363.69C70.9913 363.839 70.8383 363.956 70.6642 364.033C70.4901 364.11 70.3 364.143 70.1102 364.13C69.4202 364.13 68.9702 363.76 68.9702 363.22C68.9702 362.68 69.2902 362.32 70.2102 362.32H71.1002V362.21C71.1002 361.74 70.8202 361.46 70.2702 361.46C69.9074 361.453 69.5535 361.573 69.2702 361.8L69.0402 361.38C69.4081 361.104 69.8602 360.962 70.3202 360.98C70.4936 360.953 70.6709 360.967 70.8383 361.019C71.0058 361.071 71.1592 361.161 71.2866 361.282C71.414 361.402 71.5121 361.551 71.5734 361.715C71.6347 361.879 71.6575 362.056 71.6402 362.23V362.23ZM71.0802 363.15V362.72H70.2202C69.6602 362.72 69.5102 362.94 69.5102 363.2C69.5102 363.46 69.7602 363.7 70.1902 363.7C70.3776 363.714 70.5647 363.669 70.7246 363.57C70.8844 363.471 71.0089 363.324 71.0802 363.15V363.15Z" fill="#263238"/>
<path d="M75.5901 362.32V364.09H75.0401V362.38C75.0401 361.78 74.7301 361.48 74.2001 361.48C74.0658 361.468 73.9303 361.486 73.8034 361.531C73.6765 361.577 73.5612 361.651 73.4658 361.746C73.3703 361.841 73.2971 361.957 73.2512 362.084C73.2053 362.211 73.1879 362.346 73.2001 362.48V364.06H72.6401V360.98H73.1701V361.45C73.303 361.283 73.4741 361.151 73.6691 361.064C73.864 360.977 74.077 360.938 74.2901 360.95C74.4717 360.931 74.6553 360.954 74.8266 361.017C74.9979 361.081 75.1524 361.182 75.2781 361.315C75.4038 361.447 75.4973 361.607 75.5514 361.781C75.6055 361.956 75.6188 362.14 75.5901 362.32V362.32Z" fill="#263238"/>
<path d="M76.3602 362.55C76.3557 362.338 76.3953 362.126 76.4764 361.93C76.5575 361.733 76.6784 361.556 76.8315 361.408C76.9846 361.261 77.1666 361.147 77.3661 361.073C77.5655 360.999 77.778 360.968 77.9902 360.98C78.2402 360.967 78.4892 361.021 78.711 361.137C78.9328 361.253 79.1191 361.427 79.2502 361.64L78.8202 361.91C78.7275 361.773 78.6023 361.661 78.4557 361.584C78.3091 361.507 78.1457 361.468 77.9802 361.47C77.7104 361.496 77.46 361.622 77.2777 361.822C77.0955 362.023 76.9945 362.284 76.9945 362.555C76.9945 362.826 77.0955 363.088 77.2777 363.288C77.46 363.489 77.7104 363.614 77.9802 363.64C78.1457 363.642 78.3091 363.603 78.4557 363.526C78.6023 363.449 78.7275 363.337 78.8202 363.2L79.2502 363.46C79.1196 363.675 78.9337 363.85 78.712 363.968C78.4903 364.086 78.241 364.142 77.9902 364.13C77.7775 364.141 77.5648 364.108 77.3653 364.033C77.1659 363.959 76.984 363.843 76.8311 363.695C76.6781 363.547 76.5574 363.369 76.4764 363.172C76.3953 362.975 76.3558 362.763 76.3602 362.55V362.55Z" fill="#263238"/>
<path d="M82.6901 362.74H80.1901C80.2025 362.874 80.2416 363.003 80.305 363.121C80.3685 363.239 80.455 363.343 80.5595 363.427C80.664 363.511 80.7842 363.573 80.9132 363.61C81.0421 363.647 81.1771 363.657 81.3101 363.64C81.4763 363.646 81.6418 363.616 81.7954 363.552C81.9489 363.488 82.087 363.392 82.2001 363.27L82.5101 363.63C82.3548 363.796 82.1653 363.927 81.9548 364.013C81.7442 364.1 81.5175 364.14 81.2901 364.13C81.075 364.146 80.859 364.116 80.656 364.043C80.4529 363.97 80.2674 363.856 80.1111 363.707C79.9549 363.558 79.8314 363.378 79.7486 363.179C79.6657 362.98 79.6254 362.766 79.6301 362.55C79.6218 362.343 79.6561 362.137 79.7308 361.944C79.8055 361.751 79.919 361.576 80.0644 361.429C80.2097 361.282 80.3837 361.166 80.5757 361.089C80.7676 361.011 80.9733 360.975 81.1801 360.98C81.3874 360.974 81.5937 361.011 81.7856 361.09C81.9775 361.169 82.1507 361.287 82.2941 361.437C82.4374 361.587 82.5476 361.765 82.6175 361.96C82.6875 362.156 82.7156 362.363 82.7001 362.57C82.7016 362.627 82.6983 362.684 82.6901 362.74V362.74ZM80.1901 362.34H82.1901C82.1901 362.075 82.0848 361.821 81.8972 361.633C81.7097 361.446 81.4553 361.34 81.1901 361.34C80.9249 361.34 80.6705 361.446 80.483 361.633C80.2955 361.821 80.1901 362.075 80.1901 362.34Z" fill="#263238"/>
<path d="M46.98 368.66V378.36H44.73V370.46H42.79V368.66H46.98Z" fill="#263238"/>
<path d="M51.2899 377.12C51.2685 377.602 51.1422 378.073 50.9199 378.5L50.1199 380.5H48.7499L49.3599 378.3C49.1281 378.205 48.9315 378.041 48.7972 377.83C48.6629 377.618 48.5974 377.37 48.6099 377.12C48.6099 376.765 48.7511 376.424 49.0024 376.173C49.2537 375.921 49.5945 375.78 49.9499 375.78C50.3053 375.78 50.6461 375.921 50.8974 376.173C51.1487 376.424 51.2899 376.765 51.2899 377.12Z" fill="#263238"/>
<path d="M55.8801 368.66V378.36H53.5801V370.46H51.6401V368.66H55.8801Z" fill="#263238"/>
<path d="M57.52 373.51C57.52 370.31 59.29 368.51 61.68 368.51C64.07 368.51 65.84 370.33 65.84 373.51C65.84 376.69 64.08 378.51 61.68 378.51C59.28 378.51 57.52 376.71 57.52 373.51ZM63.58 373.51C63.58 371.31 62.8 370.39 61.68 370.39C60.56 370.39 59.79 371.31 59.79 373.51C59.79 375.71 60.57 376.63 61.68 376.63C62.79 376.63 63.58 375.72 63.58 373.51Z" fill="#263238"/>
<path d="M66.9302 373.51C66.9302 370.31 68.7102 368.51 71.1002 368.51C73.4902 368.51 75.2602 370.33 75.2602 373.51C75.2602 376.69 73.5002 378.51 71.1002 378.51C68.7002 378.51 66.9302 376.71 66.9302 373.51ZM73.0002 373.51C73.0002 371.31 72.2202 370.39 71.1002 370.39C69.9802 370.39 69.2102 371.31 69.2102 373.51C69.2102 375.71 69.9902 376.63 71.1002 376.63C72.2102 376.63 73.0002 375.72 73.0002 373.51Z" fill="#263238"/>
<path d="M93.3402 374.09V378.36H91.1802V374.43C91.1802 373.22 90.6402 372.66 89.7602 372.66C88.8802 372.66 88.1102 373.29 88.1102 374.66V378.4H85.9502V374.47C85.9502 373.26 85.4402 372.7 84.5402 372.7C83.6402 372.7 82.9002 373.33 82.9002 374.7V378.44H80.7402V370.88H82.8002V371.74C83.0942 371.411 83.4573 371.15 83.8635 370.978C84.2697 370.805 84.7091 370.724 85.1502 370.74C85.6292 370.715 86.1065 370.814 86.5358 371.028C86.9651 371.242 87.3318 371.563 87.6002 371.96C87.9265 371.566 88.3384 371.251 88.8045 371.04C89.2705 370.828 89.7787 370.726 90.2902 370.74C92.0702 370.79 93.3402 371.82 93.3402 374.09Z" fill="#263238"/>
<path d="M36.8246 369.792C37.8825 365.292 35.0922 360.787 30.5923 359.729C26.0923 358.671 21.5868 361.461 20.5288 365.961C19.4709 370.461 22.2612 374.967 26.7611 376.024C31.2611 377.082 35.7666 374.292 36.8246 369.792Z" fill="#FF9F43"/>
<path d="M25.3 369.42C26.0119 369.318 26.731 369.274 27.45 369.29C28.82 369.29 30.78 369.22 33.12 369.2L32.95 369.57C32.28 368.81 31.57 367.97 30.81 367.1L30.68 366.95L30.81 366.78L32.92 364.15L33.12 364.57H32.12H25.25L25.49 364.34C25.49 366.88 25.43 369.02 25.39 370.52C25.4067 371.313 25.3599 372.105 25.25 372.89C25.1465 372.105 25.0997 371.313 25.11 370.52C25.11 369.02 25.04 366.88 25.02 364.34V364.11H25.25H32.12H33.61L33.27 364.53L31.14 367.16V366.84L33.24 369.34L33.56 369.71H33.07C30.73 369.71 28.77 369.65 27.4 369.62C26.6956 369.614 25.993 369.547 25.3 369.42V369.42Z" fill="#FAFAFA"/>
<path d="M164.1 353.61H138.8C137.514 353.61 136.28 354.121 135.371 355.031C134.461 355.94 133.95 357.174 133.95 358.46V378.38C133.953 379.665 134.465 380.896 135.374 381.803C136.284 382.711 137.516 383.22 138.8 383.22H139.44V387.97L144.95 383.22H164.1C165.385 383.22 166.617 382.711 167.526 381.803C168.435 380.896 168.948 379.665 168.95 378.38V358.46C168.95 357.174 168.439 355.94 167.53 355.031C166.62 354.121 165.386 353.61 164.1 353.61V353.61Z" fill="#FF9F43"/>
<path d="M141.21 362.75V372.97C141.21 373.076 141.252 373.178 141.327 373.253C141.402 373.328 141.504 373.37 141.61 373.37H163.03C163.083 373.369 163.134 373.357 163.182 373.336C163.23 373.315 163.274 373.284 163.31 373.246C163.346 373.208 163.375 373.163 163.393 373.114C163.412 373.065 163.421 373.013 163.42 372.96L163.37 369.22C163.371 369.138 163.347 369.058 163.3 368.99L160.22 364.88C160.185 364.831 160.138 364.791 160.084 364.763C160.03 364.735 159.971 364.72 159.91 364.72H156.37C156.266 364.72 156.165 364.68 156.091 364.607C156.016 364.534 155.973 364.435 155.97 364.33V362.78C155.971 362.728 155.962 362.677 155.943 362.628C155.924 362.58 155.896 362.535 155.859 362.498C155.823 362.461 155.78 362.431 155.732 362.411C155.684 362.391 155.632 362.38 155.58 362.38H141.58C141.484 362.387 141.394 362.429 141.326 362.496C141.258 362.564 141.217 362.655 141.21 362.75V362.75Z" fill="#FAFAFA"/>
<path d="M156.97 365.59V368.88C156.97 368.941 156.994 369 157.037 369.043C157.081 369.086 157.139 369.11 157.2 369.11L161.93 369.03C161.971 369.029 162.011 369.016 162.045 368.994C162.08 368.971 162.108 368.94 162.126 368.903C162.144 368.867 162.153 368.826 162.15 368.785C162.147 368.744 162.133 368.704 162.11 368.67L159.88 365.39C159.86 365.358 159.832 365.332 159.799 365.314C159.765 365.297 159.728 365.288 159.69 365.29L157.17 365.36C157.113 365.365 157.061 365.392 157.024 365.435C156.986 365.478 156.967 365.534 156.97 365.59V365.59Z" fill="#FF9F43"/>
<path d="M163.85 373.68H140.78V374.39H163.85V373.68Z" fill="#FAFAFA"/>
<path d="M148.41 373.95C148.412 374.404 148.279 374.848 148.028 375.226C147.777 375.605 147.42 375.9 147.001 376.074C146.582 376.249 146.121 376.295 145.676 376.207C145.231 376.119 144.822 375.901 144.501 375.58C144.18 375.259 143.962 374.85 143.874 374.405C143.786 373.96 143.832 373.498 144.006 373.079C144.181 372.661 144.476 372.303 144.854 372.052C145.232 371.801 145.676 371.668 146.13 371.67C146.735 371.67 147.315 371.911 147.742 372.338C148.17 372.766 148.41 373.346 148.41 373.95Z" fill="#FF9F43"/>
<path d="M147.47 373.95C147.472 374.218 147.394 374.481 147.247 374.704C147.099 374.928 146.888 375.102 146.641 375.206C146.394 375.309 146.122 375.337 145.859 375.285C145.596 375.233 145.355 375.104 145.165 374.915C144.976 374.726 144.847 374.484 144.795 374.221C144.744 373.958 144.771 373.686 144.875 373.439C144.978 373.192 145.153 372.981 145.376 372.834C145.6 372.686 145.862 372.608 146.13 372.61C146.485 372.61 146.826 372.752 147.077 373.003C147.329 373.254 147.47 373.595 147.47 373.95Z" fill="#FAFAFA"/>
<path d="M155.96 373.371C155.9 373.371 155.85 370.901 155.85 367.861C155.85 364.821 155.85 362.351 155.96 362.351C156.07 362.351 156.06 364.821 156.06 367.861C156.06 370.901 156.01 373.371 155.96 373.371Z" fill="#FF9F43"/>
<path d="M160.88 373.95C160.88 374.401 160.747 374.842 160.496 375.217C160.246 375.592 159.889 375.884 159.473 376.057C159.056 376.229 158.598 376.275 158.156 376.187C157.713 376.099 157.307 375.881 156.988 375.563C156.669 375.244 156.452 374.837 156.364 374.395C156.276 373.953 156.321 373.494 156.494 373.078C156.666 372.661 156.959 372.305 157.334 372.055C157.709 371.804 158.149 371.67 158.6 371.67C159.205 371.67 159.785 371.911 160.213 372.338C160.64 372.766 160.88 373.346 160.88 373.95Z" fill="#FF9F43"/>
<path d="M159.88 373.95C159.882 374.218 159.805 374.48 159.658 374.703C159.51 374.926 159.3 375.101 159.054 375.205C158.807 375.308 158.535 375.337 158.273 375.286C158.01 375.235 157.769 375.107 157.579 374.918C157.389 374.73 157.26 374.49 157.207 374.227C157.154 373.965 157.18 373.693 157.282 373.446C157.384 373.199 157.557 372.987 157.779 372.839C158.001 372.69 158.263 372.61 158.53 372.61C158.886 372.61 159.228 372.751 159.481 373.002C159.734 373.253 159.878 373.594 159.88 373.95V373.95Z" fill="#FAFAFA"/>
<path d="M158.57 369.74C158.57 369.8 158.24 369.84 157.84 369.84C157.44 369.84 157.11 369.84 157.11 369.74C157.11 369.64 157.44 369.63 157.84 369.63C158.24 369.63 158.57 369.68 158.57 369.74Z" fill="#FF9F43"/>
</svg>
