<svg width="395" height="395" viewBox="0 0 395 395" fill="none" xmlns="http://www.w3.org/2000/svg">
<path d="M314.033 366.315C293.374 358.131 283.894 336.098 279.699 315.273C278.996 311.797 277.756 308.25 278.68 304.837C279.605 301.424 282.938 298.446 286.367 299.165C289.219 299.765 291.044 302.475 293.058 304.6C295.752 307.433 299.192 309.446 302.981 310.407C305.445 311.031 308.329 311.078 310.209 309.372C312.8 307.002 312.176 302.831 311.339 299.402L306.67 280.252C305.833 276.832 304.995 273.332 305.287 269.817C305.58 266.301 307.223 262.707 310.272 261.04C313.322 259.373 317.793 260.25 319.278 263.473C319.902 264.8 319.958 266.317 320.392 267.715C320.827 269.113 321.862 270.535 323.307 270.614C324.753 270.693 325.914 269.39 326.704 268.142C329.422 263.844 330.765 258.812 331.958 253.843C333.151 248.874 334.257 243.81 336.571 239.275C338.886 234.741 342.623 230.688 347.466 229.242C352.308 227.796 358.265 229.59 360.651 234.116C363.036 238.643 361.385 244.236 359.244 248.874C356.065 255.755 351.909 262.141 346.905 267.834C346.012 268.853 345.032 269.959 344.922 271.333C344.716 273.79 347.426 275.552 349.859 275.765C352.616 276.01 355.334 275.086 358.083 274.77C360.832 274.454 364.008 274.944 365.62 277.227C367.855 280.387 365.794 284.771 363.479 287.86C358.843 294.051 353.175 299.396 346.723 303.66C344.424 305.177 341.983 306.623 340.34 308.874C338.697 311.126 338.23 314.507 340.032 316.632C341.833 318.757 345.175 318.781 347.703 317.667C350.231 316.553 352.253 314.554 354.552 313.006C358.842 310.107 365.004 308.985 368.993 312.342C371.608 314.554 372.674 318.236 372.422 321.672C372.169 325.109 370.794 328.332 369.262 331.381C363.779 342.07 355.8 351.55 345.767 357.87C335.734 364.19 325.843 367.682 314.033 366.291" fill="#F5F5F5"/>
<path d="M316.292 352.095C317.053 340.027 318.506 328.012 320.645 316.11C321.172 312.95 321.714 309.825 322.272 306.733C322.81 303.66 323.347 300.611 324.058 297.656C325.426 291.992 327.109 286.409 329.098 280.932C330.954 275.694 332.914 270.788 334.778 266.214C336.642 261.64 338.475 257.413 340.308 253.629C343.162 247.643 346.491 241.894 350.262 236.439C351.589 234.511 352.672 233.042 353.422 232.062C353.785 231.599 354.07 231.227 354.275 230.948C354.366 230.815 354.472 230.693 354.591 230.585C354.516 230.729 354.429 230.866 354.331 230.996L353.541 232.141C352.83 233.152 351.779 234.638 350.483 236.581C346.811 242.083 343.553 247.85 340.735 253.835C338.941 257.619 337.14 261.845 335.292 266.419C333.443 270.993 331.515 275.899 329.675 281.145C327.71 286.612 326.046 292.182 324.69 297.83C323.987 300.769 323.457 303.794 322.92 306.875C322.383 309.956 321.846 313.085 321.301 316.245C319.163 328.121 317.697 340.109 316.908 352.15" fill="#B0B0B0"/>
<path d="M324.231 297.593C323.95 297.157 323.72 296.691 323.544 296.202C323.141 295.302 322.596 293.975 321.964 292.324C320.669 289.021 319.033 284.424 317.224 279.304C315.415 274.185 313.748 269.619 312.413 266.348C311.742 264.713 311.189 263.394 310.794 262.485C310.558 262.026 310.378 261.541 310.256 261.04C310.568 261.454 310.832 261.902 311.046 262.375C311.512 263.252 312.129 264.547 312.855 266.167C314.309 269.406 316.079 273.98 317.864 279.083C319.649 284.187 321.182 288.682 322.391 292.158L323.789 296.108C323.988 296.586 324.136 297.084 324.231 297.593Z" fill="#B0B0B0"/>
<path d="M366.378 278.87C365.828 279.136 365.254 279.348 364.664 279.502C363.558 279.866 361.954 280.395 359.987 281.082C356.037 282.473 350.689 284.59 344.866 287.189C339.044 289.788 333.877 292.371 330.196 294.346C328.347 295.326 326.87 296.155 325.851 296.716C325.337 297.043 324.795 297.323 324.231 297.554C324.692 297.157 325.189 296.805 325.717 296.503C326.704 295.863 328.15 294.97 329.975 293.943C333.609 291.858 338.76 289.203 344.598 286.588C349.574 284.345 354.663 282.359 359.845 280.64C361.828 279.984 363.463 279.526 364.585 279.234C365.169 279.053 365.769 278.931 366.378 278.87Z" fill="#B0B0B0"/>
<path d="M316.64 351.155C316.48 351.017 316.337 350.86 316.213 350.689L315.084 349.275C314.104 348.034 312.714 346.21 311.07 343.942C307.744 339.392 303.352 332.961 298.596 325.812C293.84 318.662 289.503 312.192 286.28 307.579L282.441 302.128C282.022 301.535 281.651 301.045 281.406 300.642C281.161 300.239 281.058 300.113 281.082 300.097C281.106 300.081 281.24 300.239 281.509 300.563L282.638 301.977C283.618 303.21 285.008 305.035 286.651 307.31C289.977 311.86 294.37 318.283 299.133 325.44C303.897 332.598 308.218 339.06 311.442 343.666L315.281 349.117L316.316 350.61C316.545 350.95 316.664 351.139 316.64 351.155Z" fill="#B0B0B0"/>
<path d="M370.771 318.37C370.612 318.519 370.434 318.647 370.241 318.749L368.661 319.721L362.871 323.244C357.973 326.223 351.266 330.41 343.863 335.047C336.461 339.684 329.699 343.816 324.745 346.692C322.273 348.129 320.25 349.267 318.844 350.033L317.217 350.902C317.032 351.015 316.832 351.103 316.624 351.163C316.783 351.014 316.961 350.886 317.153 350.784L318.733 349.812L324.524 346.289C329.422 343.31 336.129 339.123 343.539 334.486C350.95 329.849 357.696 325.725 362.649 322.849C365.122 321.412 367.137 320.266 368.551 319.5L370.178 318.639C370.362 318.522 370.561 318.431 370.771 318.37Z" fill="#B0B0B0"/>
<path d="M48.2711 125.722L37.7183 180.062L118.34 195.719L128.893 141.379L48.2711 125.722Z" fill="#EDEDED"/>
<path d="M129.023 142.081C128.746 142.304 128.447 142.497 128.13 142.658L125.507 144.191L115.767 149.721L83.4319 167.717L83.1712 167.859L82.9737 167.63L82.4918 167.069L58.2704 138.424L50.9945 129.694L49.0432 127.324C48.8003 127.057 48.5858 126.766 48.4033 126.455C48.6749 126.697 48.926 126.961 49.1538 127.245L51.2157 129.552L58.6733 138.131L83.0606 166.619L83.5425 167.18L83.0764 167.093L115.514 149.294L125.365 143.985L128.059 142.579C128.364 142.383 128.687 142.216 129.023 142.081Z" fill="#B0B0B0"/>
<path d="M37.8485 180.768C37.7142 180.602 45.2271 174.337 54.6202 166.761C64.0133 159.185 71.7315 153.173 71.8579 153.331C71.9843 153.489 64.4794 159.762 55.0863 167.338C45.6932 174.914 37.9749 180.91 37.8485 180.768Z" fill="#B0B0B0"/>
<path d="M98.7893 157.858C98.971 157.763 103.529 166.327 108.957 176.968C114.384 187.609 118.65 196.331 118.437 196.426C118.223 196.52 113.697 187.965 108.261 177.308C102.826 166.65 98.6076 157.953 98.7893 157.858Z" fill="#B0B0B0"/>
<path d="M161.389 114.826L110.426 120.159L106.231 84.751L157.194 79.4106L161.389 114.826Z" fill="#F5F5F5"/>
<path d="M157.407 79.79C157.288 79.9789 157.147 80.1538 156.989 80.3114L155.725 81.7413L150.985 86.9474L135.224 104.027L135.098 104.169L134.932 104.059L134.537 103.806C126.779 98.6868 119.748 94.0653 114.613 90.6841L108.601 86.6551L107.021 85.5412C106.826 85.4224 106.644 85.2848 106.476 85.1304C106.683 85.2223 106.882 85.3334 107.069 85.4622L108.735 86.505C110.221 87.4451 112.29 88.7723 114.826 90.3997L134.821 103.403L135.216 103.656H134.924C141.118 97.0357 146.703 91.0159 150.787 86.6788L155.622 81.5833C156.175 81.0145 156.617 80.5563 156.957 80.2166C157.096 80.063 157.246 79.9203 157.407 79.79Z" fill="#B0B0B0"/>
<path d="M110.639 120.57C110.529 120.499 113.799 115.237 117.915 108.83C122.031 102.424 125.468 97.2886 125.578 97.3676C125.689 97.4466 122.418 102.692 118.302 109.107C114.187 115.522 110.742 120.641 110.639 120.57Z" fill="#B0B0B0"/>
<path d="M142.468 95.1477C142.563 95.0608 146.916 99.4769 152.201 105.023C157.486 110.569 161.681 115.143 161.602 115.23C161.523 115.316 157.154 110.9 151.869 105.355C146.584 99.8087 142.374 95.2425 142.468 95.1477Z" fill="#B0B0B0"/>
<path d="M90.7709 71.9058L62.6074 52.4007L75.911 32.627L104.075 52.1242L90.7709 71.9058Z" fill="#F5F5F5"/>
<path d="M104.003 52.4244C103.86 52.4696 103.711 52.4988 103.561 52.5113L102.297 52.6851L97.6359 53.2618L82.1993 55.0472H82.0729V54.9287C82.0729 54.826 82.0176 54.7233 81.986 54.6206L77.562 39.3025C77.0248 37.3591 76.5824 35.7791 76.2743 34.6415L75.9346 33.3775C75.8871 33.2313 75.8553 33.0803 75.8398 32.9272C75.905 33.0645 75.9578 33.2073 75.9978 33.3538C76.0926 33.6698 76.2269 34.0885 76.3849 34.6099C76.7246 35.7317 77.1749 37.3038 77.7753 39.2314C78.9287 43.1814 80.5087 48.5771 82.2467 54.5416L82.3336 54.8418L82.1756 54.7312L97.6122 53.0327L102.289 52.5587L103.561 52.4481C103.708 52.4297 103.855 52.4218 104.003 52.4244Z" fill="#B0B0B0"/>
<path d="M62.5361 52.7008C62.5361 52.6218 66.4861 51.3736 71.3367 49.9279C76.1873 48.4822 80.2005 47.3683 80.2242 47.4473C80.2479 47.5263 76.2742 48.7824 71.4157 50.2281C66.5572 51.6738 62.5598 52.7877 62.5361 52.7008Z" fill="#B0B0B0"/>
<path d="M89.7516 53.7197C89.8385 53.7197 90.115 57.8514 90.3836 62.9627C90.6522 68.074 90.7865 72.2294 90.6996 72.2373C90.6127 72.2452 90.3283 68.1056 90.0676 62.9943C89.8069 57.883 89.6647 53.7197 89.7516 53.7197Z" fill="#B0B0B0"/>
<path d="M317.153 97.8572C317.164 93.0258 316.061 88.2568 313.928 83.9216C311.796 79.5863 308.691 75.8015 304.857 72.8619C301.023 69.9222 296.562 67.907 291.822 66.9729C287.082 66.0388 282.19 66.211 277.527 67.4763C272.864 68.7416 268.556 71.0657 264.938 74.2678C261.32 77.4699 258.49 81.4636 256.668 85.9382C254.845 90.4128 254.08 95.2475 254.431 100.066C254.783 104.885 256.241 109.557 258.693 113.72L258.78 113.839C259.981 115.869 261.49 117.323 263.014 119.456L281.24 143.606C281.769 144.305 282.454 144.872 283.239 145.262C284.024 145.652 284.889 145.855 285.766 145.855C286.643 145.855 287.508 145.652 288.294 145.262C289.079 144.872 289.763 144.305 290.293 143.606L308.226 119.851C309.857 117.922 311.378 115.905 312.784 113.807L312.84 113.76C315.674 108.94 317.164 103.448 317.153 97.8572ZM285.751 111.532C283.016 111.532 280.343 110.721 278.07 109.202C275.796 107.683 274.024 105.524 272.978 102.998C271.932 100.471 271.658 97.6917 272.191 95.01C272.725 92.3282 274.041 89.8648 275.975 87.9313C277.908 85.9979 280.372 84.6812 283.053 84.1477C285.735 83.6143 288.515 83.8881 291.041 84.9344C293.567 85.9808 295.727 87.7528 297.246 90.0263C298.765 92.2998 299.576 94.9727 299.576 97.7071C299.576 101.374 298.119 104.89 295.526 107.483C292.934 110.076 289.417 111.532 285.751 111.532Z" fill="#F5F5F5"/>
<path d="M341.169 151.751C341.186 149.139 340.599 146.558 339.453 144.21C338.307 141.862 336.634 139.812 334.564 138.218C332.494 136.625 330.083 135.532 327.52 135.024C324.957 134.517 322.312 134.61 319.791 135.295C317.27 135.98 314.942 137.239 312.988 138.973C311.034 140.707 309.508 142.87 308.529 145.292C307.55 147.714 307.144 150.329 307.344 152.934C307.544 155.539 308.343 158.062 309.68 160.307L309.727 160.37C310.375 161.46 311.189 162.25 312.01 163.396L321.846 176.423C322.13 176.801 322.498 177.107 322.921 177.318C323.344 177.529 323.81 177.639 324.283 177.639C324.756 177.639 325.222 177.529 325.645 177.318C326.068 177.107 326.436 176.801 326.72 176.423L336.39 163.609C337.272 162.571 338.095 161.485 338.855 160.354V160.307C340.378 157.713 341.177 154.759 341.169 151.751ZM324.232 159.122C322.759 159.12 321.319 158.682 320.095 157.862C318.871 157.043 317.917 155.879 317.355 154.517C316.792 153.156 316.646 151.658 316.934 150.214C317.222 148.769 317.932 147.443 318.975 146.402C320.017 145.36 321.344 144.652 322.789 144.365C324.234 144.078 325.731 144.226 327.092 144.79C328.453 145.354 329.616 146.309 330.434 147.534C331.253 148.759 331.689 150.199 331.689 151.672C331.689 152.651 331.496 153.62 331.121 154.525C330.747 155.429 330.197 156.251 329.505 156.943C328.812 157.634 327.99 158.183 327.085 158.557C326.18 158.931 325.211 159.123 324.232 159.122Z" fill="#EDEDED"/>
<path d="M372.382 366.378C372.382 366.497 294.077 366.584 197.508 366.584C100.938 366.584 22.6177 366.497 22.6177 366.378C22.6177 366.26 100.907 366.173 197.508 366.173C294.109 366.173 372.382 366.268 372.382 366.378Z" fill="#263238"/>
<path d="M149.587 93.9625L154.785 167.59C155.197 173.385 157.789 178.807 162.041 182.765C166.292 186.724 171.886 188.923 177.695 188.92C180.839 188.921 183.95 188.276 186.834 187.024C189.719 185.773 192.316 183.943 194.464 181.647C196.612 179.35 198.265 176.638 199.322 173.676C200.378 170.715 200.815 167.568 200.605 164.43C200.147 157.423 199.728 151.688 199.728 151.688C199.728 151.688 217.558 148.915 217.779 131.092C217.906 120.822 216.128 97.4385 214.619 79.545C214.121 73.7101 211.45 68.275 207.136 64.3149C202.822 60.3548 197.178 58.1582 191.322 58.1597H180.523C176.118 58.4166 171.81 59.5545 167.853 61.5062C163.897 63.4578 160.372 66.1835 157.487 69.5219C154.602 72.8602 152.417 76.7434 151.06 80.9415C149.703 85.1396 149.202 89.5673 149.587 93.9625Z" fill="#B78876"/>
<path d="M199.744 151.467C199.744 151.467 188.478 152.383 176.51 144.862C176.51 144.862 182 157.692 199.783 156.088L199.744 151.467Z" fill="#AA6550"/>
<path d="M209.05 101.12C209.056 101.784 208.803 102.424 208.344 102.904C207.885 103.384 207.256 103.665 206.593 103.688C206.269 103.713 205.944 103.674 205.636 103.572C205.328 103.47 205.043 103.308 204.799 103.095C204.554 102.881 204.355 102.621 204.213 102.329C204.07 102.038 203.988 101.721 203.97 101.397C203.963 100.733 204.215 100.093 204.672 99.6124C205.129 99.1316 205.756 98.8478 206.419 98.8211C206.743 98.7954 207.07 98.8348 207.379 98.937C207.688 99.0392 207.973 99.2022 208.218 99.4164C208.464 99.6306 208.663 99.8917 208.806 100.184C208.949 100.477 209.032 100.795 209.05 101.12Z" fill="#263238"/>
<path d="M211.514 97.4542C211.198 97.786 209.271 96.364 206.537 96.3719C203.804 96.3798 201.797 97.7464 201.489 97.4146C201.347 97.2645 201.671 96.6247 202.54 96.0243C203.726 95.2046 205.136 94.7714 206.577 94.784C207.996 94.7782 209.381 95.2266 210.527 96.0638C211.388 96.7116 211.672 97.312 211.514 97.4542Z" fill="#263238"/>
<path d="M182.324 101.12C182.331 101.784 182.077 102.424 181.618 102.904C181.159 103.384 180.531 103.665 179.867 103.687C179.544 103.713 179.218 103.674 178.91 103.572C178.602 103.47 178.317 103.308 178.073 103.094C177.829 102.881 177.629 102.621 177.487 102.329C177.345 102.038 177.262 101.72 177.244 101.396C177.238 100.732 177.491 100.091 177.95 99.6096C178.408 99.1286 179.037 98.8457 179.701 98.821C180.025 98.7963 180.351 98.8366 180.659 98.9393C180.967 99.042 181.251 99.2052 181.496 99.4193C181.74 99.6334 181.939 99.8941 182.081 100.186C182.223 100.478 182.306 100.796 182.324 101.12Z" fill="#263238"/>
<path d="M184.599 97.9599C184.283 98.2917 182.348 96.8618 179.615 96.8697C176.881 96.8776 174.875 98.2522 174.566 97.9125C174.424 97.7624 174.74 97.1699 175.617 96.53C176.805 95.7144 178.213 95.2791 179.654 95.2818C181.072 95.2868 182.453 95.7342 183.604 96.5616C184.465 97.2173 184.75 97.8177 184.599 97.9599Z" fill="#263238"/>
<path d="M194.538 118.279C194.538 118.121 196.228 117.828 198.985 117.489C199.681 117.41 200.344 117.275 200.463 116.793C200.523 116.072 200.361 115.349 199.997 114.724C199.344 113.033 198.654 111.258 197.927 109.399C195.059 101.815 192.974 95.5818 193.282 95.4712C193.59 95.3606 196.165 101.412 199.041 108.988C199.731 110.863 200.392 112.651 201.024 114.352C201.284 115.142 201.743 116.043 201.379 117.094C201.28 117.34 201.125 117.561 200.926 117.738C200.727 117.914 200.49 118.043 200.234 118.113C199.848 118.222 199.449 118.278 199.049 118.279C196.268 118.421 194.546 118.437 194.538 118.279Z" fill="#263238"/>
<path d="M186.479 120.175C186.922 120.175 186.93 123.121 189.473 125.231C192.017 127.34 195.177 127.016 195.201 127.427C195.248 127.616 194.498 128.003 193.163 128.043C191.421 128.067 189.726 127.477 188.375 126.376C187.079 125.318 186.246 123.796 186.053 122.134C185.942 120.87 186.274 120.159 186.479 120.175Z" fill="#263238"/>
<path d="M185.302 87.2317C185.034 88.0217 182.3 87.6267 179.085 88.0217C175.87 88.4167 173.271 89.2857 172.844 88.6142C172.654 88.2982 173.105 87.5951 174.155 86.8762C175.552 85.9935 177.132 85.4402 178.774 85.2582C180.417 85.0762 182.079 85.2702 183.635 85.8255C184.86 86.2995 185.421 86.8999 185.302 87.2317Z" fill="#263238"/>
<path d="M210.511 89.5307C210.029 90.1548 208.141 89.5307 205.874 89.4754C203.607 89.4201 201.687 89.8941 201.244 89.2463C201.047 88.9304 201.347 88.3063 202.192 87.7138C203.32 87.0076 204.632 86.6531 205.961 86.6953C207.291 86.7375 208.578 87.1745 209.658 87.9508C210.456 88.5828 210.724 89.27 210.511 89.5307Z" fill="#263238"/>
<path d="M155.63 107.337C155.322 107.203 143.385 103.719 143.78 115.901C144.175 128.083 156.317 125.184 156.333 124.828C156.349 124.473 155.63 107.337 155.63 107.337Z" fill="#B78876"/>
<path d="M152.423 120.333C152.367 120.333 152.217 120.491 151.862 120.664C151.365 120.894 150.8 120.925 150.282 120.751C148.978 120.317 147.833 118.31 147.698 116.114C147.638 115.071 147.808 114.027 148.196 113.057C148.302 112.669 148.502 112.312 148.777 112.019C149.052 111.726 149.395 111.504 149.776 111.374C150.018 111.302 150.278 111.317 150.511 111.417C150.743 111.516 150.933 111.694 151.048 111.919C151.222 112.251 151.151 112.496 151.214 112.519C151.277 112.543 151.475 112.306 151.356 111.801C151.278 111.502 151.099 111.24 150.851 111.058C150.681 110.936 150.489 110.849 150.286 110.801C150.082 110.754 149.872 110.747 149.666 110.781C149.169 110.897 148.71 111.138 148.333 111.481C147.955 111.824 147.672 112.258 147.509 112.741C147.028 113.814 146.814 114.988 146.885 116.161C147.043 118.618 148.37 120.901 150.147 121.328C150.478 121.413 150.824 121.422 151.159 121.355C151.494 121.288 151.81 121.147 152.083 120.941C152.407 120.633 152.47 120.356 152.423 120.333Z" fill="#AA6550"/>
<path d="M148.82 106.927C150.677 106.476 153.892 108.191 154.682 109.929C155.472 111.667 155.646 113.642 156.436 115.387C157.226 117.133 159.011 118.698 160.876 118.255C161.505 118.058 162.072 117.698 162.517 117.211C162.963 116.724 163.271 116.127 163.411 115.482C163.68 114.181 163.694 112.839 163.451 111.532C162.732 105.844 161.539 100.204 161.31 94.4683C161.081 88.7329 161.895 82.7842 164.905 77.8783C167.914 72.9724 173.437 69.4016 179.125 69.8677C182.909 70.1679 186.385 72.1429 190.145 72.6722C192.386 72.9685 194.664 72.7504 196.808 72.0345C198.951 71.3186 200.904 70.1237 202.516 68.5405C202.927 68.1376 204.823 66.8815 204.823 66.8815C204.823 66.5892 204.547 64.0454 203.543 63.1132C196.078 56.2165 182.632 54.2889 172.773 56.7932C162.914 59.2975 153.671 66.2732 149.428 75.4688C145.186 84.6644 146.45 97.5888 148.789 106.911" fill="#263238"/>
<path d="M214.785 76.8354C214.785 76.8354 168.033 61.8254 147.809 102.242C147.809 102.242 144.783 92.1219 144.783 86.6946C144.783 83.0685 146.948 61.4857 169.163 54.6917C169.163 54.6917 202.619 41.9253 214.785 76.8354Z" fill="#FF9F43"/>
<path d="M174.59 77.8465C175.421 79.1857 176.551 80.3137 177.892 81.1416C179.233 81.9694 180.748 82.4745 182.317 82.617C183.887 82.7594 185.468 82.5354 186.936 81.9626C188.404 81.3897 189.719 80.4837 190.777 79.3159C191.242 80.4782 192.059 81.4659 193.114 82.1405C194.168 82.815 195.408 83.1426 196.658 83.0773C197.908 83.0119 199.106 82.5569 200.085 81.7761C201.063 80.9953 201.773 79.9279 202.114 78.7234C203.381 80.1361 204.932 81.2665 206.664 82.0414C208.442 82.6971 210.693 82.4443 211.855 80.9591C213.016 79.4739 212.7 77.1276 211.531 75.595C210.254 74.1459 208.619 73.0564 206.791 72.435C201.248 69.9976 195.158 69.0761 189.142 69.7648C183.178 70.5548 177.403 73.462 173.674 78.1862" fill="#263238"/>
<g opacity="0.4">
<path opacity="0.4" d="M214.785 76.8354C210.896 72.7367 205.563 70.314 199.917 70.0809C186.124 69.4726 160.314 77.2304 147.777 102.242C147.777 102.242 144.751 92.1219 144.751 86.6946C144.751 83.0685 146.916 61.4857 169.131 54.6917C169.162 54.6917 202.619 41.9253 214.785 76.8354Z" fill="black"/>
</g>
<path d="M149.76 97.5095C156.689 86.8998 166.248 78.1308 176.999 71.4395C187.751 64.7482 205.518 58.0885 217.763 54.8495C221.445 53.8699 225.276 53.0167 229.029 53.6645C232.781 54.3123 236.447 56.8246 237.371 60.498C238.54 65.1195 230.34 72.2453 226.493 75.0419C222.646 77.8385 214.785 81.9544 214.785 81.9544C214.785 81.9544 214.896 73.3908 201.181 71.6291C182.537 69.188 149.76 97.5095 149.76 97.5095Z" fill="#FF9F43"/>
<path d="M188.107 62.5679C188.107 62.5679 194.838 58.8391 201.608 57.9701C200.477 57.0914 199.244 56.3538 197.934 55.7739C194.26 56.3813 190.707 57.5764 187.412 59.3131L188.107 62.5679Z" fill="#B0B0B0"/>
<path d="M226.051 167.053L211.223 163.783L205.187 162.274L200.163 154.484C200.163 154.484 197.793 168.412 188.794 175.909C187.576 176.906 186.148 177.614 184.617 177.981C183.086 178.347 181.492 178.363 179.954 178.026C177.924 177.6 175.538 177.078 173.769 176.604C173.389 176.502 172.979 176.367 172.536 176.209C166.031 173.794 160.611 169.12 157.266 163.04C155.275 159.501 153.592 155.867 154.169 154.484L147.13 169.06L105.655 188.162L82.105 245.69L127.743 259.183L129.165 306.583L120.57 366.339L249.68 366.426L245.098 233.476" fill="#FF9F43"/>
<path d="M192.673 218.522C192.41 218.543 192.146 218.543 191.883 218.522L189.584 218.466L181.376 218.174H181.218V218.04C181.084 214.477 180.918 210.258 180.736 205.747C180.523 199.246 180.333 193.368 180.183 189.047C180.136 186.945 180.096 185.231 180.065 183.983C180.065 183.422 180.065 182.964 180.065 182.608C180.044 182.448 180.044 182.286 180.065 182.126C180.101 182.282 180.12 182.441 180.12 182.6C180.12 182.964 180.175 183.39 180.207 183.975C180.27 185.223 180.357 186.938 180.46 189.031C180.633 193.352 180.87 199.23 181.131 205.724C181.289 210.243 181.431 214.461 181.558 218.024L181.384 217.858L189.592 218.293L191.883 218.443C192.149 218.44 192.413 218.467 192.673 218.522Z" fill="#263238"/>
<path d="M185.65 199.317C185.831 199.19 186.045 199.119 186.266 199.112C186.779 199.078 187.291 199.194 187.74 199.445C188.188 199.696 188.554 200.071 188.794 200.526C189.02 200.969 189.1 201.472 189.024 201.964C188.939 202.521 188.695 203.041 188.321 203.462C187.946 203.882 187.458 204.185 186.914 204.334C186.364 204.449 185.793 204.41 185.263 204.222C184.734 204.034 184.266 203.704 183.912 203.267C183.625 202.915 183.424 202.502 183.326 202.059C183.227 201.616 183.233 201.156 183.343 200.715C183.466 200.116 183.763 199.567 184.197 199.135C184.497 198.843 184.718 198.748 184.726 198.772C184.734 198.796 184.568 198.938 184.315 199.246C183.965 199.679 183.729 200.192 183.628 200.739C183.548 201.133 183.557 201.54 183.655 201.93C183.754 202.32 183.939 202.682 184.197 202.991C184.512 203.363 184.922 203.645 185.383 203.806C185.844 203.967 186.34 204.002 186.819 203.907C187.286 203.776 187.705 203.514 188.028 203.153C188.351 202.792 188.565 202.347 188.644 201.869C188.71 201.477 188.666 201.075 188.517 200.707C188.367 200.338 188.119 200.019 187.799 199.783C187.365 199.437 186.829 199.245 186.274 199.238C185.863 199.27 185.65 199.349 185.65 199.317Z" fill="#263238"/>
<path d="M184.252 182.624C184.434 182.464 184.659 182.36 184.9 182.324C185.556 182.186 186.239 182.286 186.827 182.609C187.244 182.821 187.601 183.137 187.862 183.525C188.166 183.98 188.318 184.519 188.297 185.065C188.272 185.689 188.059 186.29 187.687 186.79C187.315 187.29 186.801 187.667 186.211 187.87C185.608 188.024 184.973 187.997 184.386 187.792C183.798 187.587 183.285 187.213 182.909 186.717C182.576 186.289 182.375 185.772 182.332 185.231C182.308 184.765 182.383 184.299 182.553 183.865C182.799 183.246 183.233 182.721 183.794 182.364C183.989 182.217 184.222 182.13 184.465 182.111C184.465 182.111 184.236 182.229 183.889 182.498C183.4 182.874 183.032 183.385 182.83 183.967C182.671 184.385 182.623 184.836 182.689 185.277C182.756 185.718 182.935 186.135 183.209 186.487C183.543 186.913 183.993 187.233 184.504 187.409C185.016 187.584 185.568 187.607 186.093 187.475C186.601 187.294 187.046 186.968 187.37 186.537C187.695 186.106 187.885 185.588 187.918 185.05C187.938 184.607 187.835 184.167 187.618 183.78C187.402 183.393 187.081 183.075 186.693 182.861C186.162 182.548 185.544 182.415 184.931 182.482C184.497 182.537 184.268 182.656 184.252 182.624Z" fill="#263238"/>
<path d="M180.049 246.385C180.049 246.385 180.112 246.345 180.246 246.298L180.839 246.069C181.368 245.887 182.119 245.555 183.075 245.113C185.744 243.767 188.194 242.025 190.343 239.946C193.501 236.836 196.292 233.375 198.661 229.629C201.624 225.076 204.331 220.36 206.767 215.504C211.147 206.653 214.991 197.546 218.277 188.233C219.565 184.662 220.568 181.763 221.271 179.764L222.061 177.457C222.148 177.22 222.227 177.023 222.282 176.865C222.305 176.796 222.334 176.73 222.369 176.667C222.363 176.74 222.347 176.812 222.322 176.881C222.274 177.039 222.211 177.236 222.14 177.489C221.958 178.05 221.713 178.824 221.405 179.859C220.75 181.874 219.786 184.789 218.522 188.367C215.321 197.706 211.516 206.826 207.13 215.67C204.688 220.54 201.966 225.264 198.977 229.819C196.58 233.584 193.748 237.055 190.54 240.16C188.358 242.235 185.862 243.955 183.146 245.255C182.402 245.596 181.64 245.894 180.863 246.148L180.254 246.338C180.189 246.364 180.119 246.38 180.049 246.385Z" fill="#263238"/>
<path d="M207.249 230.609C207.588 230.609 215.449 230.072 215.449 230.072C215.449 230.072 212.202 235.807 208.821 237.972H201.94L207.249 230.609Z" fill="#FAFAFA"/>
<path d="M178.674 263.757C178.809 263.628 178.957 263.514 179.117 263.418L180.444 262.501C181.589 261.711 183.241 260.526 185.223 259.002C189.173 255.976 194.435 251.457 200.06 246.29C202.872 243.707 205.59 241.274 207.912 238.936C209.996 236.885 211.932 234.689 213.703 232.363C214.892 230.794 215.949 229.129 216.863 227.386C217.211 226.777 217.424 226.28 217.59 225.948C217.665 225.773 217.757 225.606 217.866 225.45C217.816 225.632 217.749 225.809 217.669 225.979C217.527 226.319 217.329 226.833 217.005 227.457C216.137 229.24 215.109 230.94 213.932 232.536C212.184 234.902 210.259 237.131 208.173 239.204C205.842 241.574 203.141 244.015 200.328 246.591C194.703 251.757 189.434 256.26 185.397 259.231C183.383 260.724 181.7 261.861 180.531 262.628C179.938 263.007 179.472 263.283 179.156 263.481C179.007 263.591 178.845 263.684 178.674 263.757Z" fill="#263238"/>
<path d="M156.523 351.55C156.523 351.55 156.523 351.479 156.618 351.36C156.713 351.242 156.815 351.052 156.942 350.839C157.234 350.388 157.676 349.725 158.269 348.887C159.454 347.228 161.287 344.89 163.704 342.141C168.57 336.682 175.388 329.232 182.893 320.985L202.24 299.9L208.126 293.58L209.706 291.865L210.132 291.431L210.29 291.289C210.29 291.289 210.251 291.352 210.164 291.454L209.769 291.921L208.189 293.69L202.398 300.129L183.201 321.237L163.925 342.315C161.484 345.032 159.62 347.331 158.395 348.959C157.787 349.749 157.321 350.42 157.013 350.862L156.657 351.36C156.618 351.427 156.573 351.49 156.523 351.55Z" fill="#263238"/>
<path d="M225.023 166.69C225.703 167.709 240.966 169.408 244.702 173.136C248.439 176.865 285.782 205.368 285.782 205.368L259.167 241.187L241.993 237.403L225.023 166.69Z" fill="#FF9F43"/>
<path opacity="0.4" d="M281.256 201.893L251.417 239.481L259.167 241.187L285.751 205.329L281.256 201.893Z" fill="black"/>
<path d="M233.153 203.978C233.019 203.57 232.916 203.153 232.845 202.73C232.758 202.327 232.655 201.829 232.584 201.245C232.513 200.66 232.394 199.997 232.355 199.254C232.315 198.511 232.236 197.674 232.236 196.829C232.236 195.983 232.236 195.027 232.307 194.048C232.461 191.918 232.791 189.804 233.295 187.728C233.833 185.662 234.543 183.646 235.42 181.7C235.839 180.815 236.21 179.962 236.66 179.204C237.111 178.445 237.498 177.742 237.901 177.118C238.304 176.494 238.691 175.957 239.038 175.475C239.326 175.062 239.634 174.664 239.963 174.282C240.221 173.939 240.509 173.619 240.824 173.326C240.608 173.696 240.362 174.047 240.089 174.377C239.844 174.709 239.544 175.112 239.228 175.609C238.912 176.107 238.509 176.636 238.146 177.276C237.782 177.916 237.356 178.595 236.961 179.37C236.566 180.144 236.171 180.95 235.768 181.85C234.936 183.788 234.254 185.788 233.729 187.831C233.237 189.88 232.902 191.964 232.726 194.064C232.671 195.035 232.6 195.96 232.623 196.821C232.647 197.682 232.623 198.488 232.687 199.191C232.75 199.894 232.797 200.589 232.853 201.174C232.908 201.758 232.979 202.256 233.042 202.659C233.121 203.094 233.158 203.536 233.153 203.978Z" fill="#263238"/>
<path d="M245.098 233.429C243.874 231.057 242.775 228.624 241.803 226.138C240.703 223.708 239.727 221.225 238.88 218.696C240.104 221.066 241.206 223.497 242.183 225.98C243.285 228.41 244.258 230.896 245.098 233.429Z" fill="#263238"/>
<path d="M127.743 207.407C127.68 207.407 127.04 206.261 125.831 204.484C124.254 202.168 122.449 200.017 120.443 198.061C118.427 196.12 116.226 194.382 113.871 192.871C112.054 191.717 110.861 191.117 110.892 191.054C111.195 191.137 111.487 191.257 111.761 191.409C112.534 191.777 113.288 192.183 114.021 192.626C116.451 194.074 118.704 195.8 120.736 197.769C122.76 199.743 124.552 201.943 126.076 204.326C126.653 205.242 127.087 206.001 127.356 206.546C127.52 206.816 127.65 207.105 127.743 207.407Z" fill="#263238"/>
<path opacity="0.4" d="M82.105 245.666L83.9457 241.187L134.427 254.933L132.428 260.55L82.105 245.666Z" fill="black"/>
<path d="M216.871 227.962H236.092V235.862L211.499 235.704C211.499 235.704 215.299 231.13 216.871 227.962Z" fill="#FAFAFA"/>
<g opacity="0.2">
<path opacity="0.2" d="M148.314 170.798C149.01 176.96 149.768 183.319 152.817 188.723C155.867 194.126 161.831 198.385 167.97 197.476C172.062 196.868 175.53 194.134 178.319 191.069C181.107 188.004 183.446 184.536 186.487 181.731C188.327 183.712 190.383 185.48 192.618 187.001C194.875 188.53 197.586 189.246 200.304 189.031C202.982 188.707 204.46 187.641 205.305 185.081C202.445 185.966 200.873 185.831 198.021 185.286C194.872 184.683 191.915 183.328 189.402 181.336C187.728 180.017 187.119 178.034 184.994 178.176C183.027 178.287 181.487 179.843 180.191 181.336C178.099 183.731 175.805 185.941 173.334 187.941C170.964 189.813 168.673 191.101 165.655 191.014C160.686 190.903 156.617 187.001 153.876 182.853C151.346 179.029 149.476 174.807 148.346 170.363" fill="black"/>
</g>
<path d="M206.49 163.111C206.535 163.255 206.565 163.404 206.577 163.554C206.577 163.846 206.672 164.273 206.727 164.826C206.846 165.932 206.964 167.535 207.012 169.566C207.119 174.759 206.623 179.947 205.534 185.026V185.152V185.279H205.416C202.607 185.937 199.677 185.858 196.908 185.05C194.643 184.444 192.504 183.444 190.588 182.095C189.291 181.214 188.128 180.149 187.135 178.935C186.868 178.607 186.62 178.264 186.393 177.908C186.304 177.787 186.227 177.657 186.164 177.521C187.452 179.206 188.999 180.678 190.746 181.882C192.652 183.169 194.762 184.125 196.987 184.71C199.696 185.475 202.555 185.543 205.297 184.907L205.147 185.058V184.931C206.223 179.878 206.753 174.724 206.727 169.558C206.727 167.575 206.64 165.971 206.577 164.857C206.577 164.344 206.522 163.925 206.498 163.585C206.473 163.429 206.47 163.269 206.49 163.111Z" fill="#263238"/>
<path d="M182.49 178.698C182.427 178.867 182.342 179.026 182.237 179.172C181.973 179.61 181.682 180.032 181.368 180.436C180.188 181.908 178.888 183.28 177.481 184.536C176.604 185.326 175.617 186.203 174.55 187.104C174.013 187.554 173.476 188.028 172.876 188.502C172.257 188.969 171.605 189.389 170.924 189.758C169.462 190.565 167.848 191.057 166.184 191.204C164.37 191.358 162.551 190.956 160.97 190.051C159.432 189.134 158.052 187.973 156.886 186.614C155.78 185.383 154.751 184.085 153.805 182.727C152.21 180.424 150.862 177.959 149.784 175.372C149.062 173.633 148.47 171.843 148.014 170.016C147.848 169.368 147.746 168.863 147.683 168.515C147.639 168.342 147.612 168.164 147.604 167.986C147.676 168.15 147.729 168.323 147.762 168.499C147.856 168.839 147.983 169.337 148.164 169.977C148.683 171.776 149.313 173.541 150.053 175.262C151.159 177.808 152.523 180.236 154.121 182.506C155.063 183.845 156.087 185.124 157.186 186.338C158.314 187.661 159.648 188.795 161.136 189.695C162.648 190.558 164.386 190.944 166.121 190.801C167.737 190.662 169.307 190.194 170.735 189.426C171.405 189.071 172.047 188.664 172.654 188.21C173.231 187.767 173.784 187.286 174.321 186.843C175.396 185.95 176.391 185.113 177.276 184.323C178.688 183.105 180.008 181.785 181.226 180.373C181.645 179.867 181.953 179.449 182.158 179.164C182.255 179 182.366 178.844 182.49 178.698Z" fill="#263238"/>
<path d="M165.474 269.469L171.565 260.589C171.565 260.589 175.752 246.037 175.183 243.999C174.614 241.961 172.765 234.377 173.2 234.282C173.634 234.187 178.193 232.497 180.665 238.58C182.206 242.372 182.711 247.365 182.877 250.588C182.895 250.986 183 251.376 183.183 251.73C183.366 252.084 183.624 252.394 183.939 252.639C184.253 252.884 184.617 253.057 185.005 253.148C185.394 253.238 185.797 253.244 186.187 253.163C190.398 252.294 197.405 250.975 199.072 251.378C201.49 251.954 203.654 255.035 203.86 256.07C204.065 257.105 202.406 259.436 202.406 259.436C202.406 259.436 204.46 260.486 205.092 262.074C205.179 262.288 205.25 262.501 205.313 262.706C205.506 263.343 205.53 264.019 205.381 264.667C205.233 265.316 204.918 265.914 204.468 266.404L203.82 267.115C203.82 267.115 206.388 267.818 206.704 269.287C206.875 270.36 206.846 271.456 206.617 272.518L204.207 275.007C204.879 275.633 205.319 276.468 205.456 277.377C205.582 278.735 201.972 282.117 201.972 282.117L186.48 287.647L180.334 289.227L165.474 269.469Z" fill="#B78876"/>
<path d="M202.453 259.452C200.683 259.928 198.89 260.316 197.081 260.613C195.304 261.048 193.506 261.39 191.693 261.64C192.178 261.403 192.69 261.225 193.218 261.111C194.174 260.842 195.509 260.511 197.002 260.21C198.495 259.91 199.846 259.689 200.842 259.563C201.371 259.454 201.913 259.417 202.453 259.452Z" fill="#AA6550"/>
<path d="M203.868 267.115C202.551 267.732 201.178 268.222 199.767 268.576C198.399 269.067 196.986 269.427 195.549 269.651C196.866 269.033 198.239 268.544 199.649 268.189C201.018 267.698 202.43 267.338 203.868 267.115Z" fill="#AA6550"/>
<path d="M204.792 274.675C203.404 275.506 201.948 276.217 200.439 276.8C198.985 277.512 197.473 278.099 195.92 278.554C197.308 277.723 198.764 277.012 200.273 276.429C201.727 275.717 203.238 275.131 204.792 274.675Z" fill="#AA6550"/>
<path d="M129.781 324.342L186.756 286.122L172.378 260.052L120.38 286.794L126.282 258.701L90.9922 248.257L82.16 296.368C80.8012 317.762 97.96 335.031 118.642 329.414C122.607 328.342 126.369 326.629 129.781 324.342Z" fill="#B78876"/>
<path d="M112.851 301.914C112.749 301.686 112.682 301.444 112.654 301.195C112.537 300.53 112.471 299.856 112.456 299.181C112.427 296.933 112.93 294.71 113.926 292.695C114.935 290.685 116.411 288.945 118.231 287.623C118.773 287.221 119.35 286.867 119.953 286.565C120.17 286.438 120.404 286.345 120.649 286.288C120.649 286.359 119.724 286.809 118.405 287.868C116.678 289.217 115.273 290.935 114.295 292.897C113.316 294.858 112.788 297.013 112.749 299.205C112.709 300.864 112.97 301.906 112.851 301.914Z" fill="#AA6550"/>
<path d="M259.167 241.187C259.523 240.697 299.742 265.203 299.742 265.203L312.635 323.94L331.192 330.749C331.192 330.749 336.982 265.385 332.574 255.21C328.166 245.034 283.476 208.426 283.476 208.426L259.167 241.187Z" fill="#B78876"/>
<path d="M308.527 260.7C307.631 262.047 306.439 263.171 305.043 263.987C303.719 264.919 302.201 265.54 300.603 265.804C302.046 265.157 303.455 264.434 304.822 263.639C306.111 262.729 307.348 261.748 308.527 260.7Z" fill="#AA6550"/>
<path d="M210.796 241.313L213.948 297.688L278.222 293.343L276.279 251.378L266.918 238.777L210.796 241.313Z" fill="#263238"/>
<path d="M196.188 298.944C196.378 300.026 201.837 351.084 201.837 351.084L297.498 344.44L313.685 342.267L306.22 294.725L294.788 291.984L196.188 298.944Z" fill="#FF9F43"/>
<path opacity="0.4" d="M294.788 291.976L196.188 298.944C196.378 300.026 201.837 351.084 201.837 351.084L301.432 344.156L294.788 291.976Z" fill="black"/>
<path d="M268.584 293.99L213.948 297.688L210.796 241.313L266.918 238.777L268.584 293.99Z" fill="#455A64"/>
<path d="M231.17 240.397L232.323 257.769L235.246 256.094L236.866 257.769L238.88 256.094L241.993 257.769V239.907L231.17 240.397Z" fill="#263238"/>
<path d="M254.009 295.176L250.272 252.863L286.794 262.928L290.317 292.134L254.009 295.176Z" fill="#FF9F43"/>
<path d="M286.77 262.936C286.705 263.044 286.629 263.145 286.541 263.236L285.838 264.066L283.152 267.131L273.822 277.598L273.68 277.756L273.53 277.606L268.6 272.392L255.589 258.646L251.678 254.443L250.628 253.29C250.498 253.162 250.384 253.019 250.288 252.863C250.433 252.973 250.567 253.094 250.691 253.227L251.797 254.333L255.794 258.441L268.893 272.108L273.854 277.33H273.561L283.041 266.957L285.814 263.971L286.565 263.181C286.625 263.092 286.694 263.01 286.77 262.936Z" fill="#263238"/>
<path d="M266.317 270.772C266.42 270.828 263.813 275.821 260.503 281.927C257.192 288.034 254.427 292.94 254.325 292.885C254.222 292.829 256.829 287.836 260.139 281.73C263.449 275.623 266.23 270.717 266.317 270.772Z" fill="#263238"/>
<path d="M289.464 292.134C289.369 292.189 286.841 288.144 283.815 283.104C280.79 278.064 278.412 273.916 278.514 273.853C278.617 273.79 281.137 277.843 284.163 282.891C287.189 287.939 289.567 292.079 289.464 292.134Z" fill="#263238"/>
<path d="M273.625 293.525L271.239 266.578L294.496 272.992L296.74 291.589L273.625 293.525Z" fill="#FF9F43"/>
<path opacity="0.4" d="M273.625 293.525L271.239 266.578L294.496 272.992L296.74 291.589L273.625 293.525Z" fill="white"/>
<path d="M294.496 272.992C294.33 273.257 294.137 273.503 293.92 273.727C293.485 274.241 292.916 274.896 292.229 275.694L286.304 282.378L286.162 282.543L286.012 282.386L282.852 279.068C279.605 275.663 276.682 272.558 274.58 270.299L272.116 267.605C271.797 267.288 271.506 266.945 271.247 266.578C271.598 266.856 271.925 267.162 272.226 267.494L274.794 270.093C276.95 272.305 279.905 275.378 283.152 278.783L286.312 282.109H285.98L292.008 275.52L293.793 273.632C294.007 273.397 294.242 273.183 294.496 272.992Z" fill="#263238"/>
<path d="M281.461 277.985C281.556 278.041 279.928 281.232 277.819 285.095C276.609 287.478 275.274 289.796 273.822 292.039C274.908 289.608 276.121 287.235 277.456 284.929C278.667 282.545 280.004 280.227 281.461 277.985Z" fill="#263238"/>
<path d="M296.203 291.589C294.867 289.76 293.643 287.853 292.537 285.877C291.31 283.971 290.204 281.99 289.227 279.944C291.777 283.687 294.107 287.575 296.203 291.589Z" fill="#263238"/>
<path d="M288.445 271.854V274.019L291.842 274.414L292.024 272.763L288.445 271.854Z" fill="white"/>
<path d="M276.453 260.866V264.026L282.867 265.084L283.223 262.667L276.453 260.866Z" fill="white"/>
<path d="M251.417 310.928L251.101 295.176L238.327 296.037L239.694 312.042L251.417 310.928Z" fill="#FF9F43"/>
<path d="M293.075 319.204L271.628 321.239L273.428 340.209L294.875 338.174L293.075 319.204Z" fill="#FAFAFA"/>
<path d="M294.844 338.199C294.818 338.079 294.799 337.958 294.789 337.836C294.789 337.575 294.717 337.235 294.67 336.809C294.575 335.892 294.433 334.589 294.259 332.954C293.92 329.62 293.469 324.911 292.869 319.247L293.058 319.405L271.626 321.467C271.578 321.514 271.973 321.048 271.808 321.246V321.388V321.554V321.87L271.871 322.518L271.989 323.797C272.076 324.643 272.155 325.48 272.234 326.318C272.384 327.984 272.542 329.612 272.692 331.208C272.985 334.368 273.269 337.409 273.522 340.198L273.324 340.04L288.8 338.665L293.193 338.294L294.37 338.207C294.509 338.196 294.649 338.196 294.789 338.207C294.667 338.236 294.542 338.254 294.417 338.262L293.28 338.397L288.935 338.855L273.364 340.435H273.182V340.253C272.906 337.457 272.613 334.439 272.305 331.263C272.158 329.683 272.002 328.053 271.839 326.373C271.76 325.535 271.681 324.698 271.602 323.845C271.563 323.426 271.523 323 271.476 322.573L271.42 321.925V321.609V321.443V321.301C271.255 321.499 271.642 321.025 271.61 321.072L293.051 319.073H293.224V319.247C293.73 324.959 294.149 329.715 294.449 333.08C294.583 334.699 294.686 335.987 294.765 336.904C294.765 337.322 294.82 337.654 294.836 337.907C294.846 338.004 294.848 338.102 294.844 338.199Z" fill="#263238"/>
<path d="M291.368 323.773C291.368 323.892 287.631 324.374 282.994 324.864C280.203 325.231 277.395 325.458 274.581 325.543C274.581 325.432 278.317 324.943 282.955 324.453C287.592 323.963 291.36 323.663 291.368 323.773Z" fill="#263238"/>
<path d="M291.242 326.997C290.496 327.265 289.726 327.458 288.943 327.573C287.505 327.858 285.506 328.189 283.286 328.45C281.066 328.711 279.036 328.853 277.575 328.9C276.786 328.971 275.993 328.971 275.205 328.9C275.986 328.746 276.779 328.656 277.575 328.632C279.028 328.498 281.035 328.316 283.247 328.055C285.459 327.794 287.458 327.51 288.903 327.265C289.675 327.118 290.457 327.028 291.242 326.997Z" fill="#263238"/>
<path d="M292.15 334.043C291.401 334.31 290.629 334.503 289.843 334.62C288.405 334.905 286.407 335.236 284.187 335.497C281.967 335.758 279.944 335.9 278.475 335.947C277.687 336.024 276.893 336.024 276.105 335.947C276.886 335.793 277.679 335.703 278.475 335.679C279.929 335.552 281.943 335.363 284.155 335.102C286.367 334.841 288.366 334.557 289.811 334.312C290.583 334.164 291.365 334.074 292.15 334.043Z" fill="#263238"/>
<path d="M291.068 330.433C288.489 331.016 285.881 331.459 283.255 331.76C280.639 332.204 278.002 332.51 275.354 332.677C277.935 332.103 280.543 331.66 283.168 331.35C285.784 330.91 288.42 330.604 291.068 330.433Z" fill="#263238"/>
<path d="M310.004 359.813C310.004 359.813 327.661 348.129 329.019 342.157C330.378 336.184 331.192 330.749 331.192 330.749L312.327 322.936L314.199 329.73C314.199 329.73 307.436 333.751 306.741 338.625C306.283 341.872 297.538 347.434 297.538 347.434C296.81 346.555 295.885 345.861 294.837 345.409C293.789 344.957 292.649 344.76 291.51 344.835L284.163 345.356L289.132 356.551L310.004 359.813Z" fill="#B78876"/>
<path d="M316.901 343.8C316.644 343.957 316.364 344.071 316.071 344.139C315.518 344.321 314.697 344.503 313.701 344.819C312.577 345.219 311.538 345.824 310.636 346.604C309.499 347.574 308.227 348.372 306.86 348.974C304.331 350.052 301.522 350.287 298.849 349.646C298.38 349.555 297.928 349.387 297.514 349.148C297.344 349.052 297.207 348.908 297.12 348.733C297.032 348.559 296.999 348.362 297.024 348.169C297.038 348.048 297.081 347.933 297.15 347.834C297.219 347.735 297.311 347.654 297.419 347.6C297.577 347.544 297.664 347.6 297.664 347.6C297.664 347.6 297.577 347.6 297.459 347.687C297.376 347.747 297.308 347.825 297.26 347.915C297.212 348.006 297.186 348.106 297.182 348.208C297.167 348.371 297.204 348.534 297.286 348.676C297.368 348.817 297.492 348.93 297.641 348.998C298.044 349.196 298.476 349.332 298.92 349.401C301.534 349.933 304.248 349.658 306.702 348.611C308.038 348.016 309.283 347.234 310.399 346.288C311.345 345.503 312.434 344.907 313.606 344.535C314.618 344.25 315.439 344.116 315.976 343.974C316.279 343.891 316.588 343.833 316.901 343.8Z" fill="#AA6550"/>
<path d="M304.671 352.861C304.671 352.925 303.763 352.403 302.262 351.779C300.305 350.979 298.243 350.466 296.139 350.254C295.523 350.191 294.915 350.175 294.33 350.16H294.22L294.156 350.065C293.242 348.634 292.139 347.332 290.878 346.194C289.922 345.333 289.298 344.89 289.298 344.843C289.298 344.796 289.487 344.906 289.788 345.096C290.214 345.372 290.625 345.67 291.02 345.988C292.367 347.087 293.532 348.39 294.472 349.852L294.306 349.757C294.907 349.757 295.523 349.757 296.155 349.852C298.301 350.058 300.396 350.622 302.357 351.518C302.947 351.787 303.519 352.093 304.071 352.435C304.292 352.545 304.495 352.689 304.671 352.861Z" fill="#AA6550"/>
<path d="M309.443 349.654C309.443 349.764 308.25 350.215 306.86 351.005C305.469 351.795 304.45 352.624 304.371 352.529C305.675 351.009 307.469 349.992 309.443 349.654Z" fill="#AA6550"/>
<path d="M319.01 328.64C319.01 328.767 317.777 328.64 316.371 328.996C314.965 329.351 314.001 330.078 313.891 329.975C314.544 329.311 315.365 328.837 316.266 328.602C317.167 328.366 318.116 328.38 319.01 328.64Z" fill="#AA6550"/>
<path d="M61.4385 321.901C63.7611 324.666 67.6874 323.331 69.3859 321.364C71.0844 319.397 71.6374 316.727 72.1351 314.175C73.2569 308.345 74.3787 302.238 72.6407 296.558C72.1923 294.83 71.2767 293.258 69.9942 292.016C69.3451 291.406 68.5473 290.978 67.6808 290.775C66.8142 290.571 65.9093 290.598 65.0567 290.854C63.0817 291.565 61.9994 293.659 61.2647 295.594C59.0866 301.389 58.2284 307.596 58.7525 313.764C58.9974 316.64 59.6057 319.618 61.4385 321.846" fill="#FF9F43"/>
<g opacity="0.2">
<path opacity="0.2" d="M61.4385 321.901C63.7611 324.666 67.6874 323.331 69.3859 321.364C71.0844 319.397 71.6374 316.727 72.1351 314.175C73.2569 308.345 74.3787 302.238 72.6407 296.558C72.1923 294.83 71.2767 293.258 69.9942 292.016C69.3451 291.406 68.5473 290.978 67.6808 290.775C66.8142 290.571 65.9093 290.598 65.0567 290.854C63.0817 291.565 61.9994 293.659 61.2647 295.594C59.0866 301.389 58.2284 307.596 58.7525 313.764C58.9974 316.64 59.6057 319.618 61.4385 321.846" fill="black"/>
</g>
<path d="M70.5 336.145C73.7232 334.099 77.6811 333.514 81.481 333.775C83.5271 333.933 85.6759 334.344 87.1848 335.734C88.6937 337.125 89.1835 339.763 87.7299 341.201C86.7761 341.979 85.5797 342.399 84.3487 342.386C81.4099 342.615 78.1077 342.386 75.9273 344.369C74.6791 345.491 73.9365 347.244 72.3802 347.884C71.5971 348.14 70.7522 348.134 69.9728 347.867C69.1934 347.601 68.5217 347.088 68.0589 346.407C67.1623 345.001 66.8425 343.303 67.1662 341.667C67.2617 340.553 67.612 339.475 68.19 338.518C68.7681 337.56 69.5584 336.749 70.5 336.145Z" fill="#FF9F43"/>
<path d="M56.1454 326.641C58.152 323.782 58.231 319.863 56.9354 316.616C55.6398 313.369 53.1276 310.747 50.331 308.661C47.0207 306.21 43.2638 304.428 39.271 303.415C37.7207 302.948 36.0882 302.819 34.4836 303.036C33.6959 303.167 32.951 303.485 32.3118 303.963C31.6725 304.441 31.1575 305.066 30.8101 305.785C29.9016 307.982 31.1814 310.438 32.5086 312.413C34.8437 315.896 37.4453 319.192 40.2901 322.273C42.589 324.745 45.1881 327.155 48.435 328.079C51.6819 329.003 54.9288 328.561 56.4061 326.238" fill="#FF9F43"/>
<path d="M65.27 366.386C65.3381 365.936 65.3593 365.481 65.3332 365.027C65.3332 364.048 65.3332 362.815 65.3332 361.346C65.3538 359.527 65.4698 357.71 65.6808 355.903C65.9653 353.702 66.4276 351.527 67.0633 349.401C67.6785 347.278 68.5936 345.254 69.7809 343.389C70.7471 341.87 72.0398 340.585 73.565 339.629C74.5985 338.993 75.7265 338.527 76.9067 338.246C77.3546 338.182 77.7961 338.079 78.226 337.938C77.7709 337.917 77.3149 337.949 76.8672 338.033C75.6333 338.242 74.4459 338.667 73.3596 339.289C71.7494 340.237 70.3789 341.542 69.3543 343.105C68.1175 345.002 67.1646 347.07 66.5261 349.243C65.8842 351.401 65.4296 353.611 65.1673 355.847C64.9827 357.671 64.9062 359.505 64.9382 361.338C64.9382 362.918 65.033 364.166 65.0883 365.035C65.0969 365.491 65.1579 365.944 65.27 366.386Z" fill="#263238"/>
<path d="M65.2697 363.55C65.2907 363.343 65.2907 363.134 65.2697 362.926C65.2697 362.46 65.1749 361.867 65.1117 361.149C64.9695 359.608 64.772 357.372 64.6061 354.607C64.2506 349.077 64.0452 341.43 64.2111 332.985C64.377 324.54 64.9379 316.901 65.5778 311.402C65.72 310.02 65.8701 308.779 66.0281 307.689C66.1861 306.599 66.2967 305.659 66.4231 304.901C66.5495 304.142 66.6127 303.597 66.6838 303.131C66.7254 302.926 66.7439 302.716 66.7391 302.507C66.6559 302.701 66.6 302.906 66.5732 303.115C66.4784 303.573 66.3599 304.15 66.2098 304.861C66.0597 305.572 65.8938 306.56 65.72 307.65C65.5462 308.74 65.3566 309.972 65.1828 311.355C64.2877 318.53 63.7788 325.748 63.6581 332.977C63.4922 341.438 63.7529 349.109 64.2111 354.639C64.4244 357.404 64.6851 359.64 64.8984 361.172C65.0011 361.891 65.0959 362.476 65.1591 362.942C65.175 363.148 65.2121 363.352 65.2697 363.55Z" fill="#263238"/>
<path d="M63.9903 348.825C63.983 348.202 63.9249 347.581 63.8165 346.968C63.6348 345.783 63.3188 344.077 62.7974 341.991C62.1677 339.557 61.4029 337.159 60.5064 334.81C59.4267 331.924 58.1437 329.117 56.667 326.412C54.0731 321.421 50.5932 316.942 46.397 313.196C45.6658 312.559 44.8982 311.966 44.0981 311.418C43.7505 311.173 43.4424 310.928 43.1264 310.739L42.2575 310.241C41.7283 309.915 41.1765 309.627 40.6064 309.38C40.5274 309.506 42.9764 310.66 46.1363 313.496C50.2032 317.286 53.5936 321.742 56.1614 326.673C57.6332 329.348 58.9289 332.116 60.0403 334.96C61.0831 337.583 61.8415 340.008 62.4103 342.07C62.9791 344.132 63.3504 345.815 63.5953 346.984C63.6765 347.607 63.8086 348.223 63.9903 348.825Z" fill="#263238"/>
</svg>
