<svg width="500" height="500" viewBox="0 0 500 500" fill="none" xmlns="http://www.w3.org/2000/svg">
<path d="M424.44 132.17C424.962 132.243 425.469 132.402 425.94 132.64C427.046 133.18 427.973 134.028 428.61 135.081C429.247 136.135 429.566 137.35 429.53 138.58C429.499 139.741 429.154 140.871 428.53 141.85C428.199 142.383 427.787 142.862 427.31 143.27C426.817 143.69 426.26 144.028 425.66 144.27C424.401 144.818 423.002 144.958 421.66 144.67C420.306 144.363 419.087 143.631 418.18 142.58C417.758 142.089 417.421 141.531 417.18 140.93C416.921 140.36 416.755 139.752 416.69 139.13C416.545 137.977 416.714 136.805 417.18 135.74C417.668 134.61 418.475 133.646 419.501 132.966C420.527 132.286 421.729 131.919 422.96 131.91C423.488 131.892 424.015 131.963 424.52 132.12C424.52 132.17 423.96 132.01 422.97 132.05C421.56 132.111 420.212 132.643 419.14 133.56C418.403 134.183 417.824 134.971 417.45 135.86C417.025 136.88 416.877 137.994 417.02 139.09C417.093 139.678 417.255 140.251 417.5 140.79C417.747 141.361 418.085 141.887 418.5 142.35C419.351 143.355 420.506 144.057 421.79 144.35C423.067 144.633 424.401 144.503 425.6 143.98C426.172 143.736 426.699 143.398 427.16 142.98C427.617 142.599 428.009 142.147 428.32 141.64C428.925 140.715 429.271 139.644 429.32 138.54C429.366 137.354 429.075 136.18 428.48 135.153C427.885 134.127 427.011 133.29 425.96 132.74C425 132.31 424.43 132.22 424.44 132.17Z" fill="#E0E0E0"/>
<path d="M429.52 125.39C429.515 125.317 429.515 125.243 429.52 125.17C429.52 125 429.52 124.78 429.52 124.49C429.52 123.87 429.52 122.98 429.52 121.82L429.57 121.88L423.8 120.62L423.9 120.57L422.38 123.8V123.86H422.31C421.032 123.916 419.768 124.141 418.55 124.53H418.48H418.43L415.8 122H416L411 125.18V125L412.2 128.36V128.44L412.14 128.51C411.277 129.45 410.541 130.499 409.95 131.63V131.71H409.85H406.29L406.44 131.58C406.04 133.39 405.6 135.34 405.16 137.35L405.07 137.16L408.29 138.68H408.38V138.78C408.432 140.053 408.65 141.314 409.03 142.53V142.63L408.95 142.71L406.43 145.24V145.02L409.59 150.02L409.38 149.94L412.74 148.74H412.84L412.93 148.81C413.86 149.676 414.903 150.413 416.03 151C416.08 151.07 415.94 150.84 416.13 151.16V154.72L415.99 154.54L421.75 155.84L421.55 155.94C422.06 154.85 422.55 153.78 423.08 152.71L423.13 152.62H423.24C424.51 152.571 425.768 152.353 426.98 151.97H427.08L427.16 152.05L429.69 154.57H429.47L434.47 151.42L434.4 151.61L433.2 148.25V148.16L433.27 148.08C434.138 147.145 434.878 146.1 435.47 144.97V144.89H439.13L438.99 145.01C439.45 143.01 439.88 141.07 440.29 139.24L440.37 139.4L437.15 137.86H437.08V137.78C437.036 136.504 436.821 135.239 436.44 134.02V133.95V133.9C437.36 132.98 438.18 132.15 438.97 131.37V131.51L435.83 126.51H435.93L432.56 127.68C431.852 127.024 431.086 126.435 430.27 125.92L429.65 125.55L429.45 125.42L429.67 125.52L430.3 125.86C431.137 126.36 431.921 126.943 432.64 127.6H432.58L435.93 126.38H435.99V126.44L439.17 131.44L439.22 131.52L439.16 131.58L436.76 134V133.88C437.156 135.12 437.382 136.409 437.43 137.71L437.36 137.6L440.59 139.12L440.69 139.17V139.28C440.29 141.1 439.86 143.01 439.41 145.04V145.16H435.7L435.84 145.08C435.235 146.236 434.482 147.309 433.6 148.27V148.1C433.99 149.2 434.4 150.32 434.8 151.46L434.85 151.59L434.73 151.66L429.73 154.83L429.61 154.9L429.51 154.8L427 152.31H427.18C425.936 152.705 424.644 152.93 423.34 152.98L423.49 152.88C422.99 153.94 422.49 155.02 421.96 156.1L421.9 156.23H421.76L416 155H415.86V151.29C416.05 151.61 415.91 151.38 415.96 151.45C414.804 150.85 413.734 150.096 412.78 149.21H412.96L409.6 150.4L409.46 150.45L409.39 150.33L406.23 145.33L406.15 145.21L406.25 145.11L408.77 142.58V142.76C408.379 141.515 408.153 140.224 408.1 138.92L408.2 139.07L405 137.49L404.88 137.43V137.3L406.18 131.54V131.41H409.87L409.73 131.49C410.338 130.339 411.094 129.274 411.98 128.32V128.47L410.79 125.1V125L410.89 124.93L415.89 121.78H415.98L416.05 121.85L418.58 124.38H418.46C419.698 123.993 420.983 123.774 422.28 123.73L422.19 123.79C422.75 122.63 423.27 121.54 423.73 120.57V120.5H423.8L429.55 121.83H429.6C429.6 122.98 429.6 123.83 429.6 124.48C429.6 124.77 429.6 125 429.6 125.16C429.578 125.238 429.551 125.315 429.52 125.39Z" fill="#E0E0E0"/>
<path d="M464.46 413.45C464.46 413.45 464.46 413.07 464.46 412.36C464.46 411.65 464.46 410.58 464.46 409.2C464.46 406.43 464.46 402.36 464.41 397.14C464.41 386.71 464.36 371.66 464.33 353.2L464.49 353.36L360.36 353.41L360.58 353.2C360.58 374.52 360.58 394.89 360.58 413.45L360.38 413.25L435.28 413.34L456.79 413.4H462.53H464H464.51H462.56H456.87L435.4 413.46L360.4 413.55H360.21V413.36C360.21 394.8 360.21 374.43 360.21 353.11V353H360.43H464.56H464.73V353.17C464.73 371.68 464.67 386.75 464.65 397.17C464.65 402.38 464.65 406.43 464.65 409.17C464.65 410.53 464.65 411.58 464.65 412.29C464.65 413 464.46 413.45 464.46 413.45Z" fill="#E0E0E0"/>
<path d="M464.5 360.49C464.5 360.61 441.21 360.7 412.5 360.7C383.79 360.7 360.5 360.61 360.5 360.49C360.5 360.37 383.78 360.28 412.5 360.28C441.22 360.28 464.5 360.37 464.5 360.49Z" fill="#E0E0E0"/>
<path d="M401.51 370.43H369.34V402.6H401.51V370.43Z" fill="#F5F5F5"/>
<path d="M456.91 375.73C456.754 375.751 456.596 375.751 456.44 375.73H455.08L450.08 375.79L433.62 375.86L417.16 375.79L412.16 375.73H410.8C410.644 375.751 410.486 375.751 410.33 375.73C410.486 375.712 410.644 375.712 410.8 375.73H412.16L417.16 375.66L433.62 375.6L450.08 375.66L455.08 375.73H456.44C456.596 375.712 456.754 375.712 456.91 375.73Z" fill="#E0E0E0"/>
<path d="M457.941 382.92C457.781 382.937 457.62 382.937 457.461 382.92H456.071L450.971 382.99L434.151 383.05L417.321 382.99L412.221 382.92H410.831C410.671 382.937 410.51 382.937 410.351 382.92C410.508 382.881 410.669 382.865 410.831 382.87H412.221L417.321 382.81L434.151 382.74L450.971 382.81L456.071 382.87H457.461C457.622 382.865 457.784 382.881 457.941 382.92Z" fill="#E0E0E0"/>
<path d="M457.941 390.1C457.781 390.121 457.62 390.121 457.461 390.1H456.071L450.971 390.16L434.151 390.23L417.321 390.16L412.221 390.1H410.831C410.671 390.121 410.51 390.121 410.351 390.1C410.51 390.082 410.671 390.082 410.831 390.1H412.221L417.321 390.03L434.151 389.97L451.001 390L456.101 390.07H457.491C457.641 390.064 457.792 390.074 457.941 390.1Z" fill="#E0E0E0"/>
<path d="M457.941 397.29C457.781 397.307 457.62 397.307 457.461 397.29H456.071L450.971 397.36L434.151 397.42L417.321 397.36L412.221 397.29H410.831C410.671 397.307 410.51 397.307 410.351 397.29C410.508 397.252 410.669 397.235 410.831 397.24H412.221L417.321 397.18L434.151 397.11L450.971 397.18L456.071 397.24H457.461C457.622 397.235 457.784 397.252 457.941 397.29Z" fill="#E0E0E0"/>
<path d="M193.942 115.074C210.843 98.1719 210.843 70.7685 193.942 53.8666C177.04 36.9647 149.636 36.9647 132.734 53.8666C115.833 70.7685 115.833 98.1719 132.734 115.074C149.636 131.976 177.04 131.976 193.942 115.074Z" fill="#F5F5F5"/>
<path d="M183 85.7996C182.494 85.8749 181.982 85.9084 181.47 85.8996L177.26 85.9796C173.69 85.9796 168.72 86.0696 163.11 86.0696H162.83V82.9996C162.83 76.7296 162.83 71.0596 162.91 66.9996C162.91 64.9996 162.98 63.3796 163 62.1296C162.985 61.5342 163.022 60.9386 163.11 60.3496C163.192 60.9393 163.229 61.5343 163.22 62.1296C163.22 63.3796 163.22 65.0196 163.31 66.9996C163.31 71.1096 163.39 76.7796 163.39 82.9996C163.39 83.9996 163.39 84.9096 163.39 85.8096L163.12 85.5296C168.73 85.5296 173.7 85.5296 177.27 85.6196L181.48 85.7096C181.988 85.6917 182.497 85.7218 183 85.7996Z" fill="#E0E0E0"/>
<path d="M163.231 48.2998C163.506 49.4889 163.6 50.7126 163.511 51.9298C163.599 53.1503 163.505 54.3772 163.231 55.5698C162.956 54.3772 162.862 53.1503 162.951 51.9298C162.861 50.7126 162.956 49.4889 163.231 48.2998Z" fill="#E0E0E0"/>
<path d="M183.001 54.1299C182.367 55.1586 181.577 56.0829 180.661 56.8699C179.877 57.7838 178.956 58.5699 177.931 59.1999C178.566 58.1754 179.355 57.2547 180.271 56.4699C181.059 55.5581 181.979 54.7693 183.001 54.1299Z" fill="#E0E0E0"/>
<path d="M194.48 66.73C193.564 67.5153 192.557 68.1869 191.48 68.73C190.505 69.4283 189.451 70.0089 188.34 70.46C189.143 69.5509 190.11 68.8012 191.19 68.25C192.177 67.5338 193.295 67.0175 194.48 66.73Z" fill="#E0E0E0"/>
<path d="M201.24 85.42C199.59 85.7048 197.912 85.7988 196.24 85.7C194.568 85.7988 192.891 85.7048 191.24 85.42C192.891 85.1413 194.568 85.0473 196.24 85.14C197.912 85.0473 199.589 85.1413 201.24 85.42Z" fill="#E0E0E0"/>
<path d="M132.49 84.7598C130.946 85.0357 129.375 85.1297 127.81 85.0398C126.244 85.129 124.674 85.0351 123.13 84.7598C124.674 84.4845 126.244 84.3905 127.81 84.4798C129.375 84.3899 130.946 84.4838 132.49 84.7598Z" fill="#E0E0E0"/>
<path d="M137.361 98.6797C136.304 99.8785 135.117 100.955 133.821 101.89C132.633 102.957 131.328 103.886 129.931 104.66C130.981 103.455 132.169 102.378 133.471 101.45C134.65 100.372 135.957 99.4422 137.361 98.6797Z" fill="#E0E0E0"/>
<path d="M149.351 109.44C148.652 110.888 147.846 112.282 146.941 113.61C146.191 115.033 145.339 116.4 144.391 117.7C144.847 116.141 145.545 114.663 146.461 113.32C147.216 111.884 148.192 110.575 149.351 109.44Z" fill="#E0E0E0"/>
<path d="M163.231 123.32C162.952 121.669 162.858 119.992 162.951 118.32C162.858 116.648 162.952 114.971 163.231 113.32C163.509 114.971 163.603 116.648 163.511 118.32C163.603 119.992 163.509 121.669 163.231 123.32Z" fill="#E0E0E0"/>
<path d="M184.601 116.71C183.085 116.021 181.701 115.073 180.511 113.91C179.203 112.886 178.077 111.649 177.181 110.25C178.472 111.262 179.707 112.343 180.881 113.49C182.177 114.496 183.419 115.571 184.601 116.71Z" fill="#E0E0E0"/>
<path d="M194.63 105.91C193.416 105.093 192.31 104.125 191.34 103.03C190.244 102.06 189.277 100.954 188.46 99.7397C189.671 100.561 190.773 101.532 191.74 102.63C192.838 103.597 193.809 104.699 194.63 105.91Z" fill="#E0E0E0"/>
<path d="M136.9 71.4298C135.817 70.7422 134.84 69.8999 134 68.9298C133.03 68.0901 132.188 67.1131 131.5 66.0298C132.583 66.7174 133.56 67.5596 134.4 68.5298C135.37 69.3695 136.212 70.3465 136.9 71.4298Z" fill="#E0E0E0"/>
<path d="M149.28 58.3896C148.216 57.7396 147.255 56.934 146.43 55.9996C145.481 55.1665 144.661 54.1957 144 53.1196C145.063 53.7867 146.02 54.6092 146.84 55.5596C147.79 56.3757 148.613 57.3296 149.28 58.3896Z" fill="#E0E0E0"/>
<g opacity="0.8">
<path opacity="0.8" fill-rule="evenodd" clip-rule="evenodd" d="M398.74 62.29C401.01 63.4733 403.115 64.9492 405 66.68L411.65 64.31L417.9 74.18L412.9 79.18C413.667 81.6106 414.104 84.1331 414.2 86.68L420.58 89.68L418 101.12H411C409.824 103.383 408.351 105.478 406.62 107.35L408.99 114L399.12 120.25L394.12 115.25C391.69 116.02 389.168 116.461 386.62 116.56L383.62 122.93L372.22 120.38V113.32C369.955 112.144 367.86 110.667 365.99 108.93L359.34 111.3L353 101.46L358 96.46C357.225 94.0437 356.774 91.5351 356.66 89L350.28 86L352.84 74.6H359.9C361.076 72.3351 362.553 70.2394 364.29 68.37L361.92 61.72L371.79 55.47L376.79 60.47C379.224 59.7007 381.75 59.2601 384.3 59.16L387.3 52.79L398.7 55.35V62.35L398.74 62.29ZM388.69 75.71C386.273 75.1686 383.75 75.3555 381.44 76.2472C379.129 77.1389 377.135 78.6954 375.708 80.7201C374.282 82.7447 373.487 85.1467 373.425 87.6227C373.363 90.0986 374.036 92.5374 375.359 94.6311C376.682 96.7247 378.596 98.3793 380.859 99.3857C383.122 100.392 385.633 100.705 388.074 100.286C390.515 99.8663 392.776 98.7327 394.573 97.0284C396.37 95.324 397.622 93.1253 398.17 90.71C398.536 89.1025 398.582 87.4384 398.303 85.8134C398.024 84.1883 397.427 82.6343 396.546 81.2406C395.666 79.8469 394.518 78.6408 393.17 77.6917C391.822 76.7427 390.299 76.0692 388.69 75.71Z" fill="#EBEBEB"/>
</g>
<path d="M63.7002 162.58H137.7C137.7 162.58 131.16 150.68 112.12 152.41C93.9402 154.07 93.0102 146.56 83.7602 145.63C74.5102 144.7 66.7802 151.8 63.7002 162.58Z" fill="#F5F5F5"/>
<path d="M223.8 297.07H283.67C283.67 297.07 278.38 287.44 262.97 288.84C248.25 290.18 247.5 284.1 239.97 283.35C232.44 282.6 226.29 288.34 223.8 297.07Z" fill="#F5F5F5"/>
<path d="M480.15 444.82C480.15 444.96 377.15 445.08 250.01 445.08C122.87 445.08 19.8496 445 19.8496 444.82C19.8496 444.64 122.85 444.56 250.01 444.56C377.17 444.56 480.15 444.68 480.15 444.82Z" fill="#263238"/>
<path d="M455.19 145.13H309.91V242.41H455.19V145.13Z" fill="white"/>
<path d="M455.19 242.4C455.19 242.4 455.19 241.79 455.19 240.63V235.5C455.19 231 455.19 224.39 455.13 215.94C455.13 199.03 455.07 174.74 455.02 145.13L455.23 145.33L309.96 145.39L310.22 145.13C310.22 179.78 310.22 212.73 310.22 242.4L309.98 242.16L414.65 242.28L444.55 242.34H452.5H454.56H452.56H444.65L414.8 242.4L309.98 242.52H309.74V242.28C309.74 212.61 309.74 179.66 309.74 145.01V144.74H310.01L455.28 144.8H455.49V145.01C455.49 174.68 455.41 199.01 455.38 215.94C455.38 224.38 455.38 230.94 455.33 235.46C455.33 237.69 455.33 239.4 455.33 240.56C455.33 241.72 455.19 242.4 455.19 242.4Z" fill="#FF9F43"/>
<path d="M309.91 153.81C309.91 153.66 342.41 153.55 382.49 153.55C422.57 153.55 455.07 153.66 455.07 153.81C455.07 153.96 422.58 154.07 382.49 154.07C342.4 154.07 309.91 154 309.91 153.81Z" fill="#FF9F43"/>
<g opacity="0.3">
<path opacity="0.3" d="M315.64 149.43C315.64 149.662 315.571 149.889 315.442 150.081C315.313 150.274 315.13 150.424 314.915 150.512C314.701 150.6 314.465 150.623 314.238 150.577C314.011 150.531 313.802 150.419 313.639 150.254C313.476 150.089 313.365 149.88 313.321 149.652C313.277 149.425 313.302 149.189 313.392 148.976C313.482 148.762 313.633 148.58 313.827 148.453C314.021 148.325 314.248 148.258 314.48 148.26C314.633 148.26 314.785 148.291 314.926 148.35C315.067 148.408 315.196 148.495 315.304 148.604C315.411 148.712 315.497 148.841 315.554 148.983C315.612 149.125 315.641 149.277 315.64 149.43Z" fill="#FF9F43"/>
</g>
<g opacity="0.3">
<path opacity="0.3" d="M319.63 149.43C319.63 149.662 319.561 149.889 319.432 150.081C319.303 150.274 319.12 150.424 318.905 150.512C318.691 150.6 318.455 150.623 318.228 150.577C318.001 150.531 317.792 150.419 317.629 150.254C317.466 150.089 317.355 149.88 317.311 149.652C317.267 149.425 317.292 149.189 317.382 148.976C317.472 148.762 317.624 148.58 317.817 148.453C318.011 148.325 318.238 148.258 318.47 148.26C318.623 148.26 318.775 148.291 318.916 148.35C319.058 148.408 319.186 148.495 319.294 148.604C319.402 148.712 319.487 148.841 319.545 148.983C319.602 149.125 319.631 149.277 319.63 149.43Z" fill="#FF9F43"/>
</g>
<g opacity="0.3">
<path opacity="0.3" d="M323.56 149.43C323.56 149.662 323.491 149.889 323.362 150.081C323.233 150.274 323.049 150.424 322.835 150.512C322.621 150.6 322.385 150.623 322.158 150.577C321.931 150.531 321.722 150.419 321.559 150.254C321.396 150.089 321.285 149.88 321.241 149.652C321.197 149.425 321.222 149.189 321.312 148.976C321.402 148.762 321.553 148.58 321.747 148.453C321.941 148.325 322.168 148.258 322.4 148.26C322.553 148.26 322.705 148.291 322.846 148.35C322.987 148.408 323.116 148.495 323.224 148.604C323.331 148.712 323.417 148.841 323.474 148.983C323.532 149.125 323.561 149.277 323.56 149.43Z" fill="#FF9F43"/>
</g>
<path d="M361.15 163.95H322.4V202.7H361.15V163.95Z" fill="#FF9F43"/>
<path d="M435.27 174.9C435.27 175.05 420.15 175.16 401.51 175.16C382.87 175.16 367.75 175.05 367.75 174.9C367.75 174.75 382.87 174.64 401.51 174.64C420.15 174.64 435.27 174.76 435.27 174.9Z" fill="#FF9F43"/>
<path d="M435.27 182.11C435.27 182.25 420.15 182.37 401.51 182.37C382.87 182.37 367.75 182.25 367.75 182.11C367.75 181.97 382.87 181.85 401.51 181.85C420.15 181.85 435.27 182 435.27 182.11Z" fill="#FF9F43"/>
<path d="M435.27 189.31C435.27 189.45 420.15 189.57 401.51 189.57C382.87 189.57 367.75 189.45 367.75 189.31C367.75 189.17 382.87 189.05 401.51 189.05C420.15 189.05 435.27 189.16 435.27 189.31Z" fill="#FF9F43"/>
<path d="M407.66 196.51C407.141 196.591 406.615 196.625 406.09 196.61L401.81 196.69C398.2 196.74 393.21 196.77 387.71 196.77C382.21 196.77 377.21 196.77 373.6 196.69L369.32 196.61C368.795 196.625 368.269 196.591 367.75 196.51C368.269 196.429 368.795 196.395 369.32 196.41L373.6 196.33C377.21 196.28 382.2 196.25 387.71 196.25C393.22 196.25 398.2 196.25 401.81 196.33L406.09 196.41C406.615 196.395 407.141 196.429 407.66 196.51Z" fill="#FF9F43"/>
<g opacity="0.3">
<path opacity="0.3" d="M343.03 215.77H324.82V233.98H343.03V215.77Z" fill="#FF9F43"/>
</g>
<path d="M376.06 215.77H357.85V233.98H376.06V215.77Z" fill="#FF9F43"/>
<path d="M409.09 215.77H390.88V233.98H409.09V215.77Z" fill="#FF9F43"/>
<path d="M442.12 215.77H423.91V233.98H442.12V215.77Z" fill="#FF9F43"/>
<g opacity="0.3">
<path opacity="0.3" d="M361.15 163.95H322.4V202.7H361.15V163.95Z" fill="white"/>
</g>
<g opacity="0.3">
<path opacity="0.3" d="M376.06 215.77H357.85V233.98H376.06V215.77Z" fill="white"/>
</g>
<g opacity="0.3">
<path opacity="0.3" d="M409.09 215.77H390.88V233.98H409.09V215.77Z" fill="white"/>
</g>
<g opacity="0.3">
<path opacity="0.3" d="M442.12 215.77H423.91V233.98H442.12V215.77Z" fill="white"/>
</g>
<path d="M173.63 180.17H44.21V232.74H173.63V180.17Z" fill="white"/>
<path d="M173.63 232.74C173.63 232.74 173.63 232.42 173.63 231.8C173.63 231.18 173.63 230.27 173.63 229.07C173.63 226.67 173.63 223.15 173.63 218.61C173.63 209.54 173.63 196.41 173.55 180.17L173.69 180.31L44.28 180.37L44.49 180.17C44.49 198.58 44.49 216.35 44.49 232.74L44.29 232.54L137.08 232.63L164 232.69H171.21H173.07H171.25H164.09L137.22 232.74L44.29 232.83H44V180H44.21L173.62 180.07H173.77V180.21C173.77 196.49 173.71 209.64 173.69 218.74C173.69 223.26 173.69 226.74 173.69 229.17C173.69 230.35 173.69 231.25 173.69 231.87C173.69 232.49 173.63 232.74 173.63 232.74Z" fill="#FF9F43"/>
<path d="M44.3398 187.26C44.3398 187.15 73.2699 187.05 108.94 187.05C144.61 187.05 173.56 187.15 173.56 187.26C173.56 187.37 144.63 187.46 108.94 187.46C73.2499 187.46 44.3398 187.37 44.3398 187.26Z" fill="#FF9F43"/>
<g opacity="0.3">
<path opacity="0.3" d="M49.7599 184.09C49.7599 184.276 49.7048 184.458 49.6015 184.613C49.4982 184.767 49.3514 184.888 49.1796 184.959C49.0078 185.03 48.8188 185.049 48.6365 185.012C48.4542 184.976 48.2867 184.887 48.1552 184.755C48.0237 184.624 47.9342 184.456 47.8979 184.274C47.8617 184.091 47.8803 183.902 47.9514 183.731C48.0226 183.559 48.1431 183.412 48.2976 183.309C48.4522 183.206 48.634 183.15 48.8199 183.15C49.0692 183.15 49.3083 183.249 49.4846 183.426C49.6608 183.602 49.7599 183.841 49.7599 184.09Z" fill="#FF9F43"/>
</g>
<g opacity="0.3">
<path opacity="0.3" d="M53.0001 184.09C53.0001 184.276 52.945 184.458 52.8417 184.613C52.7384 184.767 52.5916 184.888 52.4198 184.959C52.2481 185.03 52.0591 185.049 51.8767 185.012C51.6944 184.976 51.5269 184.887 51.3954 184.755C51.264 184.624 51.1744 184.456 51.1382 184.274C51.1019 184.091 51.1205 183.902 51.1917 183.731C51.2628 183.559 51.3833 183.412 51.5379 183.309C51.6925 183.206 51.8742 183.15 52.0601 183.15C52.3094 183.15 52.5485 183.249 52.7248 183.426C52.9011 183.602 53.0001 183.841 53.0001 184.09Z" fill="#FF9F43"/>
</g>
<g opacity="0.3">
<path opacity="0.3" d="M56.1495 184.09C56.1495 184.276 56.0944 184.458 55.9911 184.613C55.8878 184.767 55.741 184.888 55.5693 184.959C55.3975 185.03 55.2085 185.049 55.0261 185.012C54.8438 184.976 54.6763 184.887 54.5448 184.755C54.4134 184.624 54.3239 184.456 54.2876 184.274C54.2513 184.091 54.2699 183.902 54.3411 183.731C54.4122 183.559 54.5327 183.412 54.6873 183.309C54.8419 183.206 55.0236 183.15 55.2095 183.15C55.4588 183.15 55.6979 183.249 55.8742 183.426C56.0505 183.602 56.1495 183.841 56.1495 184.09Z" fill="#FF9F43"/>
</g>
<path d="M86.47 195.8H55.21V227.06H86.47V195.8Z" fill="#FF9F43"/>
<path d="M164.68 204.18C164.68 204.29 148.59 204.39 128.75 204.39C108.91 204.39 92.8203 204.29 92.8203 204.18C92.8203 204.07 108.91 203.98 128.75 203.98C148.59 203.98 164.68 204.07 164.68 204.18Z" fill="#FF9F43"/>
<path d="M164.68 210.55C164.68 210.66 148.59 210.75 128.75 210.75C108.91 210.75 92.8203 210.66 92.8203 210.55C92.8203 210.44 108.91 210.34 128.75 210.34C148.59 210.34 164.68 210.44 164.68 210.55Z" fill="#FF9F43"/>
<path d="M139.08 216.92C138.924 216.931 138.767 216.931 138.61 216.92H137.26L132.31 216.98L115.95 217.04L99.6003 216.98L94.6003 216.92H93.2503C93.0938 216.93 92.9368 216.93 92.7803 216.92C92.9361 216.897 93.0944 216.897 93.2503 216.92H94.6003L99.6003 216.85L115.95 216.79L132.31 216.85L137.26 216.92H138.61C138.766 216.896 138.924 216.896 139.08 216.92Z" fill="#FF9F43"/>
<g opacity="0.3">
<path opacity="0.3" d="M86.47 195.8H55.21V227.06H86.47V195.8Z" fill="#F5F5F5"/>
</g>
<path d="M268.731 114.11C266.561 112.66 263.581 113.54 261.411 114.99C259.241 116.44 257.411 118.42 254.961 119.36C250.401 121.13 244.411 119.03 240.871 122.36C238.621 124.5 238.391 128.02 236.671 130.61C233.771 134.97 226.811 136.61 226.221 141.81C225.871 144.81 228.271 147.75 231.221 148.6C232.711 148.95 234.259 148.975 235.76 148.675C237.261 148.375 238.679 147.756 239.921 146.86C242.921 144.86 245.231 141.86 248.611 140.72C251.991 139.58 256.341 140.53 259.071 138.12C261.801 135.71 261.391 131.26 263.351 128.18C264.529 126.632 265.927 125.264 267.501 124.12C268.971 122.85 270.371 121.28 270.621 119.35C270.871 117.42 270.081 114.13 268.751 114.06" fill="#F5F5F5"/>
<path d="M212.38 326.56C212.51 326.49 212.91 326.89 213.29 327.46C213.67 328.03 213.88 328.57 213.76 328.65C213.64 328.73 213.24 328.33 212.85 327.75C212.46 327.17 212.26 326.64 212.38 326.56Z" fill="#263238"/>
<path d="M208.101 317.54C208.64 318.194 209.045 318.949 209.291 319.76C209.686 320.508 209.927 321.327 210.001 322.17C209.056 320.774 208.409 319.198 208.101 317.54Z" fill="#263238"/>
<path d="M205.781 307.82C206.421 309.379 206.731 311.054 206.691 312.74C206.291 311.994 206.05 311.173 205.981 310.33C205.746 309.515 205.678 308.661 205.781 307.82Z" fill="#263238"/>
<path d="M205.43 297.83C205.747 299.484 205.723 301.185 205.36 302.83C205.107 302.023 205.028 301.17 205.13 300.33C205.053 299.485 205.155 298.633 205.43 297.83Z" fill="#263238"/>
<path d="M207 288C207.081 288.843 206.989 289.694 206.73 290.5C206.63 291.34 206.365 292.153 205.95 292.89C205.87 292.047 205.962 291.196 206.22 290.39C206.322 289.55 206.587 288.738 207 288Z" fill="#263238"/>
<path d="M210.641 278.65C210.307 280.295 209.625 281.85 208.641 283.21C208.741 282.368 209.009 281.556 209.431 280.82C210.001 279.55 210.511 278.58 210.641 278.65Z" fill="#263238"/>
<path d="M216.15 270.31C215.873 271.112 215.438 271.849 214.87 272.48C214.42 273.194 213.848 273.824 213.18 274.34C213.04 274.25 213.62 273.28 214.45 272.17C215.28 271.06 216 270.22 216.15 270.31Z" fill="#263238"/>
<path d="M222.871 262.91C222.981 263.01 222.291 263.91 221.341 264.91C220.391 265.91 219.531 266.63 219.421 266.54C219.311 266.45 220.001 265.54 220.961 264.54C221.921 263.54 222.771 262.8 222.871 262.91Z" fill="#263238"/>
<path d="M229.91 255.79C230.02 255.89 229.31 256.79 228.34 257.79C227.37 258.79 226.5 259.49 226.4 259.39C226.3 259.29 227 258.39 227.97 257.39C228.94 256.39 229.81 255.69 229.91 255.79Z" fill="#263238"/>
<path d="M236.491 248.25C236.174 249.037 235.701 249.751 235.101 250.35C234.221 251.43 233.421 252.22 233.311 252.12C233.637 251.338 234.108 250.626 234.701 250.02C235.571 249 236.371 248.17 236.491 248.25Z" fill="#263238"/>
<path d="M241.591 239.67C241.501 240.518 241.213 241.333 240.751 242.05C240.433 242.842 239.937 243.551 239.301 244.12C239.495 243.297 239.833 242.515 240.301 241.81C240.607 241.029 241.043 240.305 241.591 239.67Z" fill="#263238"/>
<path d="M244 230C244.195 230.831 244.178 231.697 243.95 232.52C243.893 233.374 243.628 234.201 243.18 234.93C243.129 234.091 243.217 233.25 243.44 232.44C243.494 231.602 243.683 230.778 244 230Z" fill="#263238"/>
<path d="M243.281 220.07C243.724 220.799 243.978 221.627 244.021 222.48C244.226 223.311 244.226 224.179 244.021 225.01C243.706 224.229 243.524 223.401 243.481 222.56C243.28 221.746 243.212 220.905 243.281 220.07Z" fill="#263238"/>
<path d="M239.351 210.92C239.471 210.84 240.201 211.71 240.861 212.92C241.337 213.631 241.632 214.449 241.721 215.3C241.17 214.665 240.724 213.946 240.401 213.17C239.938 212.478 239.584 211.719 239.351 210.92Z" fill="#263238"/>
<path d="M232.38 203.82C233.195 204.076 233.936 204.525 234.54 205.13C235.61 206.03 236.31 206.93 236.21 207.03C236.11 207.13 235.21 206.41 234.21 205.53C233.21 204.65 232.29 203.94 232.38 203.82Z" fill="#263238"/>
<path d="M223.29 199.76C224.142 199.708 224.994 199.866 225.77 200.22C226.605 200.413 227.378 200.812 228.02 201.38C227.183 201.286 226.366 201.06 225.6 200.71C224.782 200.527 224.001 200.206 223.29 199.76Z" fill="#263238"/>
<path d="M213.351 199.31C214.116 198.928 214.966 198.749 215.821 198.79C216.669 198.665 217.536 198.754 218.341 199.05C217.528 199.261 216.689 199.349 215.851 199.31C215.022 199.441 214.179 199.441 213.351 199.31Z" fill="#263238"/>
<path d="M204.13 203C204.04 202.88 204.9 202.13 206.13 201.47C206.839 200.985 207.664 200.698 208.52 200.64C207.869 201.167 207.145 201.599 206.37 201.92C205.682 202.39 204.927 202.754 204.13 203Z" fill="#263238"/>
<path d="M197.261 210.18C197.478 209.351 197.901 208.591 198.491 207.97C199.341 206.86 200.221 206.13 200.321 206.23C200.421 206.33 199.731 207.23 198.901 208.29C198.071 209.35 197.381 210.25 197.261 210.18Z" fill="#263238"/>
<path d="M193.89 219.52C193.733 218.678 193.798 217.809 194.08 217C194.206 216.147 194.551 215.341 195.08 214.66C195.049 215.499 194.89 216.329 194.61 217.12C194.495 217.952 194.252 218.762 193.89 219.52Z" fill="#263238"/>
<path d="M195.08 229.37C194.551 228.689 194.206 227.883 194.08 227.03C193.793 226.222 193.724 225.353 193.88 224.51C194.227 225.273 194.466 226.081 194.59 226.91C194.872 227.702 195.037 228.53 195.08 229.37Z" fill="#263238"/>
<path d="M200.15 237.93C200.04 238.03 199.21 237.25 198.4 236.11C197.835 235.469 197.433 234.701 197.23 233.87C197.36 233.8 198.02 234.7 198.82 235.81C199.376 236.439 199.826 237.156 200.15 237.93Z" fill="#263238"/>
<path d="M207.51 244.68C206.703 244.409 205.967 243.957 205.36 243.36C204.27 242.49 203.52 241.64 203.62 241.53C204.384 241.885 205.08 242.369 205.68 242.96C206.75 243.82 207.6 244.56 207.51 244.68Z" fill="#263238"/>
<path d="M216.181 249.65C214.551 249.215 213.031 248.442 211.721 247.38C212.555 247.523 213.354 247.829 214.071 248.28C214.859 248.589 215.577 249.055 216.181 249.65Z" fill="#263238"/>
<path d="M225.701 252.68C224.852 252.777 223.992 252.674 223.191 252.38C222.346 252.255 221.544 251.929 220.851 251.43C221.693 251.443 222.528 251.595 223.321 251.88C224.155 252.004 224.961 252.275 225.701 252.68Z" fill="#263238"/>
<path d="M235.66 253.19C234.035 253.689 232.304 253.724 230.66 253.29C231.472 253.075 232.314 253.001 233.15 253.07C233.988 252.971 234.836 253.011 235.66 253.19Z" fill="#263238"/>
<path d="M245.28 250.62C243.906 251.619 242.275 252.205 240.58 252.31C241.285 251.85 242.063 251.512 242.88 251.31C243.635 250.945 244.447 250.711 245.28 250.62Z" fill="#263238"/>
<path d="M253.62 245.15C253.72 245.26 252.96 246.15 251.85 246.95C251.229 247.533 250.479 247.962 249.66 248.2C249.58 248.07 250.45 247.38 251.54 246.54C252.155 245.969 252.858 245.5 253.62 245.15Z" fill="#263238"/>
<path d="M260.13 237.59C259.899 238.41 259.478 239.164 258.9 239.79C258.07 240.91 257.24 241.68 257.13 241.59C257.02 241.5 257.67 240.59 258.49 239.48C259.31 238.37 260 237.51 260.13 237.59Z" fill="#263238"/>
<path d="M264.461 228.59C264.458 229.444 264.249 230.284 263.851 231.04C263.331 232.34 262.721 233.3 262.591 233.23C262.711 232.399 262.972 231.594 263.361 230.85C263.601 230.041 263.973 229.278 264.461 228.59Z" fill="#263238"/>
<path d="M266.4 218.8C266.617 220.481 266.382 222.19 265.72 223.75C265.692 222.075 265.922 220.405 266.4 218.8Z" fill="#263238"/>
<path d="M266.14 208.81C266.466 209.591 266.623 210.433 266.6 211.28C266.744 212.116 266.72 212.973 266.53 213.8C266.061 212.177 265.928 210.476 266.14 208.8V208.81Z" fill="#263238"/>
<path d="M264 199.05C264.464 199.761 264.774 200.562 264.91 201.4C265.211 202.191 265.347 203.035 265.31 203.88C264.852 203.166 264.542 202.366 264.4 201.53C264.099 200.739 263.962 199.895 264 199.05Z" fill="#263238"/>
<path d="M260.141 189.81C260.271 189.74 260.871 190.7 261.471 191.95C261.894 192.687 262.159 193.504 262.251 194.35C261.293 192.968 260.579 191.433 260.141 189.81Z" fill="#263238"/>
<path d="M255.221 181.1C255.351 181.02 256.011 181.93 256.711 183.1C257.197 183.787 257.537 184.566 257.711 185.39C257.088 184.827 256.582 184.148 256.221 183.39C255.742 182.699 255.403 181.921 255.221 181.1Z" fill="#263238"/>
<path d="M250.261 172.41C250.391 172.34 251.031 173.27 251.701 174.47C252.184 175.17 252.524 175.958 252.701 176.79C252.088 176.202 251.599 175.498 251.261 174.72C250.772 174.027 250.431 173.241 250.261 172.41Z" fill="#263238"/>
<path d="M246.351 163.21C247.256 164.634 247.852 166.231 248.101 167.9C247.571 167.234 247.19 166.464 246.981 165.64C246.608 164.881 246.393 164.054 246.351 163.21Z" fill="#263238"/>
<path d="M244.65 153.38C244.944 154.17 245.093 155.007 245.09 155.85C245.264 156.672 245.294 157.518 245.18 158.35C244.786 157.593 244.58 156.753 244.58 155.9C244.407 155.066 244.431 154.203 244.65 153.38Z" fill="#263238"/>
<path d="M245.481 143.43C245.56 144.268 245.499 145.113 245.301 145.93C245.265 146.773 245.079 147.603 244.751 148.38C244.557 147.548 244.557 146.682 244.751 145.85C244.8 144.997 245.05 144.168 245.481 143.43Z" fill="#263238"/>
<path d="M248.741 134C248.613 134.834 248.343 135.639 247.941 136.38C247.693 137.185 247.31 137.942 246.811 138.62C247.023 136.933 247.69 135.336 248.741 134Z" fill="#263238"/>
<path d="M254.31 125.71C254.42 125.81 253.76 126.71 252.92 127.8C252.08 128.89 251.37 129.8 251.25 129.67C251.487 128.849 251.92 128.098 252.51 127.48C253.36 126.38 254.21 125.62 254.31 125.71Z" fill="#263238"/>
<path d="M261.82 119.13C261.9 119.25 261.03 119.96 259.95 120.8C259.337 121.378 258.631 121.848 257.86 122.19C257.76 122.08 258.53 121.19 259.63 120.39C260.251 119.804 261.002 119.372 261.82 119.13Z" fill="#263238"/>
<path d="M270.721 114.61C270.047 115.116 269.293 115.504 268.491 115.76C267.758 116.172 266.96 116.453 266.131 116.59C266.061 116.46 267.011 115.84 268.291 115.29C269.033 114.869 269.867 114.636 270.721 114.61Z" fill="#263238"/>
<path d="M278 112.77C278 112.91 277.49 113.13 276.82 113.25C276.15 113.37 275.57 113.37 275.54 113.25C275.51 113.13 276.04 112.89 276.72 112.76C277.4 112.63 278 112.63 278 112.77Z" fill="#263238"/>
<path d="M298.381 83.33C298.381 83.33 310.121 74.95 326.381 80.33C326.381 80.33 327.711 93.79 314.681 104.49" fill="#FF9F43"/>
<path d="M261.351 108.19C261.851 108.94 274.601 129.43 274.601 129.43L312.871 105.85C314.45 104.877 315.81 103.586 316.865 102.059C317.92 100.533 318.646 98.8035 318.997 96.9817C319.349 95.1598 319.318 93.2848 318.908 91.4753C318.497 89.6659 317.714 87.9615 316.611 86.4702C314.559 83.702 311.52 81.8309 308.125 81.2461C304.73 80.6613 301.24 81.4077 298.381 83.3302L261.351 108.19Z" fill="#FF9F43"/>
<path d="M274.6 129.43L273.74 143.85C273.74 143.85 298.54 131.85 292.35 118.49L274.6 129.43Z" fill="#263238"/>
<path d="M279.081 96.29C279.081 96.29 262.261 88.87 248.421 99.75L261.351 108.19L279.081 96.29Z" fill="#263238"/>
<path d="M279 108.2L255.07 123.2C255.07 123.2 255.89 125.78 256.53 125.56C257.17 125.34 275.06 114.76 280.89 111.31C281.113 111.178 281.305 110.998 281.452 110.785C281.599 110.571 281.698 110.329 281.743 110.073C281.788 109.818 281.777 109.556 281.711 109.305C281.644 109.054 281.525 108.821 281.36 108.62C281.086 108.274 280.694 108.041 280.26 107.964C279.825 107.886 279.377 107.97 279 108.2Z" fill="#263238"/>
<path d="M308.473 98.607C309.442 94.489 306.889 90.3652 302.771 89.3963C298.653 88.4274 294.529 90.9802 293.56 95.0983C292.591 99.2163 295.144 103.34 299.262 104.309C303.38 105.278 307.504 102.725 308.473 98.607Z" fill="#FAFAFA"/>
<path d="M308.671 96.85C308.611 96.85 308.671 96.17 308.331 95.01C307.884 93.3678 306.898 91.9236 305.531 90.91C304.602 90.2132 303.524 89.744 302.381 89.54C301.074 89.307 299.728 89.4243 298.481 89.88C297.087 90.3736 295.874 91.2762 295.001 92.47C294.065 93.7387 293.561 95.2736 293.561 96.85C293.561 98.4264 294.065 99.9613 295.001 101.23C295.865 102.418 297.062 103.322 298.441 103.83C299.688 104.285 301.034 104.402 302.341 104.17C303.484 103.966 304.562 103.497 305.491 102.8C306.856 101.784 307.841 100.341 308.291 98.7C308.601 97.54 308.571 96.85 308.631 96.85C308.657 97.0157 308.657 97.1844 308.631 97.35C308.628 97.8216 308.571 98.2914 308.461 98.75C308.122 100.206 307.368 101.533 306.291 102.569C305.214 103.606 303.859 104.308 302.391 104.59C300.93 104.876 299.418 104.74 298.031 104.198C296.644 103.656 295.441 102.731 294.561 101.53C293.554 100.177 293.011 98.5361 293.011 96.85C293.011 95.1639 293.554 93.5227 294.561 92.17C295.486 90.9055 296.773 89.9503 298.251 89.43C299.49 88.981 300.823 88.8547 302.125 89.0629C303.426 89.271 304.653 89.8069 305.691 90.62C307.123 91.7007 308.129 93.2515 308.531 95C308.641 95.4586 308.698 95.9284 308.701 96.4C308.713 96.5507 308.703 96.7024 308.671 96.85Z" fill="#263238"/>
<path d="M318.001 102C317.901 102 317.791 100.51 317.201 98.1802C316.852 96.8173 316.407 95.4807 315.871 94.1802C314.538 91.0055 312.656 88.0908 310.311 85.5702C309.35 84.5447 308.317 83.5889 307.221 82.7102C305.331 81.2202 304.021 80.5002 304.071 80.4102C304.404 80.5219 304.723 80.673 305.021 80.8602C305.388 81.0509 305.746 81.2612 306.091 81.4902C306.491 81.7602 306.961 82.0402 307.441 82.4202C308.59 83.266 309.664 84.2095 310.651 85.2402C313.094 87.7605 315.017 90.7371 316.311 94.0002C316.839 95.3267 317.257 96.6947 317.561 98.0901C317.711 98.6801 317.771 99.2302 317.851 99.7102C317.917 100.117 317.96 100.528 317.981 100.94C318.038 101.291 318.045 101.648 318.001 102Z" fill="#263238"/>
<path d="M315.94 103.06C315.84 103.06 315.72 101.55 315.12 99.1798C314.764 97.797 314.313 96.4404 313.77 95.1198C313.088 93.5093 312.275 91.9575 311.34 90.4798C310.387 89.0158 309.316 87.6313 308.14 86.3398C307.165 85.2892 306.115 84.31 305 83.4098C303.09 81.8798 301.76 81.1398 301.81 81.0498C302.161 81.1648 302.497 81.3226 302.81 81.5198C303.18 81.7145 303.537 81.9315 303.88 82.1698C304.29 82.4398 304.77 82.7398 305.25 83.1698C306.402 84.0269 307.486 84.9732 308.49 85.9998C309.71 87.2954 310.811 88.6977 311.78 90.1898C312.727 91.6958 313.54 93.2819 314.21 94.9298C314.745 96.2798 315.17 97.671 315.48 99.0898C315.63 99.6898 315.69 100.25 315.77 100.73C315.844 101.143 315.89 101.561 315.91 101.98C315.96 102.338 315.97 102.7 315.94 103.06Z" fill="#263238"/>
<path d="M81.8401 421C80.9801 417.6 83.2302 414.2 85.7402 411.75C88.2502 409.3 91.2402 407.11 92.5602 403.86C94.6902 398.6 91.9002 391.75 95.5602 387.37C97.6801 384.79 101.48 383.95 103.36 381.19C104.236 379.668 104.82 377.996 105.08 376.26C107.124 367.503 111.482 359.456 117.7 352.96C118.088 360.77 116.36 368.54 112.7 375.45C111.23 378.21 109.43 380.9 108.94 383.99C108.12 388.99 110.94 394.18 109.64 399.1C108.19 404.72 101.85 408.46 101.51 414.25C101.23 419.16 105.51 423.48 105.13 428.38C104.867 430.462 104.109 432.451 102.92 434.18C99.0002 440.43 93.4302 444.74 85.0002 444.55L74.6602 444.85L81.8401 421Z" fill="#FF9F43"/>
<g opacity="0.3">
<path opacity="0.3" d="M81.8401 421C80.9801 417.6 83.2302 414.2 85.7402 411.75C88.2502 409.3 91.2402 407.11 92.5602 403.86C94.6902 398.6 91.9002 391.75 95.5602 387.37C97.6801 384.79 101.48 383.95 103.36 381.19C104.236 379.668 104.82 377.996 105.08 376.26C107.124 367.503 111.482 359.456 117.7 352.96C118.088 360.77 116.36 368.54 112.7 375.45C111.23 378.21 109.43 380.9 108.94 383.99C108.12 388.99 110.94 394.18 109.64 399.1C108.19 404.72 101.85 408.46 101.51 414.25C101.23 419.16 105.51 423.48 105.13 428.38C104.867 430.462 104.109 432.451 102.92 434.18C99.0002 440.43 93.4302 444.74 85.0002 444.55L74.6602 444.85L81.8401 421Z" fill="black"/>
</g>
<path d="M72.5598 445.11C71.6126 445.253 70.6475 445.226 69.7098 445.03C68.5674 444.855 67.4451 444.567 66.3598 444.17C64.8627 443.636 63.4639 442.859 62.2198 441.87C61.4736 441.264 60.8923 440.48 60.5298 439.59C60.2233 438.588 60.065 437.547 60.0598 436.5C60.0443 435.38 59.9709 434.262 59.8398 433.15C59.6447 431.969 59.2201 430.837 58.5898 429.82C57.3898 427.67 55.3698 425.64 54.7398 422.72C54.1098 419.8 54.5698 416.72 55.0698 413.67C55.5698 410.62 56.0698 407.19 54.8798 403.95C53.6898 400.71 51.5398 397.78 50.4298 394.13C49.3198 390.48 49.8698 386.49 49.6498 382.58C49.5927 380.596 49.1477 378.642 48.3398 376.83C47.5098 375 46.3398 373.27 45.4698 371.34C43.6598 367.43 43.3598 363.02 42.8798 358.69C42.6498 356.51 42.4098 354.3 42.1798 352.08C42.0377 349.84 41.6623 347.621 41.0598 345.46C40.3779 343.277 39.5665 341.136 38.6298 339.05C38.1426 337.968 37.7478 336.848 37.4498 335.7C37.2796 334.52 37.1728 333.331 37.1298 332.14C37.0319 329.752 37.139 327.36 37.4498 324.99C37.7398 322.61 38.1898 320.24 38.4498 317.85C38.4498 317.71 38.4498 317.57 38.4498 317.44L38.4998 316.97L38.9198 317.18C41.1087 318.305 43.0054 319.924 44.4598 321.91C45.8831 323.845 47.0245 325.973 47.8498 328.23C49.5498 332.68 50.1398 337.34 50.9898 341.78C51.8398 346.22 52.9098 350.61 55.1598 354.31C56.2898 356.16 57.6498 357.85 58.8398 359.65C60.1055 361.407 60.9692 363.421 61.3698 365.55C61.9498 369.93 59.5198 373.76 59.9998 377.63C60.2498 379.536 60.9044 381.367 61.9198 383C62.8498 384.66 63.9198 386.19 64.9798 387.74C66.0428 389.244 66.9634 390.845 67.7298 392.52C68.4615 394.163 68.8917 395.924 68.9998 397.72C69.2298 401.21 68.7198 404.51 68.9998 407.64C69.2662 410.613 70.1157 413.505 71.4998 416.15C72.7298 418.7 74.1098 421.01 75.2598 423.24C75.8338 424.315 76.3511 425.42 76.8098 426.55C77.2229 427.605 77.5213 428.701 77.6998 429.82C77.9842 431.776 77.9842 433.763 77.6998 435.72C77.4138 438.452 76.3753 441.052 74.6998 443.23C74.4476 443.555 74.1665 443.856 73.8598 444.13C73.6553 444.345 73.4272 444.536 73.1798 444.7L72.5898 445.11C73.3264 444.517 73.997 443.846 74.5898 443.11C76.1948 440.929 77.1796 438.355 77.4398 435.66C77.684 433.725 77.6503 431.765 77.3398 429.84C77.1539 428.744 76.8522 427.672 76.4398 426.64C76.0098 425.57 75.4398 424.49 74.8898 423.38C73.7198 421.17 72.3298 418.87 71.0698 416.3C69.6466 413.611 68.7665 410.668 68.4798 407.64C68.2198 404.45 68.7198 401.14 68.4798 397.73C68.3735 396.004 67.9604 394.311 67.2598 392.73C66.4981 391.087 65.5876 389.517 64.5398 388.04C63.5398 386.5 62.3998 384.96 61.4398 383.27C60.4054 381.561 59.7442 379.652 59.4998 377.67C59.0298 373.54 61.4398 369.67 60.8398 365.62C60.4454 363.588 59.6052 361.668 58.3798 360C57.2098 358.23 55.8398 356.54 54.6798 354.65C52.3598 350.84 51.2398 346.38 50.4098 341.91C49.5798 337.44 48.9598 332.83 47.2898 328.47C46.4869 326.274 45.3758 324.203 43.9898 322.32C42.5967 320.421 40.7826 318.87 38.6898 317.79L39.1698 317.52L39.1198 317.94C38.8398 320.36 38.3998 322.73 38.1198 325.08C37.8092 327.416 37.7022 329.775 37.7998 332.13C37.8598 333.28 37.9298 334.49 38.0998 335.58C38.3961 336.684 38.7772 337.764 39.2398 338.81C40.1876 340.919 41.0091 343.083 41.6998 345.29C42.3009 347.482 42.6729 349.731 42.8098 352C43.0498 354.22 43.2798 356.43 43.5098 358.61C43.9798 362.96 44.2798 367.3 46.0198 371.07C46.8898 372.95 48.0198 374.68 48.8798 376.58C49.717 378.473 50.1789 380.511 50.2398 382.58C50.4398 386.58 49.8998 390.47 50.9598 394.01C52.0198 397.55 54.2498 400.47 55.3698 403.82C56.4898 407.17 56.0398 410.68 55.5298 413.77C55.0198 416.86 54.5298 419.91 55.1498 422.66C55.7698 425.41 57.6798 427.46 58.9098 429.66C59.5552 430.719 59.9867 431.894 60.1798 433.12C60.3084 434.245 60.3751 435.377 60.3798 436.51C60.3699 437.525 60.5114 438.536 60.7998 439.51C61.1406 440.36 61.6869 441.112 62.3898 441.7C63.5891 442.679 64.9402 443.456 66.3898 444C67.4572 444.413 68.5625 444.721 69.6898 444.92C70.3834 445.045 71.0853 445.119 71.7898 445.14C72.3098 445.1 72.5598 445.11 72.5598 445.11Z" fill="#263238"/>
<path d="M40.5899 323.15C40.636 323.249 40.6696 323.353 40.6898 323.46C40.7398 323.71 40.8199 324.01 40.9099 324.39C41.1099 325.21 41.3399 326.44 41.7199 327.98C42.0999 329.52 43.0499 331.25 43.8399 333.39C44.6299 335.53 45.4899 337.97 46.2499 340.73C47.0099 343.49 47.7098 346.56 48.4198 349.84C49.0239 353.362 50.1179 356.781 51.6698 360C52.5098 361.68 53.4499 363.39 54.1999 365.25C54.9318 367.161 55.4223 369.157 55.6599 371.19C56.1562 375.398 56.8739 379.577 57.8099 383.71C59.8099 392.19 61.8099 400.27 63.5199 407.63C65.2299 414.99 66.9398 421.57 68.3098 427.14C69.6798 432.71 70.7199 437.14 71.4799 440.3L72.3098 443.89C72.3898 444.27 72.4599 444.58 72.5099 444.83C72.5209 444.936 72.5209 445.044 72.5099 445.15C72.459 445.052 72.422 444.948 72.3999 444.84L72.1298 443.92C71.8998 443.06 71.5798 441.87 71.1298 440.36L67.7499 427.25C66.3499 421.69 64.6799 415.09 62.8299 407.78C60.9799 400.47 59.1099 392.34 57.0599 383.85C56.1486 379.686 55.4609 375.477 54.9999 371.24C54.7823 369.255 54.3118 367.306 53.5998 365.44C52.8798 363.63 51.9499 361.93 51.1099 360.23C49.5646 356.986 48.4775 353.543 47.8799 350C47.1899 346.71 46.5399 343.65 45.7998 340.9C45.0598 338.15 44.2799 335.68 43.4899 333.56C42.6999 331.44 41.8499 329.67 41.4899 328.08C41.1299 326.49 40.9499 325.29 40.7999 324.46C40.7299 324.08 40.6799 323.76 40.6399 323.51C40.6063 323.393 40.5894 323.272 40.5899 323.15Z" fill="#263238"/>
<path d="M70.7297 445.13C63.9997 441.08 62.1297 428.89 64.9897 421.57C67.8497 414.25 72.8197 407.57 73.6197 399.77C74.2397 393.77 72.3097 387.59 73.7397 381.77C75.6797 373.85 83.4497 367.77 83.4097 359.61C83.4097 355.04 80.8097 350.72 81.0397 346.15C81.3297 340.55 85.6497 336.15 88.3397 331.21C92.4597 323.68 92.7797 314.75 94.2197 306.29C95.6597 297.83 98.9397 288.77 106.47 284.65C107.54 291.85 109.41 296.79 108.76 306.53C108.52 310.02 104.42 316.7 103.82 324.36C103.47 328.94 103.21 333.53 102.91 338.12C102.61 342.71 102.29 347.12 100.67 351.29C99.4297 354.48 97.4397 357.37 96.5097 360.67C94.7597 366.88 96.9797 373.62 95.5097 379.91C94.3097 385.24 90.5897 389.81 89.7997 395.21C88.6997 402.81 93.5697 410.73 91.0097 417.97C89.7397 421.56 86.7697 424.43 85.9097 428.14C85.2397 431.02 85.9097 434.07 85.3297 436.96C84.3297 441.62 75.4297 445.19 70.6797 444.88" fill="#FF9F43"/>
<path d="M104.569 291.73C104.583 291.866 104.583 292.004 104.569 292.14C104.569 292.44 104.479 292.83 104.409 293.32C104.249 294.32 104.069 295.88 103.709 297.85C103.349 299.82 102.279 302.06 101.449 304.74C100.619 307.42 99.6994 310.51 98.9194 313.98C98.1394 317.45 97.4694 321.27 96.7694 325.39C96.0694 329.51 95.2994 334 93.2294 338.29C92.2294 340.44 91.2294 342.6 90.3894 344.89C89.599 347.25 89.1052 349.698 88.9194 352.18C88.5143 357.454 87.8233 362.701 86.8494 367.9C84.7194 378.54 82.6994 388.68 80.8494 397.9L75.6894 422.34C74.1994 429.26 72.9894 434.87 72.1494 438.8C71.7194 440.71 71.3894 442.21 71.1494 443.27L70.8794 444.43C70.8515 444.563 70.8114 444.694 70.7594 444.82C70.7482 444.687 70.7482 444.553 70.7594 444.42C70.8194 444.12 70.8894 443.73 70.9694 443.24C71.1794 442.17 71.4694 440.67 71.8494 438.75C72.6394 434.81 73.7794 429.18 75.1794 422.24C76.5794 415.3 78.3094 406.97 80.1794 397.77L86.1794 367.77C87.144 362.59 87.835 357.363 88.2494 352.11C88.4417 349.576 88.9524 347.076 89.7694 344.67C90.5994 342.33 91.6894 340.16 92.6494 338.03C94.7094 333.81 95.4494 329.39 96.1994 325.28C96.9494 321.17 97.6194 317.28 98.4494 313.86C99.2794 310.44 100.169 307.3 101.079 304.62C101.989 301.94 103.019 299.71 103.429 297.78C103.839 295.85 104.059 294.31 104.259 293.29C104.349 292.8 104.429 292.42 104.479 292.12C104.499 291.988 104.529 291.857 104.569 291.73Z" fill="#263238"/>
<path d="M409.44 287.76H402.47V310.28H409.44V287.76Z" fill="#FF9F43"/>
<path d="M422.27 278.49H415.3V310.27H422.27V278.49Z" fill="#FF9F43"/>
<path d="M435.92 274.16H428.95V310.27H435.92V274.16Z" fill="#FF9F43"/>
<path d="M449.579 269.6H442.609V310.28H449.579V269.6Z" fill="#FF9F43"/>
<path d="M167.52 317C168.042 317.073 168.549 317.232 169.02 317.47C170.126 318.01 171.053 318.857 171.69 319.911C172.327 320.964 172.646 322.179 172.61 323.41C172.579 324.57 172.233 325.701 171.61 326.68C170.918 327.768 169.919 328.628 168.74 329.15C167.473 329.713 166.058 329.852 164.705 329.548C163.352 329.244 162.134 328.511 161.23 327.46C160.812 326.966 160.474 326.409 160.23 325.81C159.97 325.24 159.805 324.632 159.74 324.01C159.595 322.856 159.764 321.685 160.23 320.62C160.718 319.49 161.525 318.526 162.551 317.846C163.577 317.166 164.779 316.799 166.01 316.79C166.538 316.77 167.065 316.841 167.57 317C167.57 317 167.01 316.89 166.02 316.93C164.609 316.986 163.259 317.518 162.19 318.44C161.453 319.063 160.874 319.851 160.5 320.74C160.075 321.76 159.927 322.874 160.07 323.97C160.143 324.557 160.305 325.131 160.55 325.67C160.797 326.24 161.134 326.767 161.55 327.23C162.409 328.217 163.562 328.904 164.839 329.19C166.116 329.476 167.451 329.346 168.65 328.82C169.222 328.576 169.749 328.238 170.21 327.82C170.667 327.437 171.062 326.985 171.38 326.48C171.845 325.749 172.154 324.93 172.286 324.074C172.418 323.218 172.37 322.343 172.147 321.506C171.923 320.67 171.528 319.888 170.986 319.212C170.444 318.536 169.768 317.98 169 317.58C168.07 317.11 167.51 317 167.52 317Z" fill="#263238"/>
<path d="M172.6 310.19C172.595 310.117 172.595 310.043 172.6 309.97C172.6 309.8 172.6 309.58 172.6 309.29C172.6 308.67 172.6 307.78 172.6 306.62L172.65 306.68L166.88 305.42L166.98 305.37L165.46 308.6V308.66H165.39C164.112 308.716 162.848 308.941 161.63 309.33H161.56L161.51 309.28L158.97 306.77H159L154 309.95L154.06 309.78L155.26 313.14V313.22L155.2 313.29C154.337 314.23 153.601 315.279 153.01 316.41V316.49H153H149.44L149.59 316.36C149.19 318.17 148.75 320.12 148.31 322.12L148.22 321.93L151.44 323.46L151.53 323.51V323.61C151.586 324.883 151.805 326.143 152.18 327.36V327.46L152.1 327.54L149.58 330.07V329.85L152.74 334.85L152.53 334.77L155.89 333.57H156L156.08 333.64C157.01 334.506 158.053 335.243 159.18 335.83C159.23 335.9 159.09 335.67 159.28 335.99V339.55L159.14 339.37L164.9 340.67L164.7 340.77C165.21 339.68 165.7 338.61 166.23 337.54L166.28 337.45H166.39C167.66 337.402 168.918 337.183 170.13 336.8H170.24L170.31 336.87L172.84 339.4H172.62L177.62 336.25L177.55 336.44C177.14 335.3 176.75 334.18 176.35 333.08V332.99L176.42 332.91C177.288 331.975 178.028 330.93 178.62 329.8V329.72H182.28L182.14 329.84C182.6 327.84 183.03 325.9 183.44 324.07L183.52 324.23L180.3 322.69H180.23V322.61C180.186 321.334 179.971 320.069 179.59 318.85V318.78V318.73L182.12 316.2V316.34L178.98 311.34H179.08L175.71 312.51C175.002 311.854 174.236 311.265 173.42 310.75L172.8 310.38L172.6 310.25L172.82 310.35L173.45 310.69C174.284 311.189 175.068 311.768 175.79 312.42H175.73L179.08 311.2H179.14V311.26L182.32 316.26V316.33L182.26 316.4L179.75 318.93V318.81C180.146 320.05 180.372 321.339 180.42 322.64L180.35 322.53L183.58 324.05L183.68 324.1V324.21C183.28 326.03 182.85 327.94 182.4 329.97V330.09H178.71L178.85 330.01C178.248 331.165 177.494 332.234 176.61 333.19V333.03C177 334.13 177.41 335.25 177.81 336.39L177.86 336.52L177.74 336.59L172.74 339.75L172.62 339.83L172.52 339.73L169.99 337.21H170.17C168.926 337.605 167.634 337.83 166.33 337.88L166.48 337.78C165.98 338.84 165.48 339.92 164.95 341L164.89 341.13H164.75L158.99 339.84H158.85V336C159.04 336.32 158.85 336.09 158.95 336.16C157.794 335.56 156.724 334.806 155.77 333.92H155.95L152.59 335.11L152.45 335.16L152.38 335.04L149.22 330.04L149.14 329.92L149.24 329.82L151.76 327.29V327.47C151.369 326.225 151.143 324.934 151.09 323.63L151.19 323.77L148 322.29L147.88 322.23V322.1L149.18 316.34V316.21H153L152.87 316.29C153.471 315.138 154.224 314.071 155.11 313.12V313.27L153.92 309.9V309.79L154.02 309.73L159.02 306.58L159.11 306.53L159.19 306.6L161.71 309.13H161.59C162.828 308.743 164.113 308.524 165.41 308.48L165.32 308.54L166.87 305.32V305.25H166.94L172.69 306.58H172.74C172.74 307.73 172.74 308.58 172.74 309.23C172.74 309.52 172.74 309.75 172.74 309.91C172.7 310.007 172.653 310.1 172.6 310.19Z" fill="#263238"/>
<path fill-rule="evenodd" clip-rule="evenodd" d="M161.72 265.33C162.983 265.99 164.153 266.813 165.2 267.78L168.92 266.46L172.41 271.97L169.63 274.77C170.057 276.132 170.302 277.544 170.36 278.97L173.92 280.66L172.49 287H168.55C167.887 288.263 167.06 289.433 166.09 290.48L167.42 294.2L161.9 297.69L159.1 295C157.742 295.425 156.333 295.671 154.91 295.73L153.22 299.29L146.85 297.86V293.92C145.586 293.259 144.416 292.431 143.37 291.46L139.65 292.79L136.15 287.27L138.94 284.48C138.516 283.118 138.27 281.706 138.21 280.28L134.65 278.59L136.07 272.22H140C140.658 270.956 141.482 269.785 142.45 268.74L141.14 265L146.65 261.5L149.45 264.29C150.812 263.864 152.224 263.618 153.65 263.56L155.34 260L161.71 261.43V265.37L161.72 265.33ZM156.1 272.83C154.75 272.528 153.34 272.633 152.049 273.131C150.758 273.63 149.644 274.501 148.847 275.632C148.051 276.764 147.607 278.107 147.574 279.49C147.54 280.874 147.917 282.237 148.658 283.406C149.398 284.575 150.468 285.499 151.734 286.06C152.999 286.621 154.402 286.795 155.766 286.558C157.129 286.322 158.393 285.687 159.395 284.734C160.398 283.78 161.096 282.55 161.4 281.2C161.603 280.302 161.626 279.374 161.469 278.467C161.312 277.56 160.978 276.694 160.486 275.916C159.993 275.139 159.353 274.466 158.6 273.937C157.848 273.407 156.998 273.031 156.1 272.83Z" fill="#FF9F43"/>
<g opacity="0.8">
<path opacity="0.8" fill-rule="evenodd" clip-rule="evenodd" d="M161.72 265.33C162.983 265.99 164.153 266.813 165.2 267.78L168.92 266.46L172.41 271.97L169.63 274.77C170.057 276.132 170.302 277.544 170.36 278.97L173.92 280.66L172.49 287H168.55C167.887 288.263 167.06 289.433 166.09 290.48L167.42 294.2L161.9 297.69L159.1 295C157.742 295.425 156.333 295.671 154.91 295.73L153.22 299.29L146.85 297.86V293.92C145.586 293.259 144.416 292.431 143.37 291.46L139.65 292.79L136.15 287.27L138.94 284.48C138.516 283.118 138.27 281.706 138.21 280.28L134.65 278.59L136.07 272.22H140C140.658 270.956 141.482 269.785 142.45 268.74L141.14 265L146.65 261.5L149.45 264.29C150.812 263.864 152.224 263.618 153.65 263.56L155.34 260L161.71 261.43V265.37L161.72 265.33ZM156.1 272.83C154.75 272.528 153.34 272.633 152.049 273.131C150.758 273.63 149.644 274.501 148.847 275.632C148.051 276.764 147.607 278.107 147.574 279.49C147.54 280.874 147.917 282.237 148.658 283.406C149.398 284.575 150.468 285.499 151.734 286.06C152.999 286.621 154.402 286.795 155.766 286.558C157.129 286.322 158.393 285.687 159.395 284.734C160.398 283.78 161.096 282.55 161.4 281.2C161.603 280.302 161.626 279.374 161.469 278.467C161.312 277.56 160.978 276.694 160.486 275.916C159.993 275.139 159.353 274.466 158.6 273.937C157.848 273.407 156.998 273.031 156.1 272.83Z" fill="white"/>
</g>
<path fill-rule="evenodd" clip-rule="evenodd" d="M138.68 302.87C139.406 303.253 140.079 303.73 140.68 304.29L142.85 303.52L144.85 306.73L143.23 308.36C143.48 309.151 143.624 309.971 143.66 310.8L145.73 311.8L145 315.5H142.7C142.315 316.225 141.838 316.898 141.28 317.5L142.05 319.66L138.83 321.66L137.21 320.04C136.415 320.286 135.591 320.427 134.76 320.46L133.76 322.54L130.05 321.7V319.41C129.322 319.025 128.649 318.544 128.05 317.98L125.88 318.75L123.88 315.54L125.5 313.91C125.254 313.119 125.112 312.298 125.08 311.47L123 310.47L123.83 306.76H126C126.389 306.035 126.87 305.363 127.43 304.76L126.66 302.6L129.87 300.6L131.5 302.23C132.29 301.975 133.111 301.831 133.94 301.8L134.94 299.73L138.65 300.56V302.86L138.68 302.87ZM135.41 307.23C134.623 307.052 133.8 307.111 133.046 307.4C132.292 307.69 131.641 308.196 131.176 308.856C130.71 309.515 130.45 310.298 130.43 311.105C130.409 311.912 130.629 312.708 131.06 313.39C131.492 314.072 132.116 314.611 132.854 314.939C133.592 315.266 134.411 315.367 135.206 315.229C136.002 315.091 136.739 314.72 137.323 314.163C137.908 313.606 138.314 312.888 138.49 312.1C138.726 311.046 138.534 309.941 137.957 309.028C137.379 308.115 136.463 307.469 135.41 307.23Z" fill="#FF9F43"/>
<g opacity="0.4">
<path opacity="0.4" fill-rule="evenodd" clip-rule="evenodd" d="M138.68 302.87C139.406 303.253 140.079 303.73 140.68 304.29L142.85 303.52L144.85 306.73L143.23 308.36C143.48 309.151 143.624 309.971 143.66 310.8L145.73 311.8L145 315.5H142.7C142.315 316.225 141.838 316.898 141.28 317.5L142.05 319.66L138.83 321.66L137.21 320.04C136.415 320.286 135.591 320.427 134.76 320.46L133.76 322.54L130.05 321.7V319.41C129.322 319.025 128.649 318.544 128.05 317.98L125.88 318.75L123.88 315.54L125.5 313.91C125.254 313.119 125.112 312.298 125.08 311.47L123 310.47L123.83 306.76H126C126.389 306.035 126.87 305.363 127.43 304.76L126.66 302.6L129.87 300.6L131.5 302.23C132.29 301.975 133.111 301.831 133.94 301.8L134.94 299.73L138.65 300.56V302.86L138.68 302.87ZM135.41 307.23C134.623 307.052 133.8 307.111 133.046 307.4C132.292 307.69 131.641 308.196 131.176 308.856C130.71 309.515 130.45 310.298 130.43 311.105C130.409 311.912 130.629 312.708 131.06 313.39C131.492 314.072 132.116 314.611 132.854 314.939C133.592 315.266 134.411 315.367 135.206 315.229C136.002 315.091 136.739 314.72 137.323 314.163C137.908 313.606 138.314 312.888 138.49 312.1C138.726 311.046 138.534 309.941 137.957 309.028C137.379 308.115 136.463 307.469 135.41 307.23Z" fill="white"/>
</g>
<path d="M359.53 266.07C361.627 265.467 363.463 264.179 364.744 262.413C366.025 260.646 366.678 258.501 366.6 256.32C366.48 254.32 365.75 252.46 365.83 250.5C365.96 247.5 367.98 244.89 369.5 242.25C371.02 239.61 372.03 236.14 370.26 233.66C369.12 232.05 367.09 231.33 365.7 229.93C364.31 228.53 363.7 226.66 362.96 224.87C362.22 223.08 361.29 221.23 359.61 220.28C357.93 219.33 355.36 219.74 354.67 221.55" fill="#263238"/>
<path d="M341.37 216.74C344.37 214.83 345.09 210.42 343.46 207.27C341.83 204.12 338.39 202.2 334.89 201.63C332.344 201.243 329.742 201.463 327.296 202.273C324.851 203.083 322.632 204.459 320.82 206.29C318.89 208.29 317.32 210.88 314.7 211.79C312.4 212.6 309.85 211.87 307.43 212.19C305.817 212.482 304.289 213.131 302.958 214.089C301.627 215.048 300.528 216.292 299.74 217.73C298.191 220.623 297.261 223.808 297.01 227.08C296.66 230.08 296.42 233.33 294.36 235.5C292.3 237.67 289.15 238.07 286.65 239.58C284.348 241.098 282.73 243.456 282.143 246.15C281.556 248.845 282.047 251.662 283.51 254C284.51 255.44 285.93 256.77 286.04 258.52C286.15 260.27 285.12 261.52 284.63 263.08C284.378 264.066 284.34 265.095 284.519 266.097C284.698 267.099 285.09 268.051 285.668 268.889C286.246 269.726 286.997 270.431 287.87 270.953C288.744 271.476 289.719 271.806 290.73 271.92C292.81 272.04 295.03 271.23 296.9 272.16C298.77 273.09 299.44 275.32 300.62 277.02C301.839 278.66 303.582 279.832 305.56 280.341C307.538 280.851 309.631 280.667 311.49 279.82C313.02 279.07 314.49 277.82 316.16 277.95C317.83 278.08 319.16 279.51 320.86 279.83C323.05 280.25 325.12 278.64 326.42 276.83C327.72 275.02 328.63 272.89 330.29 271.41C332.47 269.47 335.53 269 338.29 268.05C341.34 266.996 344.128 265.299 346.466 263.075C348.804 260.851 350.638 258.15 351.843 255.157C353.047 252.163 353.596 248.946 353.45 245.722C353.305 242.498 352.47 239.343 351 236.47" fill="#263238"/>
<path d="M348 220.67C349.192 220.8 350.292 221.372 351.083 222.274C351.874 223.176 352.297 224.341 352.27 225.54L349.41 290.21C349.29 297.85 338.13 302.14 329.95 301.95C321.69 301.76 321.43 297.71 321.32 290.44C321.15 278.3 321.17 273.74 321.16 273.81C321.15 273.88 310.73 272.06 308.6 258.44C307.54 251.66 307.9 240.56 308.49 231.49C309.03 223.32 314.49 213.31 322.6 214.19L348 220.67Z" fill="#FFBE9D"/>
<path d="M311.439 240.3C311.436 240.755 311.61 241.193 311.923 241.523C312.236 241.853 312.665 242.049 313.119 242.07C313.341 242.088 313.564 242.061 313.776 241.991C313.987 241.921 314.182 241.81 314.35 241.664C314.518 241.517 314.654 241.339 314.752 241.139C314.85 240.939 314.907 240.722 314.92 240.5C314.928 240.045 314.758 239.605 314.445 239.274C314.133 238.944 313.704 238.748 313.249 238.73C313.027 238.712 312.804 238.739 312.592 238.809C312.38 238.878 312.184 238.989 312.015 239.136C311.847 239.282 311.709 239.46 311.61 239.66C311.511 239.86 311.453 240.077 311.439 240.3Z" fill="#263238"/>
<path d="M310.84 237.27C311.06 237.5 312.38 236.52 314.26 236.53C316.14 236.54 317.51 237.48 317.72 237.25C317.93 237.02 317.6 236.74 317 236.3C316.188 235.734 315.22 235.434 314.23 235.44C313.254 235.432 312.301 235.737 311.51 236.31C310.93 236.75 310.73 237.17 310.84 237.27Z" fill="#263238"/>
<path d="M330.17 240.3C330.167 240.755 330.34 241.193 330.653 241.523C330.967 241.853 331.395 242.049 331.85 242.07C332.072 242.088 332.295 242.061 332.506 241.991C332.717 241.921 332.913 241.81 333.08 241.664C333.248 241.517 333.385 241.339 333.483 241.139C333.58 240.939 333.637 240.722 333.65 240.5C333.658 240.043 333.487 239.602 333.172 239.271C332.858 238.94 332.426 238.746 331.97 238.73C331.748 238.712 331.525 238.739 331.314 238.809C331.102 238.879 330.907 238.99 330.74 239.136C330.572 239.282 330.435 239.461 330.337 239.66C330.239 239.86 330.183 240.078 330.17 240.3Z" fill="#263238"/>
<path d="M329.31 237.66C329.53 237.89 330.85 236.91 332.73 236.92C334.61 236.93 335.98 237.92 336.19 237.64C336.4 237.36 336.07 237.13 335.47 236.69C334.658 236.124 333.69 235.824 332.7 235.83C331.725 235.827 330.773 236.131 329.98 236.7C329.4 237.15 329.2 237.56 329.31 237.66Z" fill="#263238"/>
<path d="M322.46 251.58C321.487 251.271 320.479 251.082 319.46 251.02C318.98 250.97 318.52 250.87 318.46 250.55C318.421 250.054 318.536 249.558 318.79 249.13C319.24 247.97 319.72 246.75 320.21 245.48C322.21 240.28 323.63 236 323.42 235.93C323.21 235.86 321.42 240 319.42 245.19C318.95 246.48 318.49 247.7 318.06 248.87C317.752 249.446 317.66 250.112 317.8 250.75C317.869 250.92 317.976 251.071 318.113 251.192C318.25 251.314 318.413 251.402 318.59 251.45C318.857 251.524 319.133 251.565 319.41 251.57C320.423 251.699 321.447 251.702 322.46 251.58Z" fill="#263238"/>
<path d="M321.11 273.81C327.521 273.925 333.839 272.26 339.36 269C339.36 269 334.74 278.6 321.11 277.29V273.81Z" fill="#EB996E"/>
<path d="M323.24 256.11C323.596 255.668 324.057 255.322 324.581 255.103C325.105 254.885 325.675 254.801 326.24 254.86C326.655 254.896 327.058 255.017 327.424 255.215C327.79 255.412 328.112 255.683 328.37 256.01C328.616 256.326 328.762 256.708 328.789 257.107C328.816 257.506 328.722 257.904 328.52 258.25C328.215 258.585 327.818 258.823 327.378 258.933C326.939 259.043 326.477 259.021 326.05 258.87C325.165 258.549 324.35 258.06 323.65 257.43C323.443 257.274 323.264 257.085 323.12 256.87C323.051 256.766 323.014 256.645 323.014 256.52C323.014 256.395 323.051 256.274 323.12 256.17" fill="#FF9F43"/>
<path d="M328 252.89C327.69 252.89 327.68 254.89 325.93 256.36C324.18 257.83 322.01 257.57 322 257.86C322 257.98 322.48 258.25 323.4 258.28C324.594 258.304 325.758 257.899 326.68 257.14C327.571 256.418 328.145 255.378 328.28 254.24C328.35 253.39 328.12 252.88 328 252.89Z" fill="#263238"/>
<path d="M328.47 234.37C328.65 234.88 330.53 234.64 332.73 234.91C334.93 235.18 336.73 235.79 337.01 235.33C337.15 235.11 336.84 234.63 336.12 234.13C335.16 233.526 334.076 233.146 332.948 233.02C331.821 232.894 330.68 233.024 329.61 233.4C328.8 233.72 328.39 234.13 328.47 234.37Z" fill="#263238"/>
<path d="M311.54 231.83C311.87 232.26 313.17 231.83 314.72 231.83C316.27 231.83 317.6 232.12 317.9 231.68C318.04 231.46 317.83 231.03 317.25 230.63C316.479 230.141 315.579 229.894 314.667 229.92C313.754 229.947 312.87 230.247 312.13 230.78C311.58 231.18 311.4 231.62 311.54 231.83Z" fill="#263238"/>
<path d="M339 216.24C340.551 215.154 342.316 214.414 344.178 214.069C346.039 213.724 347.953 213.782 349.79 214.24C353.42 215.24 356.43 218.56 356.56 222.24C356.64 224.64 355.56 227.24 356.67 229.37C357.78 231.5 360.18 232.27 361.96 233.77C363.324 234.963 364.25 236.577 364.591 238.357C364.931 240.136 364.667 241.978 363.84 243.59C362.35 246.32 359.23 248.32 358.97 251.4C358.72 254.3 361.16 256.75 361.76 259.6C362.41 262.74 360.67 265.99 358.18 268.08C355.69 270.17 352.53 271.32 349.45 272.42C347.05 273.29 344.45 274.17 341.98 273.6C340.521 273.209 339.211 272.394 338.214 271.258C337.217 270.123 336.579 268.718 336.38 267.22C336.231 265.727 336.407 264.219 336.896 262.801C337.384 261.382 338.174 260.085 339.21 259C340.96 257.07 343.42 255.44 343.84 252.89C344.49 248.89 339.77 245.68 340.06 241.68C340.21 239.62 341.67 237.91 342.88 236.21C344.09 234.51 345.15 232.38 344.4 230.45C343.4 227.93 340.13 227.27 338.13 225.45C337.306 224.674 336.713 223.685 336.418 222.592C336.123 221.499 336.138 220.345 336.46 219.26C336.824 218.176 337.476 217.212 338.346 216.47C339.216 215.728 340.272 215.238 341.4 215.05" fill="#263238"/>
<path d="M340.47 213.17C340.477 214.54 340.181 215.894 339.604 217.136C339.027 218.378 338.184 219.478 337.133 220.356C336.082 221.235 334.851 221.871 333.526 222.219C332.202 222.567 330.817 222.619 329.47 222.37C327.39 221.99 325.11 220.94 323.31 222.05C321.51 223.16 321.31 226.05 319.66 227.52C317.26 229.61 313.45 227.65 310.4 228.52C308.05 229.22 306.58 231.46 305.01 233.36C303.44 235.26 301.11 237.05 298.75 236.36C298.821 234.238 299.136 232.13 299.69 230.08C300.253 228.018 301.511 226.213 303.25 224.97C304.279 224.435 305.28 223.847 306.25 223.21C308.25 221.64 308.66 218.89 309.86 216.69C310.654 215.274 311.773 214.067 313.126 213.17C314.479 212.273 316.027 211.71 317.64 211.53C320.32 211.26 323.08 212.06 325.64 211.4C327.57 210.92 329.26 209.67 331.21 209.29C335.02 208.57 338.56 211.29 341.32 214.02" fill="#263238"/>
<path d="M365.34 245.72C365.59 245.237 365.698 244.692 365.65 244.15C365.527 243.422 365.205 242.743 364.719 242.187C364.234 241.631 363.604 241.22 362.9 241C361.922 240.654 360.919 240.383 359.9 240.19C358.683 239.969 357.528 239.492 356.51 238.79C355.966 238.35 355.527 237.796 355.222 237.167C354.918 236.538 354.757 235.849 354.75 235.15C354.735 233.72 354.805 232.291 354.96 230.87C354.999 230.168 354.963 229.464 354.85 228.77C354.719 228.121 354.445 227.51 354.05 226.98C353.154 226.058 352.018 225.407 350.77 225.1C349.599 224.765 348.477 224.281 347.43 223.66C346.519 223.114 345.69 222.44 344.97 221.66C343.917 220.541 343.101 219.221 342.57 217.78C342.418 217.394 342.301 216.996 342.22 216.59C342.16 216.31 342.14 216.17 342.16 216.16C342.18 216.15 342.34 216.73 342.75 217.71C343.486 219.418 344.607 220.933 346.023 222.139C347.44 223.344 349.116 224.207 350.92 224.66C352.26 224.977 353.482 225.671 354.44 226.66C354.891 227.25 355.206 227.933 355.36 228.66C355.48 229.393 355.52 230.138 355.48 230.88C355.33 232.285 355.257 233.697 355.26 235.11C355.259 235.74 355.397 236.363 355.665 236.934C355.933 237.504 356.324 238.008 356.81 238.41C357.768 239.076 358.855 239.535 360 239.76C361.022 239.976 362.025 240.274 363 240.65C363.839 240.97 364.573 241.517 365.12 242.23C365.517 242.778 365.756 243.425 365.81 244.1C365.836 244.528 365.75 244.955 365.56 245.34C365.47 245.62 365.35 245.73 365.34 245.72Z" fill="#455A64"/>
<path d="M285.15 254.22L284.92 254.11C284.714 253.981 284.539 253.807 284.41 253.6C284.221 253.166 284.147 252.69 284.196 252.218C284.245 251.747 284.415 251.296 284.69 250.91C285.03 250.311 285.537 249.824 286.15 249.51C286.86 249.157 287.591 248.85 288.34 248.59C289.18 248.309 289.958 247.868 290.63 247.29C291.311 246.578 291.767 245.68 291.94 244.71C292.16 243.71 292.23 242.57 292.42 241.41C292.563 240.165 293.028 238.98 293.77 237.97C295.35 235.89 297.95 234.78 299.89 232.82C300.858 231.789 301.586 230.556 302.02 229.21C302.482 227.789 302.817 226.33 303.02 224.85C303.44 221.85 303.87 218.51 305.88 215.77C306.86 214.393 308.331 213.445 309.99 213.12C311.565 212.895 313.167 212.933 314.73 213.23C316.189 213.513 317.678 213.6 319.16 213.49C320.554 213.329 321.841 212.664 322.78 211.62C324.64 209.62 325.7 206.92 327.99 205.54C329.01 204.918 330.147 204.512 331.331 204.349C332.515 204.185 333.719 204.268 334.87 204.59C336.776 205.133 338.397 206.395 339.39 208.11C340.14 209.384 340.547 210.832 340.57 212.31C340.597 213.236 340.451 214.158 340.14 215.03C340.036 215.338 339.898 215.633 339.73 215.91C339.73 215.91 339.85 215.6 340.04 215C340.301 214.132 340.413 213.226 340.37 212.32C340.313 210.886 339.893 209.489 339.15 208.26C338.172 206.633 336.603 205.446 334.77 204.95C333.668 204.659 332.518 204.598 331.391 204.77C330.264 204.942 329.185 205.344 328.22 205.95C327.172 206.67 326.278 207.591 325.59 208.66C324.844 209.823 324.023 210.936 323.13 211.99C322.628 212.538 322.04 213 321.39 213.36C320.711 213.707 319.977 213.934 319.22 214.03C317.696 214.147 316.162 214.063 314.66 213.78C313.153 213.49 311.61 213.45 310.09 213.66C308.56 213.97 307.205 214.849 306.3 216.12C305.389 217.409 304.727 218.857 304.35 220.39C303.989 221.9 303.712 223.429 303.52 224.97C303.322 226.477 302.987 227.964 302.52 229.41C302.061 230.824 301.288 232.116 300.26 233.19C298.21 235.19 295.64 236.31 294.14 238.28C293.437 239.228 292.99 240.34 292.84 241.51C292.65 242.65 292.57 243.77 292.32 244.83C292.131 245.869 291.629 246.825 290.88 247.57C290.173 248.169 289.353 248.621 288.47 248.9C287.726 249.145 286.998 249.436 286.29 249.77C285.712 250.057 285.227 250.5 284.89 251.05C284.625 251.411 284.453 251.832 284.39 252.275C284.328 252.718 284.375 253.17 284.53 253.59C284.695 253.837 284.905 254.051 285.15 254.22Z" fill="#455A64"/>
<path d="M251.74 348L275.89 345.79C275.89 345.79 290.75 306.64 309.07 297.15L320.94 317.88L295.53 365.61H245.93L251.74 348Z" fill="#FF9F43"/>
<path opacity="0.3" d="M251.74 348L275.89 345.79C275.89 345.79 290.75 306.64 309.07 297.15L320.94 317.88L295.53 365.61H245.93L251.74 348Z" fill="black"/>
<path d="M261.28 359C262.473 356.305 263.991 353.766 265.8 351.44C264.591 354.126 263.074 356.663 261.28 359Z" fill="#FAFAFA"/>
<path d="M278.39 358.53C276.294 356.478 274.447 354.186 272.89 351.7C274.006 352.655 274.998 353.747 275.84 354.95C276.825 356.041 277.681 357.242 278.39 358.53Z" fill="#FAFAFA"/>
<path d="M281.36 349.56C281.013 347.461 281.013 345.319 281.36 343.22C281.706 345.319 281.706 347.461 281.36 349.56Z" fill="#FAFAFA"/>
<path d="M272.86 363.55C272.017 363.315 271.23 362.91 270.55 362.36C269.35 361.57 268.45 360.84 268.55 360.72C269.39 360.967 270.175 361.374 270.86 361.92C272 362.7 272.94 363.43 272.86 363.55Z" fill="#FAFAFA"/>
<path d="M286.73 327.57C286.334 329.08 285.774 330.542 285.06 331.93C284.502 333.388 283.785 334.78 282.92 336.08C283.304 334.568 283.861 333.105 284.58 331.72C285.143 330.262 285.864 328.871 286.73 327.57Z" fill="#FAFAFA"/>
<path d="M296.52 311.71C296.6 311.82 295.74 312.62 294.59 313.5C293.936 314.098 293.172 314.563 292.34 314.87C292.26 314.75 293.12 313.95 294.27 313.08C294.921 312.478 295.686 312.012 296.52 311.71Z" fill="#FAFAFA"/>
<path d="M332.64 362.47L345.1 312.16C346.142 307.939 348.752 304.273 352.401 301.908C356.049 299.544 360.461 298.657 364.74 299.43C369.135 300.225 373.046 302.705 375.639 306.343C378.231 309.98 379.301 314.486 378.62 318.9L371 368.07C370.09 373.102 367.634 377.726 363.974 381.298C360.315 384.87 355.633 387.212 350.58 388L340.68 389.54L332.64 362.47Z" fill="#FF9F43"/>
<path d="M371.9 296.18C370.6 295.116 369.081 294.355 367.45 293.95C365.687 293.54 363.853 293.54 362.09 293.95C359.944 294.492 357.949 295.518 356.26 296.95C352.61 300.01 350.63 303.95 349.26 306.77C348.59 308.18 348.08 309.34 347.72 310.14C347.555 310.568 347.35 310.979 347.11 311.37C347.208 310.924 347.349 310.489 347.53 310.07C347.84 309.24 348.29 308.07 348.92 306.61C349.659 304.916 350.514 303.276 351.48 301.7C352.68 299.764 354.175 298.026 355.91 296.55C357.654 295.052 359.727 293.986 361.96 293.44C363.793 293.023 365.699 293.047 367.52 293.51C368.744 293.825 369.893 294.379 370.9 295.14C371.169 295.349 371.42 295.58 371.65 295.83C371.83 296.08 371.91 296.17 371.9 296.18Z" fill="#263238"/>
<path d="M301.33 307.5C301.231 307.669 301.114 307.827 300.98 307.97L299.92 309.25C298.99 310.36 297.68 311.98 296.18 314.07C292.193 319.478 289.303 325.613 287.67 332.13C285.94 339.8 285.85 346.98 285.56 352.13C285.43 354.71 285.31 356.8 285.2 358.24C285.14 358.92 285.09 359.47 285.05 359.9C285.038 360.095 285.011 360.289 284.97 360.48C284.942 360.288 284.942 360.092 284.97 359.9C284.97 359.46 284.97 358.9 285.02 358.23C285.02 356.72 285.13 354.65 285.21 352.12C285.41 346.98 285.43 339.77 287.21 332.02C288.845 325.439 291.809 319.262 295.92 313.87C297.47 311.79 298.83 310.19 299.8 309.12C300.28 308.58 300.68 308.18 300.94 307.91C301.058 307.762 301.188 307.625 301.33 307.5Z" fill="#263238"/>
<path d="M381.15 307.39C379.78 298.39 374.82 296.24 369.67 293.44C367.99 292.52 359.88 290.44 353.45 288.87C352.83 284.98 351.73 278 351.45 276.53C351.11 274.46 318.69 279.63 318.28 280.41C318.01 280.92 317.28 289 316.79 294.41L309.03 297.12L298.94 310L293.67 317.48C290.565 321.795 288.346 326.682 287.14 331.86C286.008 337.594 285.521 343.437 285.69 349.28L284.12 382.28L352 401.46L357.2 368L374.7 344.18C376.19 334.55 382.83 318.45 381.15 307.39Z" fill="#FF9F43"/>
<path d="M323.26 295.42C323.023 294.676 322.872 293.908 322.81 293.13C322.6 291.71 322.34 289.74 322.09 287.56C321.97 286.48 321.86 285.45 321.75 284.48C321.647 283.637 321.587 282.789 321.57 281.94C321.56 281.34 321.731 280.752 322.06 280.25C322.32 279.91 322.54 279.82 322.56 279.84C322.58 279.86 322.41 280.02 322.23 280.36C322.003 280.854 321.903 281.397 321.94 281.94C321.94 282.64 322.12 283.48 322.23 284.43C322.34 285.38 322.47 286.43 322.61 287.5C322.86 289.68 323.06 291.66 323.18 293.09C323.296 293.861 323.323 294.643 323.26 295.42Z" fill="#263238"/>
<path d="M331.91 293.38C331.573 292.717 331.331 292.01 331.19 291.28C330.286 287.817 329.948 284.231 330.19 280.66C330.197 279.919 330.305 279.182 330.51 278.47C330.67 278.47 330.38 281.84 330.77 285.96C331.16 290.08 332.07 293.34 331.91 293.38Z" fill="#263238"/>
<path d="M348 291C348.205 288.514 348.141 286.013 347.81 283.54C347.299 281.096 346.514 278.718 345.47 276.45C345.972 277.007 346.375 277.646 346.66 278.34C348.254 281.592 348.885 285.232 348.48 288.83C348.433 289.574 348.271 290.306 348 291Z" fill="#263238"/>
<path d="M302 320.46C303.545 317.514 305.554 314.837 307.95 312.53C306.097 315.268 304.111 317.915 302 320.46Z" fill="#FAFAFA"/>
<path d="M317.229 308C315.29 306.051 313.609 303.859 312.229 301.48C313.247 302.402 314.15 303.443 314.919 304.58C315.83 305.619 316.606 306.768 317.229 308Z" fill="#FAFAFA"/>
<path d="M333.19 300.22C332.214 301.379 331.147 302.46 330 303.45C328.977 304.569 327.87 305.608 326.69 306.56C327.495 305.26 328.489 304.087 329.64 303.08C330.671 301.952 331.868 300.987 333.19 300.22Z" fill="#FAFAFA"/>
<path d="M328.71 290.7C327.779 290.211 326.937 289.569 326.22 288.8C325.384 288.154 324.658 287.378 324.07 286.5C325 287 325.844 287.645 326.57 288.41C327.404 289.051 328.127 289.825 328.71 290.7Z" fill="#FAFAFA"/>
<path d="M342.7 283.24C341.633 283.739 340.497 284.077 339.33 284.24C338.203 284.566 337.034 284.728 335.86 284.72C336.926 284.225 338.058 283.888 339.22 283.72C340.351 283.394 341.523 283.232 342.7 283.24Z" fill="#FAFAFA"/>
<path d="M345.5 305.39C345.179 304.255 345.031 303.079 345.06 301.9C344.917 300.732 344.944 299.55 345.14 298.39C345.461 299.525 345.61 300.701 345.58 301.88C345.724 303.048 345.697 304.23 345.5 305.39Z" fill="#FAFAFA"/>
<path d="M340.4 316C339.659 314.74 339.068 313.398 338.64 312C338.06 310.643 337.637 309.224 337.38 307.77C338.695 310.402 339.702 313.177 340.38 316.04L340.4 316Z" fill="#FAFAFA"/>
<path d="M326.54 323.55C325.743 322.216 325.099 320.798 324.62 319.32C323.971 317.904 323.488 316.417 323.18 314.89C323.97 316.23 324.614 317.652 325.1 319.13C325.74 320.546 326.223 322.028 326.54 323.55Z" fill="#FAFAFA"/>
<path d="M313.5 332.06C312.576 329.315 311.992 326.467 311.76 323.58C312.298 324.927 312.674 326.334 312.88 327.77C313.254 329.171 313.462 330.611 313.5 332.06Z" fill="#FAFAFA"/>
<path d="M298 332.4C296.459 330.012 295.21 327.447 294.28 324.76C295.821 327.149 297.07 329.714 298 332.4Z" fill="#FAFAFA"/>
<path d="M297.67 342.34C296.4 343.243 295.039 344.011 293.61 344.63C292.249 345.399 290.807 346.013 289.31 346.46C290.577 345.545 291.942 344.774 293.38 344.16C294.737 343.395 296.176 342.785 297.67 342.34Z" fill="#FAFAFA"/>
<path d="M297.86 358.06C297.18 356.935 296.703 355.7 296.45 354.41C296.029 353.171 295.829 351.868 295.86 350.56C296.34 351.763 296.705 353.008 296.95 354.28C297.37 355.509 297.675 356.774 297.86 358.06Z" fill="#FAFAFA"/>
<path d="M294.649 369.1C293.464 368.349 292.37 367.463 291.389 366.46C290.296 365.588 289.318 364.58 288.479 363.46C289.665 364.21 290.759 365.096 291.739 366.1C292.833 366.972 293.811 367.98 294.649 369.1Z" fill="#FAFAFA"/>
<path d="M315.07 361.56C315.07 361.71 312.81 362.37 310.13 363.56C307.45 364.75 305.41 365.97 305.32 365.84C306.686 364.665 308.241 363.732 309.92 363.08C311.536 362.279 313.279 361.765 315.07 361.56Z" fill="#FAFAFA"/>
<path d="M309.1 356.09C308.456 355.019 307.961 353.865 307.63 352.66C307.13 351.516 306.794 350.307 306.63 349.07C307.272 350.137 307.763 351.288 308.09 352.49C308.596 353.636 308.936 354.848 309.1 356.09Z" fill="#FAFAFA"/>
<path d="M321.21 342.57C320.455 344.263 319.541 345.88 318.48 347.4C317.565 349.029 316.5 350.568 315.3 352C316.976 348.697 318.955 345.557 321.21 342.62V342.57Z" fill="#FAFAFA"/>
<path d="M334.23 343.86C332.913 342.51 331.792 340.982 330.9 339.32C329.859 337.75 329.038 336.044 328.46 334.25C328.6 334.19 329.76 336.41 331.35 339.06C332.94 341.71 334.35 343.78 334.23 343.86Z" fill="#FAFAFA"/>
<path d="M342 331C340.787 331.475 339.492 331.706 338.19 331.68C336.899 331.831 335.591 331.729 334.34 331.38C335.609 331.211 336.889 331.138 338.17 331.16C339.441 331.015 340.721 330.961 342 331Z" fill="#FAFAFA"/>
<path d="M360.53 316.39C357.357 318.298 354.008 319.899 350.53 321.17C353.709 319.272 357.057 317.672 360.53 316.39Z" fill="#FAFAFA"/>
<path d="M361.76 307.09C362.78 304.278 364.122 301.593 365.76 299.09C365.337 300.524 364.746 301.904 364 303.2C363.403 304.577 362.652 305.883 361.76 307.09Z" fill="#FAFAFA"/>
<path d="M373.52 314.39C372.905 312.912 372.397 311.391 372 309.84C371.443 308.341 370.995 306.804 370.66 305.24C372.155 308.094 373.124 311.193 373.52 314.39Z" fill="#FAFAFA"/>
<path d="M375.37 324.07C373.996 324.821 372.516 325.36 370.98 325.67C369.487 326.145 367.928 326.385 366.36 326.38C367.828 325.874 369.328 325.47 370.85 325.17C372.33 324.701 373.84 324.334 375.37 324.07Z" fill="#FAFAFA"/>
<path d="M355.21 335.89C355.06 335.89 355.49 333.43 355.61 330.4C355.73 327.37 355.53 324.91 355.68 324.89C356.142 326.695 356.294 328.565 356.13 330.42C356.14 332.283 355.828 334.133 355.21 335.89Z" fill="#FAFAFA"/>
<path d="M351.19 348.06C348.501 345.928 346.287 343.258 344.69 340.22C344.82 340.14 346.14 341.99 347.94 344.15C349.092 345.395 350.177 346.7 351.19 348.06Z" fill="#FAFAFA"/>
<path d="M371.4 345.49C370.091 346.314 368.692 346.985 367.23 347.49C365.835 348.162 364.369 348.678 362.86 349.03C365.567 347.529 368.431 346.332 371.4 345.46V345.49Z" fill="#FAFAFA"/>
<path d="M364.16 368.39C363.857 364.728 363.893 361.046 364.27 357.39C364.587 361.052 364.55 364.736 364.16 368.39Z" fill="#FAFAFA"/>
<path d="M348.65 367.07C348.903 363.244 349.841 359.494 351.42 356C351.56 356.05 350.8 358.48 350.04 361.53C349.28 364.58 348.8 367.1 348.65 367.07Z" fill="#FAFAFA"/>
<path d="M349.36 373.08C349.36 373.23 346.88 373.47 343.84 373.98C340.8 374.49 338.36 375.05 338.32 374.9C340.055 374.172 341.883 373.687 343.75 373.46C345.593 373.069 347.482 372.941 349.36 373.08Z" fill="#FAFAFA"/>
<path d="M332.2 369.23C333.069 367.973 334.076 366.816 335.2 365.78C336.191 364.628 337.312 363.595 338.54 362.7C337.671 363.958 336.665 365.115 335.54 366.15C334.547 367.3 333.426 368.333 332.2 369.23Z" fill="#FAFAFA"/>
<path d="M321.09 380C320.56 378.725 320.109 377.42 319.74 376.09C319.197 374.818 318.73 373.516 318.34 372.19C319.926 374.507 320.874 377.2 321.09 380Z" fill="#FAFAFA"/>
<path d="M339 386.22C335.589 385.089 332.297 383.629 329.17 381.86C330.894 382.346 332.569 382.996 334.17 383.8C335.851 384.456 337.468 385.266 339 386.22Z" fill="#FAFAFA"/>
<path d="M307.76 384.41C307.9 383.152 308.216 381.92 308.7 380.75C309.016 379.527 309.497 378.353 310.13 377.26C309.988 378.518 309.672 379.75 309.19 380.92C308.866 382.141 308.385 383.314 307.76 384.41Z" fill="#FAFAFA"/>
<path d="M328.36 387.9C328.36 388.05 325.49 387.59 321.95 387.41C318.41 387.23 315.54 387.41 315.53 387.21C317.654 386.797 319.826 386.689 321.98 386.89C324.144 386.918 326.293 387.258 328.36 387.9Z" fill="#FAFAFA"/>
<path d="M332.64 358.41C332.621 358.277 332.621 358.143 332.64 358.01C332.638 357.627 332.695 357.246 332.81 356.88C332.966 356.263 333.352 355.73 333.89 355.39C334.627 354.963 335.495 354.821 336.33 354.99L336.13 355.11C337.22 351.27 338.97 345.67 340.72 339.39C342.36 333.51 343.47 328.1 344.24 324.17C344.62 322.28 344.92 320.71 345.16 319.52C345.251 318.948 345.381 318.384 345.55 317.83C345.538 318.411 345.474 318.99 345.36 319.56C345.2 320.67 344.94 322.27 344.6 324.24C343.734 329.391 342.606 334.494 341.22 339.53C339.47 345.82 337.66 351.4 336.46 355.21L336.41 355.36H336.26C335.505 355.188 334.713 355.294 334.03 355.66C333.534 355.956 333.161 356.421 332.98 356.97C332.65 357.85 332.71 358.42 332.64 358.41Z" fill="#263238"/>
<path d="M355.06 372.32C354.98 372.32 354.36 371 353.06 368.98C349.727 363.707 345.027 359.435 339.46 356.62C337.33 355.55 335.92 355.06 335.95 354.97C336.292 355.024 336.627 355.115 336.95 355.24C337.854 355.534 338.74 355.884 339.6 356.29C345.349 358.963 350.149 363.323 353.36 368.79C353.843 369.609 354.273 370.457 354.65 371.33C354.839 371.636 354.977 371.97 355.06 372.32Z" fill="#263238"/>
<g opacity="0.2">
<path opacity="0.2" d="M336.55 354.24C340.14 354.33 343.696 354.974 347.09 356.15C350.68 357.49 354 360.07 355.32 363.67C355.534 364.076 355.63 364.535 355.596 364.992C355.562 365.45 355.401 365.89 355.13 366.26C354.873 366.48 354.561 366.626 354.228 366.681C353.895 366.735 353.553 366.697 353.24 366.57C352.614 366.309 352.049 365.92 351.58 365.43C349.38 363.43 347.09 361.59 344.82 359.63C342.55 357.67 339.23 355.63 336.27 355.16" fill="black"/>
</g>
<path d="M329.34 347.86C329.033 348.102 328.697 348.304 328.34 348.46C327.355 348.942 326.327 349.331 325.27 349.62C321.751 350.624 318.028 350.668 314.487 349.749C310.946 348.829 307.715 346.979 305.13 344.39C304.349 343.619 303.64 342.779 303.01 341.88C302.76 341.576 302.551 341.239 302.39 340.88C302.47 340.82 303.39 342.28 305.39 344.16C307.987 346.614 311.162 348.371 314.62 349.27C318.078 350.168 321.707 350.179 325.17 349.3C327.78 348.6 329.29 347.76 329.34 347.86Z" fill="#263238"/>
<g opacity="0.2">
<path opacity="0.2" d="M302.88 341.62C304.57 345.28 306.54 348.97 309.74 351.43C311.509 352.958 313.719 353.883 316.05 354.07C319.39 354.13 322.26 351.85 324.81 349.69C316.55 350.99 307.25 347.24 302.88 341.62Z" fill="black"/>
</g>
<path d="M339.86 292.62C339.7 292.62 339.86 289.18 339.48 284.99C339.1 280.8 338.25 277.47 338.4 277.43C338.73 278.111 338.963 278.835 339.09 279.58C339.522 281.342 339.823 283.134 339.99 284.94C340.169 286.748 340.216 288.566 340.13 290.38C340.139 291.135 340.048 291.889 339.86 292.62Z" fill="#263238"/>
<path d="M221.24 426.44C221.24 426.44 210.37 428.79 200.67 427.33C191.57 425.97 171.2 427.38 171.21 439.33C171.21 452.7 198.38 449.4 208.97 447.28C219.56 445.16 230.12 443.28 230.12 443.28L221.24 426.44Z" fill="#FF9F43"/>
<path d="M196.839 443.57C196.242 442.07 195.803 440.511 195.529 438.92C195.094 437.363 194.826 435.764 194.729 434.15C195.314 435.651 195.739 437.21 195.999 438.8C196.448 440.356 196.73 441.955 196.839 443.57Z" fill="#263238"/>
<path d="M200.549 443.75C199.763 440.6 199.321 437.375 199.229 434.13C199.706 435.682 200.015 437.281 200.149 438.9C200.451 440.498 200.585 442.124 200.549 443.75Z" fill="#263238"/>
<path d="M204.13 442.35C203.711 440.996 203.456 439.596 203.37 438.18C203.111 436.786 203.027 435.365 203.12 433.95C203.792 436.699 204.127 439.52 204.12 442.35H204.13Z" fill="#263238"/>
<path d="M209.75 441C209.054 439.91 208.582 438.693 208.36 437.42C207.969 436.183 207.833 434.88 207.96 433.59C208.342 434.802 208.643 436.038 208.86 437.29C209.244 438.504 209.541 439.744 209.75 441Z" fill="#263238"/>
<path d="M211 436.06C211.465 435.953 211.944 435.919 212.42 435.96C213.722 436.005 215.008 436.258 216.23 436.71C216.652 436.86 217.05 437.073 217.41 437.34C217.622 437.495 217.797 437.694 217.923 437.924C218.049 438.154 218.123 438.409 218.14 438.67C218.117 438.958 218.033 439.238 217.892 439.491C217.751 439.743 217.556 439.962 217.323 440.132C217.089 440.303 216.821 440.42 216.537 440.477C216.254 440.533 215.961 440.527 215.68 440.46C214.531 440.146 213.53 439.438 212.85 438.46C211.721 437.004 211.075 435.232 211.001 433.391C210.928 431.55 211.431 429.732 212.44 428.19C212.644 427.942 212.926 427.77 213.24 427.7C213.404 427.679 213.57 427.694 213.727 427.744C213.884 427.794 214.029 427.878 214.15 427.99C214.535 428.386 214.775 428.901 214.83 429.45C214.953 430.354 214.906 431.274 214.69 432.16C214.391 433.446 213.756 434.63 212.85 435.59C212.611 435.852 212.346 436.09 212.06 436.3C211.965 436.381 211.856 436.445 211.74 436.49C211.74 436.49 212.12 436.15 212.74 435.49C213.55 434.513 214.109 433.353 214.37 432.11C214.55 431.265 214.574 430.394 214.44 429.54C214.389 429.098 214.196 428.684 213.89 428.36C213.812 428.295 213.721 428.248 213.623 428.222C213.526 428.195 213.423 428.191 213.323 428.208C213.224 428.225 213.129 428.264 213.045 428.321C212.962 428.378 212.892 428.453 212.84 428.54C211.927 430.001 211.481 431.705 211.561 433.425C211.642 435.146 212.245 436.801 213.29 438.17C213.887 439.065 214.779 439.723 215.81 440.03C216.023 440.086 216.246 440.096 216.464 440.059C216.682 440.022 216.889 439.94 217.072 439.817C217.256 439.694 217.411 439.533 217.528 439.346C217.645 439.159 217.72 438.949 217.75 438.73C217.734 438.533 217.675 438.342 217.579 438.169C217.482 437.997 217.349 437.847 217.19 437.73C216.873 437.477 216.519 437.274 216.14 437.13C214.958 436.661 213.716 436.365 212.45 436.25C211.46 436.08 211 436.1 211 436.06Z" fill="#263238"/>
<path d="M229.05 441.51L228.78 441.6L227.96 441.8L224.81 442.52C222.07 443.12 218.09 443.97 213.15 444.92C208.21 445.87 202.31 446.92 195.69 447.85C192.225 448.42 188.706 448.597 185.2 448.38C183.334 448.255 181.491 447.902 179.71 447.33C178.796 447.02 177.912 446.625 177.07 446.15C176.191 445.68 175.408 445.049 174.76 444.29C174.398 443.957 174.082 443.577 173.82 443.16C173.31 442.283 172.997 441.306 172.902 440.296C172.807 439.286 172.933 438.267 173.27 437.31C173.925 435.463 175.142 433.868 176.75 432.75C178.264 431.684 179.934 430.857 181.7 430.3C182.57 430.05 183.41 429.75 184.27 429.56C185.13 429.37 185.98 429.16 186.83 429.04C193.64 427.97 199.83 428.51 204.99 428.51C207.57 428.56 209.9 428.51 211.94 428.37C213.684 428.244 215.42 428.024 217.14 427.71L219.02 427.31L220.37 426.93L221.2 426.7C221.294 426.667 221.391 426.647 221.49 426.64C221.49 426.64 221.4 426.69 221.22 426.75L220.4 427.03L219.06 427.46L217.19 427.91C215.463 428.259 213.716 428.509 211.96 428.66C209.91 428.81 207.57 428.91 204.96 428.88C199.8 428.93 193.61 428.42 186.89 429.51C186.05 429.63 185.22 429.86 184.37 430.04C183.52 430.22 182.7 430.53 181.84 430.77C180.123 431.314 178.501 432.12 177.03 433.16C175.511 434.218 174.36 435.725 173.74 437.47C173.43 438.355 173.315 439.296 173.401 440.23C173.487 441.163 173.774 442.067 174.24 442.88C174.479 443.249 174.765 443.585 175.09 443.88C175.701 444.572 176.429 445.15 177.24 445.59C178.049 446.049 178.9 446.431 179.78 446.73C181.523 447.282 183.326 447.618 185.15 447.73C188.621 447.949 192.105 447.784 195.54 447.24C202.14 446.37 208.05 445.32 212.99 444.42C217.93 443.52 221.92 442.72 224.68 442.18L227.85 441.56L228.67 441.41C228.803 441.416 228.932 441.45 229.05 441.51Z" fill="#263238"/>
<path d="M189.31 448C189.147 447.082 189.056 446.153 189.04 445.22C188.92 443.51 188.72 441.14 188.37 438.55C188.02 435.96 187.6 433.62 187.26 431.93C187.027 431.028 186.87 430.108 186.79 429.18C187.162 430.038 187.44 430.933 187.62 431.85C188.166 434.035 188.59 436.248 188.89 438.48C189.184 440.709 189.358 442.952 189.41 445.2C189.473 446.134 189.44 447.073 189.31 448Z" fill="#263238"/>
<path opacity="0.4" d="M217.89 427.02L224.78 444.27L230.12 443.28L219.89 426.44L217.89 427.02Z" fill="black"/>
<path d="M307.65 379.74C306.54 380.1 235.37 360.16 206.59 352.07C202.853 351.017 198.935 350.773 195.097 351.355C191.258 351.936 187.588 353.328 184.33 355.44L183.98 355.66C179.255 358.715 175.589 363.155 173.482 368.373C171.376 373.59 170.931 379.331 172.21 384.81C173.031 388.339 174.545 391.669 176.663 394.608C178.781 397.547 181.462 400.036 184.55 401.93C203.55 413.56 243.7 438.02 244.93 437.54C246.54 436.92 296.7 435.62 296.7 435.62L236.35 392.21L265.06 410.77L307.65 379.77V379.74Z" fill="#263238"/>
<path d="M248.23 358.08L263.36 350.25L278.2 359.55L333.74 361.37L341.74 388.37L261.34 369.73C261.34 369.73 246.71 371.03 245.61 367.73C244.51 364.43 248.23 358.08 248.23 358.08Z" fill="#FFBE9D"/>
<path d="M293.74 401.42L286.26 426L287.19 433.49C293.776 440.127 302.557 444.134 311.886 444.762C321.215 445.39 330.453 442.595 337.87 436.9C342.467 433.37 346.187 428.826 348.74 423.623C351.294 418.419 352.611 412.696 352.59 406.9L352.48 381.24L293.74 401.42Z" fill="#263238"/>
<path d="M249.2 401.58C249.12 401.69 240.44 395.36 229.82 387.44C219.2 379.52 210.65 373 210.74 372.89C210.83 372.78 219.5 379.1 230.13 387.02C240.76 394.94 249.29 401.46 249.2 401.58Z" fill="#455A64"/>
<path d="M262.34 355.15C259.934 356.194 257.462 357.08 254.94 357.8C252.468 358.676 249.943 359.394 247.38 359.95C249.785 358.903 252.257 358.018 254.78 357.3C257.251 356.423 259.777 355.704 262.34 355.15Z" fill="#EB996E"/>
<path d="M263.47 359.76C262.626 360 261.763 360.164 260.89 360.25C259.3 360.51 257.11 360.9 254.71 361.45C252.31 362 250.17 362.61 248.62 363.07C247.796 363.368 246.95 363.599 246.09 363.76C246.852 363.335 247.661 363 248.5 362.76C250.495 362.052 252.528 361.458 254.59 360.98C256.651 360.508 258.738 360.154 260.84 359.92C261.708 359.774 262.59 359.721 263.47 359.76Z" fill="#EB996E"/>
<path d="M262.2 364C259.466 364.814 256.684 365.455 253.87 365.92C251.088 366.561 248.269 367.031 245.43 367.33C248.168 366.521 250.953 365.88 253.77 365.41C256.549 364.771 259.364 364.3 262.2 364Z" fill="#EB996E"/>
<path d="M242.58 321.8L256.53 367.72C256.609 367.976 256.763 368.202 256.971 368.369C257.18 368.537 257.434 368.638 257.7 368.66L295.7 371.51C296.037 371.533 296.353 371.683 296.583 371.93C296.813 372.177 296.941 372.502 296.94 372.84V375.21C296.94 375.387 296.905 375.563 296.836 375.726C296.768 375.889 296.667 376.037 296.54 376.161C296.414 376.285 296.263 376.383 296.099 376.448C295.934 376.513 295.758 376.544 295.58 376.54L191.58 374.54C191.314 374.535 191.056 374.451 190.838 374.297C190.621 374.144 190.454 373.929 190.36 373.68L172.08 325.79C172.004 325.593 171.976 325.381 171.997 325.171C172.019 324.961 172.091 324.759 172.206 324.582C172.321 324.406 172.477 324.259 172.66 324.154C172.844 324.049 173.049 323.99 173.26 323.98L241.17 320.81C241.484 320.783 241.798 320.867 242.056 321.049C242.313 321.23 242.499 321.496 242.58 321.8Z" fill="#455A64"/>
<path d="M213.28 341.58C212.77 341.77 212.316 342.083 211.956 342.491C211.597 342.9 211.344 343.39 211.22 343.92C211.174 344.473 211.274 345.029 211.511 345.531C211.748 346.033 212.113 346.464 212.57 346.78C213.118 347.177 213.772 347.402 214.449 347.427C215.125 347.452 215.794 347.275 216.37 346.92C216.948 346.491 217.362 345.877 217.544 345.181C217.726 344.485 217.664 343.747 217.37 343.09C216.91 341.82 214.59 340.93 213.25 341.58" fill="#E0E0E0"/>
<path d="M230.12 443.28L219.12 425.2L299.92 361.87C304.947 357.747 311.096 355.228 317.57 354.64C322.287 354.211 327.041 354.82 331.498 356.423C335.955 358.026 340.008 360.584 343.371 363.919C346.735 367.254 349.328 371.285 350.969 375.728C352.61 380.171 353.259 384.92 352.87 389.64L351.58 405.09L298 422.36L230.12 443.28Z" fill="#263238"/>
<path d="M333.74 400.36C333.74 400.36 333.68 400.43 333.53 400.56L332.87 401.1L330.3 403.16L328.43 404.63C327.75 405.17 326.94 405.63 326.11 406.26L323.43 408.1C322.95 408.42 322.43 408.77 321.96 409.1L320.35 410.1C318.16 411.41 315.79 412.91 313.1 414.27C311.77 414.97 310.41 415.73 308.98 416.44L304.51 418.55C297.841 421.605 291.022 424.321 284.08 426.69C269.32 431.78 255.68 435.44 245.91 438.4C243.46 439.12 241.25 439.8 239.31 440.4C237.37 441 235.71 441.51 234.31 441.97L231.19 442.97L230.37 443.22C230.276 443.253 230.179 443.277 230.08 443.29L230.35 443.17L231.15 442.87L234.25 441.76C235.59 441.27 237.25 440.76 239.19 440.1C241.13 439.44 243.32 438.76 245.76 438.02C255.51 434.96 269.14 431.25 283.87 426.17C291.25 423.66 298.12 420.86 304.27 418.09L308.73 416C310.17 415.3 311.53 414.55 312.86 413.86C315.55 412.52 317.92 411.04 320.12 409.76L321.73 408.81C322.24 408.49 322.73 408.15 323.21 407.81L326 406C326.83 405.43 327.64 404.94 328.33 404.41L330.22 402.97L332.85 400.97L333.55 400.47L333.74 400.36Z" fill="#455A64"/>
<path d="M335.7 408.81C335.452 408.992 335.179 409.137 334.89 409.24C334.35 409.48 333.56 409.81 332.57 410.17C329.987 411.122 327.34 411.891 324.65 412.47C321.956 413.045 319.226 413.432 316.48 413.63C315.43 413.7 314.57 413.73 313.98 413.73C313.672 413.753 313.363 413.736 313.06 413.68C314.181 413.478 315.313 413.338 316.45 413.26C318.53 413.03 321.45 412.63 324.54 411.96C327.63 411.29 330.45 410.47 332.45 409.83C333.514 409.431 334.599 409.091 335.7 408.81Z" fill="#455A64"/>
<path d="M296.7 364.91C296.79 365.03 279.5 378.62 258.08 395.26C236.66 411.9 219.22 425.32 219.14 425.2C219.06 425.08 236.34 411.5 257.76 394.85C279.18 378.2 296.62 364.8 296.7 364.91Z" fill="#455A64"/>
<path d="M292 432.11C288.13 430.05 283.78 431.27 280.07 432.52C277.6 433.35 275.07 434.67 272.53 433.96C270.72 433.45 269.37 431.96 267.98 430.71C265.176 428.131 261.883 426.14 258.297 424.853C254.711 423.567 250.904 423.012 247.1 423.22C244.927 423.325 242.876 424.25 241.36 425.81C237.55 429.94 240.42 435.3 243.83 438.81C249.905 444.985 257.928 448.871 266.54 449.81C273.63 450.55 283.38 449.57 290.54 446.49C294.97 444.59 297.24 439.36 294.92 435.14C294.265 433.865 293.25 432.811 292 432.11Z" fill="#FF9F43"/>
<g opacity="0.4">
<path opacity="0.4" d="M292 435.41C288.12 433.35 283.77 434.57 280.06 435.82C277.59 436.65 275.06 437.97 272.52 437.26C270.71 436.75 269.36 435.26 267.97 434.01C265.166 431.431 261.874 429.44 258.287 428.153C254.701 426.867 250.894 426.311 247.09 426.52C244.918 426.624 242.866 427.55 241.35 429.11C240.583 429.928 240.033 430.925 239.75 432.01C240.484 434.584 241.889 436.917 243.82 438.77C249.895 444.945 257.918 448.831 266.53 449.77C273.62 450.51 283.37 449.53 290.53 446.45C291.801 445.909 292.927 445.075 293.815 444.017C294.703 442.959 295.328 441.706 295.64 440.36C295.415 439.327 294.97 438.354 294.337 437.507C293.704 436.66 292.897 435.958 291.97 435.45L292 435.41Z" fill="black"/>
</g>
<path d="M295.7 440.32C295.532 439.5 295.21 438.719 294.75 438.02C294.195 437.227 293.492 436.548 292.68 436.02C291.611 435.297 290.389 434.832 289.11 434.66C286.24 434.32 282.9 435.53 279.2 436.53C277.37 437.02 275.37 437.76 273.2 437.53C272.103 437.388 271.048 437.02 270.1 436.45C269.157 435.862 268.267 435.193 267.44 434.45C264.423 431.583 260.801 429.43 256.84 428.15C255.129 427.568 253.363 427.16 251.57 426.93C250.012 426.705 248.429 426.705 246.87 426.93C245.596 427.123 244.369 427.55 243.25 428.19C242.413 428.675 241.654 429.286 241 430C240 431.25 239.63 432.1 239.57 432.06C239.881 431.268 240.312 430.529 240.85 429.87C241.474 429.084 242.224 428.408 243.07 427.87C244.212 427.171 245.479 426.703 246.8 426.49C248.392 426.253 250.009 426.253 251.6 426.49C253.425 426.708 255.224 427.107 256.97 427.68C258.898 428.32 260.76 429.144 262.53 430.14C263.474 430.662 264.38 431.25 265.24 431.9C266.11 432.58 266.92 433.32 267.76 434.04C268.565 434.78 269.431 435.449 270.35 436.04C271.236 436.566 272.219 436.907 273.24 437.04C275.24 437.31 277.24 436.61 279.07 436.13C282.76 435.13 286.15 433.96 289.16 434.35C290.324 434.517 291.438 434.929 292.431 435.558C293.424 436.188 294.272 437.02 294.92 438C295.261 438.536 295.505 439.129 295.64 439.75C295.68 439.937 295.7 440.128 295.7 440.32Z" fill="#263238"/>
<path d="M295.7 440.32C295.532 439.5 295.21 438.719 294.75 438.02C294.195 437.227 293.492 436.548 292.68 436.02C291.611 435.297 290.389 434.832 289.11 434.66C286.24 434.32 282.9 435.53 279.2 436.53C277.37 437.02 275.37 437.76 273.2 437.53C272.103 437.388 271.048 437.02 270.1 436.45C269.157 435.862 268.267 435.193 267.44 434.45C264.423 431.583 260.801 429.43 256.84 428.15C255.129 427.568 253.363 427.16 251.57 426.93C250.012 426.705 248.429 426.705 246.87 426.93C245.596 427.123 244.369 427.55 243.25 428.19C242.413 428.675 241.654 429.286 241 430C240 431.25 239.63 432.1 239.57 432.06C239.881 431.268 240.312 430.529 240.85 429.87C241.474 429.084 242.224 428.408 243.07 427.87C244.212 427.171 245.479 426.703 246.8 426.49C248.392 426.253 250.009 426.253 251.6 426.49C253.425 426.708 255.224 427.107 256.97 427.68C258.898 428.32 260.76 429.144 262.53 430.14C263.474 430.662 264.38 431.25 265.24 431.9C266.11 432.58 266.92 433.32 267.76 434.04C268.565 434.78 269.431 435.449 270.35 436.04C271.236 436.566 272.219 436.907 273.24 437.04C275.24 437.31 277.24 436.61 279.07 436.13C282.76 435.13 286.15 433.96 289.16 434.35C290.324 434.517 291.438 434.929 292.431 435.558C293.424 436.188 294.272 437.02 294.92 438C295.261 438.536 295.505 439.129 295.64 439.75C295.68 439.937 295.7 440.128 295.7 440.32Z" fill="#263238"/>
<path d="M247.63 439.38C248.24 438.846 248.911 438.386 249.63 438.01C251.29 437.006 253.002 436.092 254.76 435.27C256.517 434.442 258.317 433.704 260.15 433.06C260.896 432.756 261.674 432.537 262.47 432.41C261.772 432.811 261.039 433.145 260.28 433.41C258.91 433.98 257.03 434.78 254.98 435.74C252.93 436.7 251.12 437.64 249.81 438.33C249.12 438.752 248.39 439.104 247.63 439.38Z" fill="#263238"/>
<path d="M249 443.26C251.441 441.791 253.969 440.472 256.57 439.31C259.098 437.995 261.703 436.833 264.37 435.83C261.929 437.299 259.401 438.618 256.8 439.78C254.274 441.099 251.669 442.262 249 443.26Z" fill="#263238"/>
<path d="M265 444.94C264.92 445.06 260.79 442.6 255.78 439.44C250.77 436.28 246.78 433.61 246.78 433.49C246.78 433.37 250.98 435.83 256 439C261.02 442.17 265.1 444.82 265 444.94Z" fill="#263238"/>
<path d="M267.339 440.92C266.633 440.532 265.964 440.08 265.339 439.57C264.129 438.69 262.45 437.48 260.57 436.18C258.69 434.88 256.979 433.73 255.729 432.9C255.017 432.495 254.347 432.019 253.729 431.48C254.491 431.771 255.218 432.143 255.899 432.59C257.199 433.34 258.969 434.45 260.899 435.75C262.829 437.05 264.44 438.32 265.6 439.28C266.245 439.752 266.83 440.303 267.339 440.92Z" fill="#263238"/>
</svg>
